<svg width="12" height="12" viewBox="0 0 12 12" fill="none" xmlns="http://www.w3.org/2000/svg">
<path id="Vector" d="M11.5331 5.22348C11.1722 3.69043 10.2896 2.32992 9.03587 1.37415C8.46785 0.839742 7.77129 0.460738 7.01358 0.273807C6.25586 0.0868759 5.46264 0.0983547 4.71067 0.307116C3.25197 0.940433 2.06357 2.06682 1.35439 3.48829C1.29569 3.59218 1.26077 3.70778 1.25213 3.82675C1.24349 3.94572 1.26136 4.06512 1.30444 4.17638C0.973583 5.10444 0.879778 6.10022 1.03152 7.07358C1.18326 8.04694 1.57577 8.96715 2.17349 9.75093C4.26117 12.4634 7.89713 11.526 10.0647 9.42185C10.653 8.90912 11.0976 8.25254 11.355 7.51652C11.6125 6.7805 11.6738 5.99032 11.5331 5.22348ZM9.12577 8.02571C7.8372 9.43182 5.35994 10.6584 3.74174 9.02295C3.12759 8.37155 2.74199 7.53863 2.64297 6.64954C2.5231 5.89164 2.52309 4.54536 3.40212 4.2063C3.52588 4.15537 3.63669 4.0775 3.72645 3.97835C3.81622 3.87921 3.88266 3.7613 3.92095 3.63324C3.95924 3.50518 3.96842 3.3702 3.94778 3.23816C3.92714 3.10611 3.87722 2.98033 3.80167 2.87C4.10195 2.56567 4.43724 2.29788 4.80056 2.07221C5.27866 1.8183 5.82409 1.71932 6.3611 1.78902C6.89812 1.85871 7.40006 2.09363 7.79724 2.46113C9.58526 3.70768 10.7939 6.18083 9.12577 7.9958" fill="#49B3F7"/>
</svg>
