<svg width="11" height="9" viewBox="0 0 11 9" fill="none" xmlns="http://www.w3.org/2000/svg">
<path id="Vector" d="M2.80651 1.23496C2.68461 1.21135 2.55863 1.22011 2.44118 1.26036C2.32373 1.30061 2.21894 1.37094 2.13726 1.46432C1.73782 1.86223 1.42571 2.33881 1.22082 2.8637C1.01594 3.3886 0.922742 3.95032 0.947171 4.51314C0.9716 5.07595 1.11312 5.62753 1.36273 6.13276C1.61233 6.638 1.96454 7.08582 2.39696 7.44774C4.26489 8.95356 7.2316 8.44497 8.93971 6.89925C13.0152 3.22943 6.08288 -2.34512 2.80651 1.1851V1.23496ZM7.47134 5.96187C6.90577 6.39629 6.22267 6.65131 5.51036 6.69398C4.79805 6.73665 4.0893 6.56499 3.47577 6.20119C2.98231 5.8351 2.65318 5.28967 2.5597 4.68303C2.46622 4.0764 2.6159 3.45741 2.97632 2.96017C3.13117 2.9849 3.28988 2.96302 3.43221 2.8973C3.57454 2.83158 3.69404 2.72501 3.77544 2.5912C5.53349 -0.111308 10.6378 3.78789 7.46134 5.96187" fill="#49B3F7"/>
</svg>
