<svg width="46" height="55" viewBox="0 0 46 55" fill="none" xmlns="http://www.w3.org/2000/svg">
<g id="Group">
<path id="Vector" d="M45.3898 13.212C44.5292 16.6823 43.432 20.0894 42.1059 23.4093C37.6812 35.6142 30.3793 54.021 30.3793 54.021C19.6344 52.7292 9.33648 48.9524 0.298863 42.9888C0.0706806 42.2732 0.398093 40.0072 1.0628 36.8069C3.57281 24.8802 10.8647 0.410721 10.8647 0.410721C17.3233 -0.116039 45.3898 13.212 45.3898 13.212Z" fill="#49B3F7"/>
<path id="Vector_2" d="M13.632 11.3231C13.4931 11.0647 15.0012 3.80957 15.5171 3.80957C16.0329 3.80957 37.75 11.7107 38.3949 12.6946C39.0397 13.6786 37.0952 19.7411 35.9246 19.6516C34.7539 19.5622 14.0884 12.148 13.632 11.3231Z" fill="#864FF1"/>
<path id="Vector_3" d="M10.2692 19.8215C10.3386 19.5631 11.5688 14.5342 12.3526 14.5342C13.1363 14.5342 24.3471 18.5096 24.6745 19.1755C25.0019 19.8414 23.8907 24.5224 22.7796 24.5224C21.6684 24.5224 10.1105 20.4377 10.2692 19.8215Z" fill="#FFC652"/>
<path id="Vector_4" d="M27.1551 25.7051C26.7285 24.9696 28.1472 20.6762 28.6531 20.4178C29.1591 20.1594 36.3419 22.5645 36.4014 23.3993C36.461 24.2341 35.6871 28.2294 35.0423 28.1002C34.3974 27.971 27.413 26.1622 27.1551 25.7051Z" fill="#864FF1"/>
<path id="Vector_5" d="M8.24611 26.9478C8.24611 26.9478 9.35729 22.0481 9.94263 22.1773C10.528 22.3065 16.5898 24.2644 16.3318 24.8508C16.0739 25.4371 15.2901 29.4921 14.8337 29.4921C14.3774 29.4921 8.11713 27.4845 8.24611 26.9478Z" fill="#864FF1"/>
<path id="Vector_6" d="M17.502 30.605C17.502 30.605 18.6131 25.7053 19.1985 25.8345C19.7838 25.9637 25.8456 27.9216 25.5877 28.508C25.3297 29.0944 24.536 33.1493 24.0896 33.1493C23.6431 33.1493 17.373 31.1417 17.502 30.605Z" fill="#864FF1"/>
<path id="Vector_7" d="M26.6795 33.8849C26.6795 33.8849 27.7808 28.9851 28.376 29.1143C28.9713 29.2435 35.0231 31.2014 34.7552 31.7878C34.4873 32.3742 33.7135 36.4292 33.2571 36.4292C32.8008 36.4292 26.5009 34.4216 26.6795 33.8849Z" fill="#864FF1"/>
<path id="Vector_8" d="M6.16212 34.2623C6.16212 34.2623 7.2733 29.3626 7.85864 29.4918C8.44398 29.621 14.5057 31.5789 14.2477 32.1652C13.9898 32.7516 13.2061 36.8066 12.7497 36.8066C12.2933 36.8066 6.03315 34.7989 6.16212 34.2623Z" fill="#864FF1"/>
<path id="Vector_9" d="M15.418 37.92C15.418 37.92 16.5192 33.0203 17.1145 33.1495C17.7097 33.2787 23.7615 35.2366 23.4937 35.823C23.2258 36.4093 22.5016 40.4643 21.9957 40.4643C21.4897 40.4643 15.289 38.4567 15.418 37.92Z" fill="#864FF1"/>
<path id="Vector_10" d="M24.5368 41.1997C24.5368 41.1997 25.648 36.3001 26.2333 36.4293C26.8186 36.5585 32.8804 38.5163 32.6224 39.1127C32.3645 39.709 31.6303 43.744 31.1243 43.744C30.6184 43.744 24.4178 41.7364 24.5368 41.1997Z" fill="#864FF1"/>
<path id="Vector_11" d="M3.91017 41.1997C3.91017 41.1997 5.01142 36.3001 5.59676 36.4293C6.1821 36.5585 12.2538 38.5163 11.9859 39.1127C11.718 39.709 10.9442 43.744 10.4878 43.744C10.0314 43.744 3.7812 41.7364 3.91017 41.1997Z" fill="#864FF1"/>
<path id="Vector_12" d="M13.1563 44.857C13.1563 44.857 14.2675 39.9573 14.8528 40.0865C15.4381 40.2157 21.4999 42.1736 21.2419 42.7699C20.984 43.3662 20.2498 47.4013 19.7438 47.4013C19.2379 47.4013 13.0273 45.3937 13.1563 44.857Z" fill="#864FF1"/>
<path id="Vector_13" d="M22.2852 48.0972C22.2852 48.0972 23.3964 43.1975 23.9817 43.3267C24.567 43.4559 30.6288 45.4138 30.3708 46.0101C30.1129 46.6064 29.3292 50.6415 28.8728 50.6415C28.4164 50.6415 22.1562 48.6737 22.2852 48.0972Z" fill="#864FF1"/>
<g id="Vector_14" style="mix-blend-mode:multiply" opacity="0.36">
<path d="M35.9263 19.5929C34.7457 19.4637 14.1 12.149 13.6337 11.3042C13.6267 10.9931 13.66 10.6824 13.733 10.3799C17.0168 12.0595 34.4282 18.2015 35.4997 18.3307C36.5712 18.4599 37.9105 14.4845 38.0891 12.4471C38.2063 12.5055 38.3108 12.5866 38.3966 12.6856C39.0514 13.6497 37.097 19.7221 35.9263 19.5929Z" fill="#2D7F75"/>
</g>
<g id="Group_2">
<path id="Vector_15" d="M10.2692 19.8215C10.3386 19.5631 11.5688 14.5342 12.3526 14.5342C13.1363 14.5342 24.3471 18.5096 24.6745 19.1755C25.0019 19.8414 23.8907 24.5224 22.7796 24.5224C21.6684 24.5224 10.1105 20.4377 10.2692 19.8215Z" fill="#FFC652"/>
<path id="Vector_16" d="M27.1551 25.7051C26.7285 24.9696 28.1472 20.6762 28.6531 20.4178C29.1591 20.1594 36.3419 22.5645 36.4014 23.3993C36.461 24.2341 35.6871 28.2294 35.0423 28.1002C34.3974 27.971 27.413 26.1622 27.1551 25.7051Z" fill="#864FF1"/>
<path id="Vector_17" d="M8.24611 26.9478C8.24611 26.9478 9.35729 22.0481 9.94263 22.1773C10.528 22.3065 16.5898 24.2644 16.3318 24.8508C16.0739 25.4371 15.2901 29.4921 14.8337 29.4921C14.3774 29.4921 8.11713 27.4845 8.24611 26.9478Z" fill="#864FF1"/>
<path id="Vector_18" d="M17.502 30.605C17.502 30.605 18.6131 25.7053 19.1985 25.8345C19.7838 25.9637 25.8456 27.9216 25.5877 28.508C25.3297 29.0944 24.536 33.1493 24.0896 33.1493C23.6431 33.1493 17.373 31.1417 17.502 30.605Z" fill="#864FF1"/>
<path id="Vector_19" d="M26.6776 33.8854C26.6776 33.8854 27.7788 28.9856 28.3741 29.1148C28.9693 29.244 35.0211 31.2019 34.7532 31.7883C34.4854 32.3747 33.7115 36.4296 33.2552 36.4296C32.7988 36.4296 26.499 34.422 26.6776 33.8854Z" fill="#864FF1"/>
<path id="Vector_20" d="M6.16212 34.2628C6.16212 34.2628 7.2733 29.3631 7.85864 29.4923C8.44398 29.6215 14.5057 31.5794 14.2477 32.1657C13.9898 32.7521 13.2061 36.8071 12.7497 36.8071C12.2933 36.8071 6.03315 34.7994 6.16212 34.2628Z" fill="#864FF1"/>
<path id="Vector_21" d="M15.418 37.9205C15.418 37.9205 16.5192 33.0208 17.1145 33.15C17.7097 33.2792 23.7615 35.2371 23.4937 35.8234C23.2258 36.4098 22.5016 40.4648 21.9957 40.4648C21.4897 40.4648 15.289 38.4572 15.418 37.9205Z" fill="#864FF1"/>
<path id="Vector_22" d="M24.5368 41.1997C24.5368 41.1997 25.648 36.3001 26.2333 36.4293C26.8186 36.5585 32.8804 38.5163 32.6224 39.1127C32.3645 39.709 31.6303 43.744 31.1243 43.744C30.6184 43.744 24.4178 41.7364 24.5368 41.1997Z" fill="#864FF1"/>
<path id="Vector_23" d="M3.91017 41.1997C3.91017 41.1997 5.01142 36.3001 5.59676 36.4293C6.1821 36.5585 12.2538 38.5163 11.9859 39.1127C11.718 39.709 10.9442 43.744 10.4878 43.744C10.0314 43.744 3.7812 41.7364 3.91017 41.1997Z" fill="#864FF1"/>
<path id="Vector_24" d="M13.1582 44.857C13.1582 44.857 14.2694 39.9573 14.8547 40.0865C15.4401 40.2157 21.5018 42.1736 21.2439 42.7699C20.9859 43.3662 20.2518 47.4013 19.7458 47.4013C19.2398 47.4013 13.0293 45.3937 13.1582 44.857Z" fill="#864FF1"/>
<path id="Vector_25" d="M22.2832 48.0977C22.2832 48.0977 23.3944 43.198 23.9797 43.3272C24.5651 43.4564 30.6268 45.4143 30.3689 46.0106C30.1109 46.6069 29.3272 50.642 28.8708 50.642C28.4145 50.642 22.1542 48.6742 22.2832 48.0977Z" fill="#864FF1"/>
</g>
<g id="Group_3" style="mix-blend-mode:multiply" opacity="0.36">
<g id="Vector_26" style="mix-blend-mode:multiply" opacity="0.36">
<path d="M22.7796 24.5317C21.6784 24.5317 10.1105 20.4371 10.2692 19.8209C10.2692 19.7712 10.3486 19.5029 10.4478 19.1252C13.0868 20.4271 21.2319 23.2497 22.1446 23.2497C23.0574 23.2497 23.8907 20.3377 24.0594 18.7773C24.4165 18.9562 24.6348 19.0854 24.6745 19.1749C25.0019 19.8209 23.8907 24.5317 22.7796 24.5317Z" fill="#2D7F75"/>
</g>
<g id="Vector_27" style="mix-blend-mode:multiply" opacity="0.36">
<path d="M35.033 28.0498C34.3881 27.9206 27.4137 26.1615 27.1458 25.7043C27.0582 25.3789 27.0582 25.036 27.1458 24.7105C28.8919 25.3863 33.8822 26.6386 34.4278 26.7479C34.9735 26.8572 35.5886 24.1539 35.7572 22.7725C36.1739 23.011 36.422 23.2098 36.4418 23.3489C36.4716 24.1341 35.6878 28.2188 35.033 28.0498Z" fill="#2D7F75"/>
</g>
<g id="Vector_28" style="mix-blend-mode:multiply" opacity="0.36">
<path d="M16.3318 24.8501C16.0738 25.4365 15.2901 29.4915 14.8337 29.4915C14.3773 29.4915 8.11713 27.5037 8.24611 26.9472C8.24611 26.9472 8.3156 26.6689 8.41481 26.2415C10.2855 27.061 12.2199 27.7258 14.1987 28.2293C14.5658 28.2293 15.1908 25.516 15.5083 24.2041C16.0639 24.4724 16.4012 24.701 16.3318 24.8501Z" fill="#2D7F75"/>
</g>
<g id="Vector_29" style="mix-blend-mode:multiply" opacity="0.36">
<path d="M25.5876 28.5073C25.3198 29.0937 24.536 33.1486 24.0796 33.1486C23.6232 33.1486 17.373 31.1609 17.502 30.6044C17.502 30.6044 17.5615 30.3261 17.6706 29.8987C19.538 30.7178 21.4691 31.3826 23.4447 31.8865C23.8216 31.8865 24.4368 29.1732 24.7642 27.8613C25.3098 28.1297 25.6868 28.3583 25.5876 28.5073Z" fill="#2D7F75"/>
</g>
<g id="Vector_30" style="mix-blend-mode:multiply" opacity="0.36">
<path d="M34.7047 31.7871C34.4467 32.3834 33.6629 36.4285 33.2066 36.4285C32.7502 36.4285 26.4999 34.4407 26.6289 33.8842C26.6289 33.8842 26.6884 33.6059 26.7876 33.1785C28.6583 33.998 30.5927 34.6628 32.5716 35.1662C32.9486 35.1662 33.5637 32.453 33.8812 31.1411C34.4368 31.4095 34.7741 31.638 34.7047 31.7871Z" fill="#2D7F75"/>
</g>
<g id="Vector_31" style="mix-blend-mode:multiply" opacity="0.36">
<path d="M14.2477 32.1953C13.9798 32.7916 13.206 36.8366 12.7496 36.8366C12.2933 36.8366 6.03315 34.8489 6.16212 34.2923C6.16212 34.2923 6.22163 34.0141 6.33076 33.5867C8.19814 34.4058 10.1292 35.0706 12.1048 35.5744C12.4818 35.5744 13.0969 32.8612 13.4243 31.5493C13.9699 31.7878 14.3072 32.0264 14.2477 32.1953Z" fill="#2D7F75"/>
</g>
<g id="Vector_32" style="mix-blend-mode:multiply" opacity="0.36">
<path d="M23.4937 35.8223C23.2357 36.4086 22.5016 40.4636 21.9956 40.4636C21.4897 40.4636 15.289 38.4759 15.418 37.9193C15.418 37.9193 15.4775 37.641 15.5767 37.2137C17.4479 38.0317 19.3823 38.6964 21.3607 39.2014C21.7377 39.2014 22.3528 36.4882 22.6703 35.1763C23.2258 35.4446 23.5631 35.6732 23.4937 35.8223Z" fill="#2D7F75"/>
</g>
<g id="Vector_33" style="mix-blend-mode:multiply" opacity="0.36">
<path d="M32.6322 39.1523C32.3743 39.7486 31.6401 43.7936 31.1342 43.7936C30.6282 43.7936 24.4276 41.8059 24.5466 41.2493L24.7153 40.5536C26.5872 41.3698 28.5214 42.0345 30.4992 42.5413C30.8762 42.5413 31.4913 39.8281 31.8088 38.5659C32.3544 38.7249 32.6918 38.9635 32.6322 39.1523Z" fill="#2D7F75"/>
</g>
<g id="Vector_34" style="mix-blend-mode:multiply" opacity="0.36">
<path d="M11.9858 39.1523C11.7279 39.7486 10.9441 43.7936 10.4878 43.7936C10.0314 43.7936 3.7812 41.8059 3.91017 41.2493C3.91017 41.2493 3.96973 40.971 4.06894 40.5536C5.94085 41.3698 7.87496 42.0345 9.85281 42.5413C10.2298 42.5413 10.8449 39.8281 11.1624 38.5659C11.718 38.7249 12.0553 38.9635 11.9858 39.1523Z" fill="#2D7F75"/>
</g>
<g id="Vector_35" style="mix-blend-mode:multiply" opacity="0.36">
<path d="M21.2436 42.7701C20.9856 43.3565 20.2515 47.4015 19.7455 47.4015C19.2395 47.4015 13.0389 45.4138 13.1579 44.8572L13.3266 44.1615C15.1961 44.9838 17.1308 45.6487 19.1105 46.1492C19.4875 46.1492 20.1026 43.436 20.4201 42.1738C20.9757 42.3825 21.313 42.6211 21.2436 42.7701Z" fill="#2D7F75"/>
</g>
<g id="Vector_36" style="mix-blend-mode:multiply" opacity="0.36">
<path d="M30.3688 46.0499C30.1108 46.6363 29.3271 50.6813 28.8707 50.6813C28.4144 50.6813 22.1542 48.6936 22.2832 48.137L22.4519 47.4413C24.3232 48.259 26.2575 48.9238 28.2358 49.4291C28.6029 49.4291 29.2279 46.7158 29.5454 45.4536C30.091 45.6623 30.4283 45.9009 30.3688 46.0499Z" fill="#2D7F75"/>
</g>
</g>
<g id="Vector_37" style="mix-blend-mode:multiply" opacity="0.36">
<path d="M42.106 23.4092C37.6812 35.6137 30.3793 54.02 30.3793 54.02C19.6344 52.7283 9.33649 48.9516 0.298863 42.9881C0.0706805 42.2726 0.398093 40.0066 1.0628 36.8064C1.0628 36.8064 25.0716 53.9107 42.106 23.4092Z" fill="#2D7F75"/>
</g>
</g>
</svg>
