<svg width="58" height="23" viewBox="0 0 58 23" fill="none" xmlns="http://www.w3.org/2000/svg">
<path id="Vector" d="M0.755567 21.3882C0.636705 21.1546 0.597952 20.8874 0.645705 20.631C0.693457 20.3745 0.824871 20.144 1.0182 19.9776C6.19268 15.5262 11.8446 11.6967 17.868 8.56103C19.0071 7.96937 20.155 7.37312 21.3131 6.86419C21.5841 6.74723 21.8902 6.74378 22.1674 6.85456C22.4445 6.96534 22.6713 7.18175 22.8003 7.45854C22.9235 7.73972 22.9349 8.05792 22.8318 8.34366C22.7287 8.6294 22.5196 8.8595 22.2501 8.98372C21.1365 9.49269 20.0147 10.0522 18.9022 10.6301C13.0306 13.6873 7.52057 17.4198 2.47507 21.7576C2.36374 21.8549 2.23447 21.9282 2.09471 21.9732C1.95495 22.0181 1.80748 22.034 1.66078 22.0197C1.51408 22.0055 1.37105 21.9614 1.23996 21.8901C1.10887 21.8189 0.992291 21.7217 0.896957 21.6044C0.850161 21.5325 0.811597 21.4553 0.782053 21.3745L0.755567 21.3882ZM32.0048 4.33376C31.961 4.26806 31.9255 4.19698 31.8991 4.12226C31.8195 3.82418 31.8573 3.5077 32.0042 3.24243C32.1511 2.97715 32.3951 2.78478 32.6824 2.70761C41.3786 0.368157 49.5118 0.151291 56.8329 2.07055C57.1058 2.16153 57.3368 2.35563 57.4791 2.6135C57.6214 2.87137 57.6643 3.17374 57.5992 3.45937C57.5341 3.745 57.3659 3.99254 57.1285 4.15183C56.8911 4.31113 56.6024 4.37026 56.3209 4.31728C49.353 2.50408 41.589 2.70293 33.2786 4.94627C33.0315 5.0133 32.7681 4.98989 32.5328 4.87998C32.2976 4.77007 32.1048 4.58038 31.9871 4.34294" fill="#49B3F7"/>
</svg>
