<svg width="86" height="129" viewBox="0 0 86 129" fill="none" xmlns="http://www.w3.org/2000/svg">
<g id="girl">
<g id="Group" style="mix-blend-mode:multiply" opacity="0.95">
<g id="Group_2" style="mix-blend-mode:multiply" opacity="0.95">
<g id="Vector" style="mix-blend-mode:multiply" opacity="0.95">
<path d="M71.3633 110.256L29.8118 112.824V122.698L70.5646 119.342C70.5646 119.342 73.3767 116.444 71.3633 110.256Z" fill="#F8CC90"/>
</g>
</g>
<path id="Vector_2" d="M43 129C66.7482 129 86 125.505 86 121.194C86 116.883 66.7482 113.388 43 113.388C19.2518 113.388 0 116.883 0 121.194C0 125.505 19.2518 129 43 129Z" fill="#DEE1F3"/>
</g>
<g id="Group_3">
<path id="Vector_3" d="M71.7214 108.077L25.9929 110.904V121.77L70.8243 118.074C70.8243 118.074 73.9054 114.89 71.7214 108.077Z" fill="#FF6551"/>
<g id="Vector_4" style="mix-blend-mode:multiply" opacity="0.95">
<path d="M71.7214 108.077L25.9929 110.904V121.77L70.8243 118.074C70.8243 118.074 73.9054 114.89 71.7214 108.077Z" fill="#F8CC90"/>
</g>
<path id="Vector_5" d="M41.0522 113.011C41.0522 113.011 43.0012 115.925 41.0522 118.66L65.9675 116.615C66.6243 114.961 66.6243 113.12 65.9675 111.465L41.0522 113.011Z" fill="#FF6551"/>
<path id="Vector_6" d="M7.95752 108.73L43.1866 106.624L71.7213 108.077L26.0113 110.904L7.95752 108.73Z" fill="#FF6551"/>
<path id="Vector_7" d="M8.82983 109.451C8.82983 109.451 10.358 114.668 9.26911 118.296L25.5596 121.049C25.5596 121.049 27.6137 120.76 27.9726 117.711C28.3314 114.662 25.5596 110.874 25.5596 110.874L8.82983 109.451Z" fill="#FFEBDD"/>
<g id="Group_4">
<g id="Vector_8" style="mix-blend-mode:multiply" opacity="0.41">
<path d="M25.56 110.875L8.85498 109.477C8.85498 109.477 9.07153 110.259 9.28807 111.491L22.7325 112.981C23.3529 113.045 23.9364 113.304 24.3975 113.722C24.8586 114.14 25.1728 114.695 25.294 115.304C25.294 115.304 25.294 115.353 25.294 115.377C25.3571 115.835 25.3099 116.302 25.1562 116.738C25.0025 117.174 24.7467 117.568 24.41 117.886C24.0733 118.205 23.6653 118.439 23.2198 118.569C22.7743 118.699 22.304 118.722 21.8478 118.636L9.58505 116.462C9.53658 117.087 9.42464 117.706 9.25095 118.309L25.5415 121.063C25.5415 121.063 27.5956 120.773 27.9544 117.724C28.3133 114.675 25.56 110.875 25.56 110.875Z" fill="#E79E82"/>
</g>
<g id="Vector_9" style="mix-blend-mode:multiply" opacity="0.41">
<path d="M9.50586 112.876C9.54917 113.209 9.58629 113.554 9.61104 113.905L22.0779 114.927L9.50586 112.876Z" fill="#E79E82"/>
</g>
<g id="Vector_10" style="mix-blend-mode:multiply" opacity="0.41">
<path d="M18.8342 116.418L9.65259 114.989C9.65259 115.235 9.65259 115.488 9.65259 115.74L18.8342 116.418Z" fill="#E79E82"/>
</g>
</g>
<path id="Vector_11" d="M7.95777 109.962L24.7556 112.062C25.9221 113.09 26.6503 114.522 26.7912 116.066C26.7757 116.826 26.6085 117.575 26.2994 118.27C25.9903 118.964 25.5454 119.591 24.9907 120.113L8.24856 117.427L8.32281 119.023L25.5599 121.776C25.5599 121.776 28.703 120.692 28.6535 116.417C28.604 112.142 25.993 110.904 25.993 110.904L7.93921 108.73L7.95777 109.962Z" fill="#FF6551"/>
</g>
<g id="Group_5">
<path id="Vector_12" d="M69.0301 98.0557C69.0301 98.0557 67.2111 103.655 69.0301 108.003L63.2762 109.962C63.2762 109.962 58.6173 107.135 62.3296 100.175L69.0301 98.0557Z" fill="#FFEBDD"/>
<g id="Group_6" style="mix-blend-mode:multiply" opacity="0.41">
<g id="Vector_13" style="mix-blend-mode:multiply" opacity="0.41">
<path d="M63.2763 109.962L69.0303 108.003C68.7911 107.427 68.6088 106.828 68.4858 106.217L63.7342 107.794C63.7342 107.794 63.1526 107.504 62.7133 105.465C62.6142 104.803 62.6537 104.127 62.8294 103.48C63.0051 102.834 63.3131 102.23 63.7342 101.708L68.5601 99.9586C68.676 99.322 68.8288 98.6927 69.0179 98.0737L62.3173 100.193C58.6175 107.134 63.2763 109.962 63.2763 109.962Z" fill="#E79E82"/>
</g>
<g id="Vector_14" style="mix-blend-mode:multiply" opacity="0.41">
<path d="M68.2816 102.079C68.2816 101.752 68.3435 101.463 68.3806 101.143L64.4023 103.064L68.2816 102.079Z" fill="#E79E82"/>
</g>
<g id="Vector_15" style="mix-blend-mode:multiply" opacity="0.41">
<path d="M64.9714 105.447L68.3001 104.899C68.2629 104.504 68.2382 104.116 68.232 103.734L64.9714 105.447Z" fill="#E79E82"/>
</g>
</g>
<path id="Vector_16" d="M11.819 98.0557C11.819 98.0557 8.86774 104.961 13.2358 109.759L61.4577 111.354C61.4577 111.354 59.1808 107.658 60.7214 99.7927L11.819 98.0557Z" fill="#49B3F7"/>
<path id="Vector_17" d="M15.7414 100.402C15.7414 100.402 13.842 103.63 16.2859 108.089L52.8637 109.13C52.8637 109.13 50.6797 106.981 51.88 101.536L15.7414 100.402Z" fill="#89CEFA"/>
<path id="Vector_18" d="M70.2321 96.2871L60.7226 99.7857C60.7226 99.7857 58.4705 106.204 61.4588 111.347L69.7928 108.668V106.709L63.2778 109.099C63.2778 109.099 60.6607 107.251 62.622 100.987L70.1578 98.6709L70.2321 96.2871Z" fill="#0071BC"/>
<path id="Vector_19" d="M11.8184 98.0551L30.0887 94.5503L70.2303 96.2873L60.7208 99.7736L11.8184 98.0551Z" fill="#0071BC"/>
</g>
<g id="Group_7">
<path id="Vector_20" d="M31.9452 115.678C31.9452 115.678 31.9452 117.711 30.8934 118.801C29.8416 119.891 26.5624 121.517 26.8099 123.476C27.0574 125.435 33.8013 124.351 37.6187 121.413C41.4361 118.475 38.6705 116.744 37.6187 115.321L31.9452 115.678Z" fill="#808080"/>
<path id="Vector_21" d="M27.5772 89.7218C27.5772 89.7218 22.6647 99.4417 24.626 105.429C26.5873 111.416 31.8339 117.169 31.8339 117.169C31.8339 117.169 36.3071 118.037 37.6188 115.321C37.6188 115.321 33.69 110.215 36.7464 101.955C36.7464 101.955 39.2583 94.0951 35.6575 90.6335C32.0566 87.1718 29.3219 87.9232 27.5772 89.7218Z" fill="#2435A1"/>
</g>
<g id="Group_8">
<path id="Vector_22" d="M50.5558 115.678C50.5558 115.678 50.5558 117.711 51.6076 118.801C52.6594 119.891 55.9076 121.517 55.6911 123.476C55.4745 125.435 48.6997 124.351 44.8761 121.413C41.0525 118.475 43.8305 116.744 44.8761 115.321L50.5558 115.678Z" fill="#808080"/>
<path id="Vector_23" d="M54.9245 89.7218C54.9245 89.7218 59.837 99.4417 57.8695 105.429C55.902 111.416 50.6678 117.169 50.6678 117.169C50.6678 117.169 46.1884 118.037 44.8767 115.321C44.8767 115.321 48.8117 110.215 45.7553 101.955C45.7553 101.955 43.2433 94.0951 46.8442 90.6335C50.4451 87.1718 53.1797 87.9232 54.9245 89.7218Z" fill="#2435A1"/>
</g>
<g id="Group_9">
<g id="Group_10">
<path id="Vector_24" d="M61.2602 72.4812C61.2602 72.5367 61.2602 72.5983 61.2602 72.6599C61.171 73.073 60.9834 73.4588 60.7132 73.7847C60.4429 74.1106 60.0979 74.367 59.7072 74.5324C58.9293 74.8619 58.1153 75.0996 57.2819 75.2407C56.0445 75.5241 54.8566 75.9244 53.6315 76.2016C52.121 76.5086 50.5914 76.7144 49.0531 76.8176C46.5783 77.0393 44.054 77.2549 41.5482 77.2549C37.1357 77.1522 32.7406 76.6658 28.4131 75.8013C26.0345 75.4774 23.7064 74.8566 21.4836 73.9534C20.3205 73.4237 19.114 72.586 18.9346 71.3232C18.7551 70.0605 19.7946 68.6623 20.438 67.6275C21.1723 66.476 22.0313 65.4081 22.9995 64.443C24.9093 62.4399 27.2307 60.8705 29.8052 59.8418C30.8137 59.4476 31.8284 59.0595 32.8616 58.7454L33.3133 58.6099C33.6412 58.5175 33.9691 58.4374 34.3032 58.3635C38.5944 57.4822 43.0451 57.7716 47.1846 59.2012C47.9642 59.4537 48.7438 59.7432 49.4986 60.0574C49.8265 60.1929 50.1544 60.3346 50.4762 60.4824C52.8589 61.4907 55.0436 62.9108 56.9293 64.6771C58.6988 66.426 60.0483 68.5506 60.8766 70.8921C61.107 71.3919 61.2373 71.9317 61.2602 72.4812Z" fill="#FF6551"/>
<g id="Vector_25" style="mix-blend-mode:multiply" opacity="0.95">
<path d="M60.883 70.8667C59.8128 67.8056 57.8451 65.1343 55.2343 63.198C52.2273 65.9205 47.9645 67.0354 44.3512 67.5097C38.7829 68.6123 31.2532 65.7481 28.8836 60.2476C26.6818 61.2735 24.6908 62.6979 23.0121 64.4484C22.0367 65.4045 21.1695 66.4641 20.4259 67.6083C19.8072 68.6677 18.743 70.0228 18.9224 71.304C19.1019 72.5852 20.3083 73.4044 21.4715 73.9341C23.6942 74.8374 26.0224 75.4582 28.401 75.782C32.7285 76.6466 37.1236 77.133 41.5361 77.2357C44.0109 77.2357 46.5414 77.0139 49.041 76.7983C50.5793 76.6951 52.1088 76.4894 53.6194 76.1824C54.8568 75.9052 56.0448 75.5048 57.2698 75.2153C58.1071 75.086 58.9255 74.8564 59.7075 74.5316C60.0952 74.3686 60.4383 74.116 60.7084 73.7946C60.9785 73.4733 61.1677 73.0925 61.2604 72.6837C61.2604 72.6222 61.2604 72.5606 61.2604 72.5051C61.246 71.9393 61.1176 71.3822 60.883 70.8667Z" fill="#F8CC90"/>
</g>
<g id="Group_11" style="mix-blend-mode:multiply">
<g id="Vector_26" style="mix-blend-mode:multiply">
<path d="M47.203 59.1826C47.0421 59.4537 44.623 61.6465 40.2735 61.203C36.3694 60.7903 34.7361 59.1642 34.3215 58.3449C38.6127 57.4636 43.0634 57.753 47.203 59.1826Z" fill="#F7A845"/>
</g>
</g>
</g>
<g id="Group_12">
<path id="Vector_27" d="M45.2171 58.788C45.2171 58.788 44.1034 60.4696 40.4469 60.0199C36.7903 59.5703 35.9736 58.172 35.9736 58.172V56.8046V54.8212L44.6355 54.119L45.4522 54.0513V54.5564L45.3285 57.1742L45.2171 58.788Z" fill="#EA9573"/>
<g id="Vector_28" style="mix-blend-mode:multiply" opacity="0.31">
<path d="M45.2913 57.1805C44.1282 57.9566 42.6433 58.7142 41.3254 58.6649C38.7083 58.5664 36.0417 56.8478 35.9736 56.817V54.8213L44.6355 54.1191L45.4274 54.5565L45.2913 57.1805Z" fill="#DD7258"/>
</g>
</g>
<g id="Group_13">
<path id="Vector_29" d="M62.5282 32.6466C62.5282 32.6466 65.9744 31.0389 67.8986 33.4658C69.8227 35.8927 66.7725 42.0338 64.44 42.6374C62.1075 43.2411 61.198 42.6374 61.198 42.6374L62.5282 32.6466Z" fill="#FFBF94"/>
<path id="Vector_30" d="M19.3667 32.5613C19.3667 32.5613 15.9205 30.9475 13.9902 33.3621C12.0598 35.7766 15.0976 41.9424 17.424 42.546C19.7503 43.1496 20.666 42.546 20.666 42.546L19.3667 32.5613Z" fill="#FFBF94"/>
<path id="Vector_31" d="M64.1618 23.4076C64.1618 23.4076 63.5431 32.4314 62.516 39.6874C62.3675 40.7776 62.2067 41.8248 62.0458 42.7672C61.5508 45.6807 60.9878 47.8981 60.3939 48.4525C58.247 50.5098 46.0832 57.0143 41.3192 56.7002C36.5552 56.386 23.9954 50.3743 21.9785 48.1999C21.3598 47.5101 20.6297 45.0647 19.9862 42.0404C18.6065 35.659 17.4434 26.7523 17.4434 26.7523C17.9507 12.111 26.1857 7.16482 42.0802 6.6659C57.9747 6.16697 64.1618 23.4076 64.1618 23.4076Z" fill="#FFBF94"/>
<g id="Group_14" opacity="0.27">
<path id="Vector_32" opacity="0.27" d="M52.4004 11.7601C52.4004 11.7601 50.501 1.76314 39.7788 1.90481C35.2723 1.98902 30.8407 3.06814 26.8038 5.06428C22.767 7.06043 19.2255 9.92383 16.4351 13.4479C13.7411 16.9249 12.5283 21.317 13.0584 25.6765C13.5885 30.0359 15.8191 34.013 19.2688 36.7495C19.2688 36.7495 21.7436 32.2038 24.1751 28.6435C24.1751 28.6435 37.8794 34.606 50.7794 23.451C50.7732 23.451 54.2999 17.9813 52.4004 11.7601Z" fill="#DA8966"/>
<path id="Vector_33" opacity="0.27" d="M50.1231 17.7344C50.1231 17.7344 49.7148 24.1034 53.922 27.9285C58.1292 31.7536 61.3836 32.1601 61.3836 32.1601C61.3836 32.1601 63.6913 36.4718 62.0642 41.0792C62.0642 41.0792 67.9419 35.5848 67.0138 24.1835C66.0857 12.7821 60.5174 9.05554 50.0798 9.19105L50.1231 17.7344Z" fill="#DA8966"/>
</g>
<path id="Vector_34" d="M49.6958 28.9822C49.869 29.2532 50.1784 29.2224 50.4753 29.2532C50.7723 29.284 51.1559 29.2901 51.5024 29.3025C52.1727 29.2999 52.8377 29.421 53.4637 29.6597C54.0349 29.9204 54.5746 30.2448 55.0723 30.6268C55.3114 30.8138 55.5614 30.9866 55.821 31.1442C55.9667 31.2353 56.1224 31.3096 56.285 31.3659C56.4458 31.409 56.6005 31.3659 56.749 31.4398C56.8975 31.5137 57.046 31.2858 56.9779 31.1442C56.9099 31.0025 56.9284 30.8054 56.848 30.6452C56.7547 30.47 56.6404 30.3066 56.5077 30.1586C56.2631 29.8781 55.9893 29.6242 55.691 29.401C55.0793 28.9316 54.3907 28.571 53.6555 28.3354C52.8867 28.1122 52.0791 28.0535 51.2858 28.1629C51.0384 28.1629 49.3431 28.434 49.6958 28.9822Z" fill="#5F130F"/>
<g id="Vector_35" style="mix-blend-mode:multiply" opacity="0.44">
<path d="M19.1507 40.2236C17.8414 39.5913 16.8188 38.4919 16.2861 37.1438C16.0819 36.5278 16.1314 35.5916 16.9048 35.4869C17.5606 35.4006 17.8266 36.2507 18.1422 36.7188C18.2969 36.9467 18.7114 36.8112 18.6124 36.5217C18.3463 35.7456 18.0865 34.7662 17.1151 34.6738C16.6471 34.652 16.1894 34.8152 15.8417 35.1279C15.4941 35.4405 15.2846 35.8773 15.259 36.3431C15.1291 37.4641 15.8097 38.5112 16.4469 39.3736C17.0842 40.2359 17.9504 40.9073 19.0888 40.6548C19.1297 40.6381 19.1655 40.611 19.1927 40.5763C19.2199 40.5416 19.2374 40.5004 19.2437 40.4568C19.2499 40.4132 19.2447 40.3688 19.2283 40.3279C19.212 40.287 19.1852 40.251 19.1507 40.2236Z" fill="#DA8966"/>
</g>
<g id="Vector_36" style="mix-blend-mode:multiply" opacity="0.44">
<path d="M66.9511 36.2386C66.8954 35.3948 66.1901 34.6372 65.2929 35.0067C64.6742 35.247 63.7153 36.4111 64.3773 37.0147C64.3945 37.0301 64.4148 37.0415 64.4368 37.0483C64.4588 37.0552 64.4821 37.0572 64.505 37.0542C64.5279 37.0513 64.5499 37.0435 64.5695 37.0314C64.5891 37.0193 64.6058 37.0031 64.6186 36.984C64.9527 36.5466 64.9898 35.8259 65.6332 35.6596C66.5118 35.4379 66.2519 36.8916 66.1282 37.3412C66.0295 37.8645 65.8185 38.3603 65.5095 38.7949C65.1316 39.1923 64.6654 39.496 64.1483 39.6818C64.124 39.6962 64.1033 39.7158 64.0877 39.7394C64.0722 39.7629 64.0622 39.7896 64.0586 39.8176C64.055 39.8455 64.0579 39.8739 64.067 39.9005C64.0762 39.9272 64.0913 39.9514 64.1112 39.9713C64.8104 40.7351 65.8312 39.7126 66.221 39.0967C66.7407 38.2359 66.9946 37.242 66.9511 36.2386Z" fill="#DA8966"/>
</g>
<g id="Group_15">
<path id="Vector_37" d="M30.0891 29.4128C29.6189 28.9139 28.6847 29.0987 28.0783 29.1849C27.388 29.2937 26.717 29.5012 26.0861 29.8008C25.4731 30.0822 24.8974 30.438 24.3723 30.8603C23.9206 31.2175 23.1349 31.8766 23.3514 32.5234C23.3787 32.6124 23.4334 32.6907 23.5078 32.7471C23.5822 32.8034 23.6725 32.8351 23.766 32.8375C24.3166 32.8991 24.8735 32.2216 25.2756 31.9259C25.7324 31.5811 26.2288 31.2916 26.7543 31.0636C27.2639 30.8544 27.7921 30.6935 28.332 30.5831C28.895 30.4599 29.6499 30.5831 30.0891 30.1458C30.1829 30.0503 30.2353 29.922 30.2353 29.7885C30.2353 29.655 30.1829 29.5268 30.0891 29.4313V29.4128Z" fill="#5F130F"/>
<path id="Vector_38" d="M47.1602 46.8451C46.8421 48.0766 46.2618 49.2256 45.4588 50.2144C44.8976 50.8904 44.1922 51.4335 43.3938 51.8043C42.5954 52.175 41.7242 52.3642 40.8433 52.3579C39.8576 52.4058 38.8761 52.1996 37.9939 51.7594C37.1116 51.3191 36.3584 50.6597 35.807 49.8448C35.147 48.895 34.6629 47.8353 34.3778 46.7158C34.3349 46.5617 34.3503 46.3973 34.4211 46.2538C34.4896 46.0957 34.616 45.9696 34.7746 45.9009C34.9332 45.8323 35.1121 45.8263 35.2749 45.8842L35.4977 45.9581C38.9872 47.0791 42.7426 47.0791 46.2322 45.9581C46.3083 45.9344 46.3875 45.9219 46.4673 45.9212C46.6232 45.9209 46.7753 45.9696 46.9019 46.0603C47.0285 46.1509 47.1232 46.279 47.1726 46.4263C47.2114 46.5639 47.2071 46.71 47.1602 46.8451Z" fill="#831532"/>
<path id="Vector_39" d="M47.1475 46.4071C45.2908 47.7478 43.0679 48.4933 40.7748 48.5445C38.4658 48.4584 36.2418 47.655 34.4146 46.247C34.4842 46.0886 34.6121 45.9627 34.772 45.8952C34.9319 45.8276 35.1117 45.8235 35.2746 45.8836L35.4973 45.9575C38.9869 47.0785 42.7422 47.0785 46.2318 45.9575C46.3079 45.9337 46.3872 45.9213 46.4669 45.9205C46.6164 45.924 46.7613 45.9723 46.8828 46.0591C47.0042 46.1459 47.0965 46.2672 47.1475 46.4071Z" fill="white"/>
<path id="Vector_40" d="M45.458 50.214C44.8967 50.89 44.1913 51.4331 43.3929 51.8039C42.5946 52.1747 41.7233 52.3638 40.8424 52.3576C39.8567 52.4054 38.8753 52.1993 37.993 51.759C37.1107 51.3188 36.3575 50.6593 35.8062 49.8445C38.9956 49.0738 42.3374 49.2018 45.458 50.214Z" fill="#FF6551"/>
<path id="Vector_41" d="M31.3599 44.7577C31.6081 43.729 30.2445 42.5208 28.3142 42.059C26.3838 41.5973 24.6177 42.0569 24.3694 43.0856C24.1212 44.1143 25.4848 45.3226 27.4151 45.7843C29.3455 46.246 31.1116 45.7864 31.3599 44.7577Z" fill="#F2786B"/>
<path id="Vector_42" d="M54.4749 45.8531C56.4407 45.5773 57.9142 44.5045 57.7659 43.4569C57.6176 42.4093 55.9038 41.7835 53.9379 42.0593C51.9721 42.3351 50.4986 43.4079 50.6469 44.4555C50.7951 45.5031 52.509 46.1288 54.4749 45.8531Z" fill="#F2786B"/>
<g id="Group_16" style="mix-blend-mode:multiply" opacity="0.21">
<g id="Vector_43" style="mix-blend-mode:multiply" opacity="0.21">
<path d="M40.4894 41.4556C39.8407 41.4742 39.2052 41.6429 38.6333 41.9483C38.5893 41.9699 38.5495 41.9991 38.5157 42.0346C38.4044 42.1824 38.5838 42.3733 38.7508 42.4596C39.8368 42.9333 41.0575 43.0033 42.1908 42.6567C42.4708 42.6149 42.7339 42.4978 42.9518 42.3179C43.0756 42.1947 43.1498 41.973 43.0261 41.8559C42.966 41.8112 42.896 41.7816 42.8219 41.7697C41.7569 41.548 40.6573 41.548 39.5923 41.7697L40.4894 41.4556Z" fill="#DA8966"/>
</g>
</g>
<path id="Vector_44" d="M38.5658 42.1888C38.8566 42.084 39.0979 41.8869 39.4011 41.7945C39.7556 41.6983 40.1229 41.6568 40.49 41.6714C40.8374 41.662 41.185 41.6805 41.5294 41.7268C41.8788 41.7887 42.203 41.949 42.4637 42.1888C42.7545 42.4351 43.2371 42.1272 43.0205 41.7638C42.5441 40.963 41.3624 40.9568 40.5457 40.9692C39.8528 40.9692 38.4916 41.0554 38.2998 41.9239C38.2998 42.0717 38.3988 42.2504 38.5658 42.1888Z" fill="#D88261"/>
<path id="Vector_45" d="M48.3106 39.4238C47.9253 39.0165 47.6364 38.5285 47.4652 37.9956C47.2939 37.4627 47.2445 36.8984 47.3206 36.344C47.4813 35.2301 48.0689 34.2213 48.9602 33.5291C49.831 32.8323 50.9423 32.5048 52.0537 32.6175C52.6087 32.6831 53.1401 32.8794 53.6038 33.19C54.0675 33.5006 54.4502 33.9167 54.7203 34.4038C54.8709 34.7139 54.9911 35.0377 55.0792 35.3708C55.272 35.9943 55.331 36.6511 55.2524 37.2988C55.0277 38.2972 54.4363 39.1759 53.5943 39.7626C52.9805 40.2725 52.2151 40.5669 51.4165 40.6003C50.5702 40.5201 49.7576 40.23 49.053 39.7564C48.5382 39.5419 48.1261 39.1382 47.9022 38.6292L48.3106 39.4238Z" fill="white"/>
<path id="Vector_46" d="M34.1537 39.3178C34.3934 38.8121 34.5178 38.26 34.5178 37.7009C34.5178 37.1418 34.3934 36.5896 34.1537 36.084C33.6624 35.0686 32.7989 34.2795 31.7408 33.8788C30.6889 33.4739 29.5187 33.5005 28.4864 33.9528C27.979 34.1843 27.534 34.5321 27.1877 34.9679C26.8414 35.4036 26.6037 35.9149 26.4942 36.4597C26.4405 36.8019 26.4239 37.1488 26.4447 37.4945C26.4432 38.1599 26.5868 38.8177 26.8654 39.4225C27.3817 40.3086 28.2146 40.9685 29.1979 41.2703C29.9387 41.5712 30.7584 41.621 31.5304 41.412C32.3126 41.0829 32.9981 40.5615 33.5227 39.8968C33.9514 39.5389 34.2223 39.0282 34.2775 38.4739L34.1537 39.3178Z" fill="white"/>
<g id="Group_17">
<path id="Vector_47" d="M54.8133 37.6547C54.7625 37.0076 54.527 36.3884 54.1346 35.8701C53.7422 35.3517 53.2092 34.9558 52.5984 34.7289C50.9093 34.1807 48.7253 35.0184 48.1746 36.6692C48.0716 36.8434 47.9906 37.0296 47.9333 37.2235C47.0486 40.1124 50.6804 41.3258 52.883 40.4819C53.4747 40.2914 53.9857 39.91 54.3353 39.398C54.6849 38.886 54.8531 38.2725 54.8133 37.6547Z" fill="#2D2D2D"/>
<path id="Vector_48" d="M33.3008 36.5336L33.1523 36.3426C32.7318 35.943 32.2141 35.659 31.65 35.5186C31.086 35.3782 30.495 35.3863 29.935 35.5419C29.3419 35.6669 28.7957 35.9547 28.3584 36.3727C27.921 36.7907 27.6099 37.3223 27.4602 37.9072C27.1818 39.1391 27.4169 40.562 28.6048 41.258C30.5847 42.4283 34.3835 41.1594 34.334 38.5601C34.3258 38.1667 34.2287 37.7802 34.0498 37.4294C33.8709 37.0786 33.6149 36.7724 33.3008 36.5336Z" fill="#2D2D2D"/>
</g>
<path id="Vector_49" d="M49.4613 38.4619C49.4083 38.6019 49.3848 38.7512 49.3922 38.9006C49.3997 39.05 49.4379 39.1963 49.5046 39.3304C49.5437 39.5549 49.6642 39.7573 49.8432 39.8993C50.0223 40.0412 50.2474 40.1127 50.476 40.1003C50.7507 40.0883 51.0136 39.9855 51.2231 39.8081C51.4326 39.6308 51.5768 39.389 51.633 39.121C51.8866 37.8459 49.9439 37.2115 49.4613 38.4619Z" fill="white"/>
<path id="Vector_50" d="M32.7986 38.7704C32.8934 38.8874 32.9623 39.0231 33.0007 39.1686C33.039 39.314 33.0461 39.4659 33.0213 39.6143C33.0539 39.8448 32.9991 40.0791 32.8676 40.2716C32.736 40.4641 32.5371 40.6008 32.3098 40.6552C32.0402 40.7249 31.7549 40.702 31.5 40.5902C31.2452 40.4784 31.0356 40.2843 30.9053 40.0393C30.2742 38.9182 31.9324 37.7294 32.7986 38.7704Z" fill="white"/>
</g>
</g>
<g id="Group_18">
<g id="Group_19">
<path id="Vector_51" d="M18.0614 31.0762L15.3515 25.2554C15.3515 25.2554 -0.394584 28.1319 0.00757432 50.5096C1.07301 51.0367 2.17755 51.4815 3.31146 51.8401C3.19915 49.892 3.59562 47.9481 4.46225 46.1979C4.65187 48.2946 4.99932 50.3742 5.50168 52.4191C6.84368 52.7313 8.21375 52.9088 9.59132 52.9488C9.24697 50.7063 9.30353 48.4209 9.75837 46.1979C10.2611 48.4555 10.9311 50.6728 11.763 52.8318C12.993 52.7011 14.1963 52.3876 15.3329 51.9017C15.3329 51.9017 11.9548 38.6401 18.0614 31.0762Z" fill="#672410"/>
<path id="Vector_52" d="M66.3762 22.564L64.0685 30.0663C65.9334 32.9604 66.8869 36.3435 66.8064 39.781C66.7259 43.2185 65.6152 46.5537 63.6168 49.3581C63.3675 49.791 63.1423 50.2372 62.9424 50.6948C62.8249 50.9165 62.7073 51.1321 62.5774 51.3538C63.8218 52.2082 65.1794 52.886 66.6114 53.368C67.5707 51.5536 68.2507 49.606 68.6283 47.5903C68.6283 47.5903 69.0614 51.206 68.2819 53.8546C69.8614 54.2404 71.4938 54.3653 73.1139 54.2242C74.2056 52.352 74.8709 50.264 75.0629 48.1077C75.3054 50.0112 75.3779 51.9323 75.2794 53.8485C76.3829 53.5652 77.4485 53.1516 78.4534 52.6165C78.4534 52.6165 89.3116 27.2945 66.3762 22.564Z" fill="#672410"/>
<path id="Vector_53" d="M3.6086 42.1883H3.57766C3.50066 42.1853 3.42508 42.1667 3.35551 42.1337C3.28593 42.1007 3.22381 42.054 3.1729 41.9964C3.12199 41.9388 3.08336 41.8716 3.05935 41.7987C3.03534 41.7258 3.02644 41.6488 3.0332 41.5724C3.33018 35.9918 7.43219 30.7992 11.4043 28.1691C11.5307 28.0843 11.6857 28.0529 11.8353 28.0818C11.985 28.1106 12.117 28.1974 12.2024 28.3231C12.2879 28.4499 12.3196 28.6052 12.2907 28.7552C12.2617 28.9052 12.1744 29.0377 12.0477 29.1238C8.45306 31.5322 4.45622 36.4784 4.18399 41.6463C4.17607 41.7928 4.11197 41.9307 4.00491 42.0316C3.89784 42.1324 3.75599 42.1885 3.6086 42.1883Z" fill="#772F1E"/>
<path id="Vector_54" d="M7.34513 46.0383C7.19359 46.0383 7.04816 45.9788 6.94043 45.8727C6.8327 45.7666 6.77136 45.6225 6.76973 45.4716C6.67074 38.807 8.47117 33.9409 12.5979 29.7955C12.7054 29.6869 12.8518 29.6252 13.005 29.624C13.1582 29.6229 13.3055 29.6824 13.4146 29.7894C13.5237 29.8964 13.5857 30.0421 13.5869 30.1946C13.588 30.3471 13.5283 30.4938 13.4208 30.6024C9.52916 34.5137 7.85246 39.0965 7.92052 45.4593C7.92134 45.5345 7.90726 45.6092 7.8791 45.679C7.85094 45.7488 7.80923 45.8124 7.75638 45.8662C7.70352 45.92 7.64054 45.9628 7.57104 45.9924C7.50154 46.0219 7.42688 46.0375 7.35131 46.0383H7.34513Z" fill="#772F1E"/>
<path id="Vector_55" d="M12.2276 46.8512C12.0894 46.8498 11.9562 46.7995 11.8519 46.7092C11.7476 46.6189 11.679 46.4945 11.6584 46.3584C10.3468 37.2176 14.2755 32.6226 14.4426 32.4316C14.4906 32.37 14.5507 32.3188 14.6193 32.2812C14.6879 32.2435 14.7635 32.2202 14.8414 32.2127C14.9194 32.2051 14.9981 32.2135 15.0726 32.2372C15.1472 32.261 15.2162 32.2997 15.2752 32.3509C15.3343 32.4022 15.3822 32.4648 15.416 32.5352C15.4499 32.6055 15.469 32.6819 15.4721 32.7598C15.4753 32.8377 15.4624 32.9155 15.4343 32.9882C15.4062 33.061 15.3635 33.1273 15.3088 33.1831C15.2655 33.2385 11.5965 37.6242 12.803 46.1921C12.8243 46.3431 12.7849 46.4964 12.6934 46.6186C12.6019 46.7408 12.4656 46.8222 12.3142 46.8451L12.2276 46.8512Z" fill="#772F1E"/>
<path id="Vector_56" d="M70.2557 45.4464H70.1629C70.0877 45.4352 70.0155 45.4092 69.9506 45.3698C69.8857 45.3303 69.8294 45.2784 69.785 45.217C69.7406 45.1555 69.709 45.0859 69.6921 45.0121C69.6751 44.9383 69.6732 44.8619 69.6865 44.7873C70.0886 42.3235 70.6764 36.2194 67.3911 33.2443C67.3347 33.1935 67.289 33.1321 67.2566 33.0637C67.2242 32.9952 67.2057 32.9211 67.2023 32.8455C67.1988 32.7699 67.2104 32.6943 67.2365 32.6232C67.2625 32.5521 67.3024 32.4869 67.354 32.4312C67.4044 32.3753 67.4655 32.3299 67.5338 32.2977C67.602 32.2655 67.676 32.2472 67.7514 32.2438C67.8269 32.2403 67.9022 32.2519 67.9731 32.2777C68.044 32.3035 68.1091 32.3432 68.1645 32.3943C71.7344 35.6281 71.3632 41.6644 70.8249 44.9721C70.8004 45.1048 70.7301 45.2248 70.6262 45.3114C70.5222 45.398 70.3912 45.4458 70.2557 45.4464Z" fill="#772F1E"/>
<path id="Vector_57" d="M73.9669 47.6022H73.8679C73.793 47.5896 73.7214 47.5623 73.6571 47.5219C73.5929 47.4816 73.5373 47.429 73.4936 47.3671C73.4499 47.3053 73.4189 47.2354 73.4024 47.1616C73.386 47.0878 73.3844 47.0114 73.3977 46.937C74.7217 39.5024 73.3482 33.9033 69.0667 29.3206C69.0129 29.2674 68.9701 29.204 68.9409 29.1343C68.9118 29.0645 68.8967 28.9896 68.8967 28.9141C68.8967 28.8385 68.9118 28.7637 68.9409 28.6939C68.9701 28.6241 69.0129 28.5608 69.0667 28.5075C69.1834 28.413 69.3306 28.3639 69.4809 28.3696C69.6312 28.3753 69.7743 28.4352 69.8834 28.5383C74.4247 33.4106 75.8911 39.3176 74.5052 47.1403C74.4794 47.2657 74.4125 47.379 74.3151 47.4626C74.2178 47.5462 74.0953 47.5953 73.9669 47.6022Z" fill="#772F1E"/>
<path id="Vector_58" d="M78.1435 44.8872H78.0755C77.9265 44.8716 77.7897 44.7982 77.6947 44.6829C77.5998 44.5676 77.5543 44.4197 77.5681 44.2713C78.1868 38.5552 76.5782 28.743 69.4878 26.7534C69.341 26.7118 69.2167 26.6137 69.1425 26.4809C69.0682 26.348 69.05 26.1913 69.0919 26.0451C69.1337 25.8988 69.2322 25.7752 69.3656 25.7012C69.499 25.6273 69.6565 25.6092 69.8034 25.6508C77.5743 27.8313 79.3933 38.3088 78.7127 44.4006C78.6932 44.5366 78.6248 44.661 78.52 44.7505C78.4153 44.84 78.2815 44.8886 78.1435 44.8872Z" fill="#772F1E"/>
</g>
<g id="Group_20">
<path id="Vector_59" d="M16.4774 36.7488C16.2762 36.7497 16.0776 36.7035 15.8976 36.6141C15.7176 36.5246 15.5611 36.3944 15.4408 36.2339C15.3204 36.0734 15.2396 35.887 15.2047 35.6898C15.1698 35.4925 15.1819 35.2899 15.2399 35.0981C14.9681 35.2815 14.6373 35.3573 14.3123 35.3106C13.9872 35.2639 13.6914 35.098 13.4828 34.8455C13.287 34.5844 13.153 34.2825 13.0908 33.9625C13.0287 33.6425 13.04 33.3127 13.124 32.9977C13.3039 32.3684 13.5793 31.7702 13.9407 31.2237C12.9198 31.3223 11.7133 31.3469 11.0761 30.5461C10.4388 29.7454 10.8781 28.3349 11.7628 27.6142C11.1297 27.4527 10.559 27.1075 10.1233 26.6225C9.34987 25.6308 10.0119 23.8199 11.0327 23.247C12.7156 22.317 15.2771 23.5242 16.2732 24.9717C16.6461 25.5603 16.9473 26.1909 17.1703 26.8504C17.8756 28.6983 18.9707 31.1067 18.6243 33.1455C18.4139 34.2481 17.8694 36.6564 16.4774 36.7488Z" fill="#FF6551"/>
<path id="Vector_60" d="M71.7213 23.7523C71.7982 24.0577 71.8139 24.3752 71.7675 24.6866C71.7211 24.998 71.6135 25.2972 71.4509 25.5672C71.2883 25.8372 71.0739 26.0727 70.8198 26.2601C70.5658 26.4476 70.2771 26.5833 69.9703 26.6597C70.3787 27.3126 71.2077 27.676 71.48 28.3905C71.5901 28.7817 71.5708 29.1979 71.4248 29.5773C71.2788 29.9567 71.014 30.2792 70.6695 30.4971C69.9736 30.9215 69.1917 31.1866 68.3803 31.2732C68.6743 32.247 68.8018 33.2631 68.7577 34.2791C68.7345 34.7881 68.5975 35.2857 68.3567 35.7354C68.1159 36.185 67.7773 36.5755 67.3656 36.8784C66.9442 37.1675 66.4333 37.2978 65.9242 37.2459C65.4151 37.194 64.9413 36.9632 64.5876 36.5951C64.2211 36.0718 64.007 35.4579 63.9689 34.8211C63.6407 33.1168 63.5553 31.375 63.7152 29.6471C63.8441 28.8257 64.0323 28.0146 64.2782 27.2202C64.7856 25.3723 65.4723 23.8324 67.2109 22.9393C68.7267 22.1755 71.0531 21.5595 71.7213 23.7523Z" fill="#FF6551"/>
<path id="Vector_61" d="M52.3992 9.85669C52.3992 9.85669 50.4998 -0.134145 39.7776 0.00136614C35.2699 0.0861933 30.8373 1.16684 26.8003 3.16521C22.7632 5.16359 19.2225 8.02979 16.4338 11.5567C11.8245 17.2975 11.0078 30.3989 19.4222 37.2915C19.4222 37.2915 21.1855 29.4134 23.6294 25.8531C23.6294 25.8531 37.8596 32.7087 50.772 21.5414C50.772 21.5599 54.2986 16.084 52.3992 9.85669Z" fill="#672410"/>
<path id="Vector_62" d="M50.1217 15.8438C50.1217 15.8438 49.7134 22.2066 53.9206 26.0317C58.1278 29.8568 61.3822 30.2634 61.3822 30.2634C61.3822 30.2634 63.6899 36.4907 62.0628 41.0796C64.4118 38.7854 66.2159 35.9973 67.3432 32.9195C68.4704 29.8416 68.8922 26.5518 68.5777 23.2907C67.6249 11.8894 60.5346 7.16496 50.1094 7.27583L50.1217 15.8438Z" fill="#672410"/>
</g>
<path id="Vector_63" d="M19.1381 36.6693C19.0157 36.6693 18.8965 36.6305 18.7978 36.5585C14.8504 33.7127 14.009 27.5039 14.9247 22.6193C14.9574 22.4728 15.046 22.3446 15.1718 22.2619C15.2977 22.1792 15.4508 22.1483 15.5991 22.1758C15.6749 22.1856 15.7481 22.2104 15.8142 22.2487C15.8804 22.287 15.9382 22.338 15.9842 22.3988C16.0303 22.4596 16.0638 22.529 16.0826 22.6028C16.1015 22.6766 16.1054 22.7534 16.094 22.8288C15.2711 27.2144 15.9827 33.0906 19.5031 35.6284C19.6275 35.7184 19.7111 35.8539 19.7354 36.0051C19.7598 36.1563 19.723 36.311 19.633 36.4353C19.5766 36.5122 19.5017 36.5739 19.4153 36.6147C19.3289 36.6556 19.2336 36.6744 19.1381 36.6693Z" fill="#772F1E"/>
<path id="Vector_64" d="M18.9024 34.1069C18.7697 34.1054 18.6415 34.0587 18.5391 33.9747C18.4367 33.8907 18.3662 33.7743 18.3394 33.6449C16.9349 26.9248 17.3433 17.014 23.122 11.2548C24.6254 9.75188 26.4939 7.88553 28.9316 7.30653C29.0052 7.28914 29.0814 7.28634 29.156 7.29828C29.2306 7.31023 29.3022 7.33669 29.3665 7.37616C29.4309 7.41562 29.4868 7.46732 29.531 7.5283C29.5753 7.58928 29.6071 7.65834 29.6246 7.73154C29.642 7.80475 29.6449 7.88066 29.6329 7.95495C29.6209 8.02923 29.5943 8.10044 29.5546 8.1645C29.515 8.22856 29.4631 8.28422 29.4018 8.3283C29.3406 8.37238 29.2712 8.40402 29.1977 8.42141C27.0817 8.9265 25.3369 10.6635 23.9387 12.0617C18.4817 17.513 18.1228 26.9679 19.4716 33.4108C19.5029 33.5602 19.4736 33.7159 19.3902 33.8439C19.3068 33.9719 19.1759 34.062 19.0262 34.0945L18.9024 34.1069Z" fill="#772F1E"/>
<path id="Vector_65" d="M21.2966 29.6532H21.1667C21.0202 29.6101 20.8948 29.5145 20.8149 29.3848C20.7349 29.2552 20.7059 29.1006 20.7336 28.951C21.7978 24.5223 24.3592 20.7033 26.4257 18.8863C29.1008 16.4578 32.4579 14.9017 36.0466 14.4267C36.1954 14.4146 36.3431 14.4604 36.4585 14.5547C36.574 14.6489 36.6481 14.7842 36.6653 14.9318C36.6791 15.0803 36.6336 15.2282 36.5387 15.3435C36.4437 15.4588 36.3069 15.5322 36.1579 15.5478C32.8129 15.999 29.6844 17.451 27.1867 19.7116C25.2563 21.4117 22.8558 25.0027 21.8597 29.1912C21.8328 29.3206 21.7624 29.437 21.66 29.5211C21.5575 29.6051 21.4293 29.6517 21.2966 29.6532Z" fill="#772F1E"/>
<path id="Vector_66" d="M25.9188 25.5449C25.8268 25.5457 25.7359 25.5243 25.654 25.4825C25.5721 25.4406 25.5017 25.3796 25.4486 25.3047C25.4043 25.2437 25.3724 25.1745 25.3549 25.1012C25.3374 25.0279 25.3347 24.9519 25.3467 24.8775C25.3588 24.8031 25.3855 24.7318 25.4253 24.6677C25.465 24.6037 25.5171 24.548 25.5786 24.504C28.2962 22.5616 31.3562 21.145 34.5993 20.3278C34.6728 20.3092 34.7493 20.3052 34.8244 20.316C34.8995 20.3268 34.9717 20.3523 35.0369 20.3909C35.1021 20.4295 35.159 20.4805 35.2044 20.541C35.2498 20.6015 35.2828 20.6703 35.3015 20.7435C35.3202 20.8168 35.3242 20.8929 35.3133 20.9677C35.3025 21.0424 35.2769 21.1143 35.2381 21.1792C35.1994 21.2441 35.1481 21.3008 35.0873 21.346C35.0265 21.3912 34.9574 21.4241 34.8839 21.4427C31.7814 22.2206 28.8535 23.5725 26.2529 25.4279C26.1573 25.5021 26.04 25.5432 25.9188 25.5449Z" fill="#772F1E"/>
<path id="Vector_67" d="M31.3752 25.7602C31.2278 25.7604 31.086 25.7043 30.9789 25.6035C30.8719 25.5026 30.8078 25.3647 30.7998 25.2182C30.7948 25.1421 30.8049 25.0658 30.8296 24.9936C30.8542 24.9215 30.893 24.8548 30.9436 24.7976C30.9942 24.7404 31.0556 24.6937 31.1244 24.6601C31.1931 24.6266 31.2679 24.6069 31.3443 24.6022C33.4806 24.5324 35.6068 24.2769 37.6984 23.8384C40.3526 23.2067 42.8289 21.9854 44.9419 20.2659C47.0548 18.5464 48.7495 16.3732 49.8993 13.9092C49.9633 13.7712 50.0797 13.6641 50.223 13.6115C50.3663 13.559 50.5247 13.5652 50.6634 13.6289C50.802 13.6926 50.9096 13.8086 50.9624 13.9512C51.0152 14.0939 51.0089 14.2516 50.9449 14.3896C49.723 17.0149 47.9189 19.3301 45.6684 21.1609C43.4179 22.9917 40.7796 24.2905 37.9521 24.9595C35.7957 25.415 33.6032 25.6809 31.4 25.7541L31.3752 25.7602Z" fill="#772F1E"/>
<path id="Vector_68" d="M62.6581 31.6745C62.5477 31.6752 62.4393 31.6442 62.3461 31.5852C62.2528 31.5262 62.1786 31.4417 62.1322 31.3419C61.3156 29.5679 60.1215 28.7425 58.6118 27.7201C58.1787 27.4244 57.7209 27.1041 57.2568 26.7776C56.0194 25.8783 54.5779 24.4 54.5098 22.4659C54.5065 22.3887 54.5186 22.3116 54.5453 22.2389C54.572 22.1663 54.6128 22.0997 54.6654 22.0428C54.7179 21.9859 54.7812 21.9398 54.8517 21.9073C54.9221 21.8747 54.9983 21.8563 55.0759 21.8531C55.1535 21.8498 55.231 21.8618 55.3039 21.8884C55.3768 21.915 55.4438 21.9556 55.501 22.0079C55.5581 22.0603 55.6044 22.1233 55.6371 22.1934C55.6698 22.2636 55.6883 22.3394 55.6915 22.4167C55.7472 23.9073 56.9289 25.1146 57.9745 25.8599C58.4262 26.1925 58.8655 26.4758 59.2924 26.7776C60.8206 27.8063 62.2622 28.7795 63.215 30.8676C63.2459 30.9363 63.263 31.0105 63.2651 31.0858C63.2673 31.1611 63.2545 31.2361 63.2275 31.3065C63.2004 31.3768 63.1597 31.4412 63.1077 31.4959C63.0557 31.5506 62.9933 31.5946 62.9242 31.6252C62.8414 31.6648 62.7496 31.6818 62.6581 31.6745Z" fill="#772F1E"/>
<path id="Vector_69" d="M64.9721 37.1811H64.8669C64.7168 37.1541 64.5836 37.0688 64.4966 36.9441C64.4096 36.8193 64.3759 36.6653 64.4029 36.5158C65.232 31.8469 64.638 25.5518 60.4989 21.8745C60.3856 21.7719 60.3175 21.629 60.3094 21.4768C60.3013 21.3246 60.3538 21.1753 60.4556 21.0614C60.5556 20.9491 60.6959 20.8804 60.8463 20.87C60.9967 20.8597 61.1452 20.9085 61.2599 21.006C65.7517 24.9912 66.4137 31.7298 65.5289 36.7068C65.5059 36.8379 65.4378 36.957 65.3362 37.0436C65.2345 37.1301 65.1058 37.1787 64.9721 37.1811Z" fill="#772F1E"/>
<g id="Vector_70" style="mix-blend-mode:screen" opacity="0.27">
<path d="M68.5473 23.2909C67.644 12.4254 61.1661 7.62711 51.5205 7.31298C50.1779 4.36254 46.9545 -0.0785184 39.7651 0.00155615C35.2595 0.088196 30.8294 1.16971 26.7946 3.16802C22.7598 5.16632 19.2211 8.03157 16.4338 11.5569C12.4245 16.5462 11.2861 27.1099 16.5946 34.3104C15.0107 29.8447 14.423 24.7815 15.747 20.3282C17.6031 14.1686 22.4538 9.01302 28.2139 6.25969C34.5556 3.22917 42.2152 4.71363 47.5732 9.16085C47.2736 7.6173 46.6972 6.14007 45.8717 4.79987C47.8384 6.49781 49.3914 8.61888 50.413 11.0026L51.1555 8.9391C51.3163 9.55506 51.471 10.1341 51.6257 10.7315C54.0487 10.2517 56.5518 10.3551 58.9264 11.0334L54.4037 12.524C56.3959 11.8711 59.6379 12.9613 61.2713 14.0269C63.3174 15.4678 64.975 17.3888 66.0972 19.6198C67.2523 21.7095 68.0983 23.9542 68.6091 26.2845C68.6491 25.2863 68.6284 24.2866 68.5473 23.2909Z" fill="#772F1E"/>
</g>
</g>
</g>
<g id="Group_21">
<path id="Vector_71" d="M7.15234 66.2775C7.15234 66.2775 11.409 64.1401 10.3201 57.9189C10.3201 57.9189 32.0119 62.1321 40.018 72.6527C40.018 72.6527 52.0456 64.0292 72.0236 60.2473C72.0236 60.2473 71.6957 65.5075 74.9748 67.8112L42.9259 86.0374L7.15234 66.2775Z" fill="#FFEBDD"/>
<g id="Vector_72" style="mix-blend-mode:multiply" opacity="0.41">
<path d="M31.1457 79.5271L60.8993 75.8313L74.9562 67.8239C73.8188 66.9719 72.9877 65.7773 72.5866 64.4176L46.768 71.3225C46.768 71.3225 43.9467 74.0758 40.6243 74.2853C39.7317 74.3859 38.8293 74.22 38.0316 73.8087C37.234 73.3974 36.5772 72.7593 36.1449 71.9754L9.33637 64.1343C8.79588 65.0162 8.04585 65.7524 7.15234 66.2778L31.1457 79.5271Z" fill="#E79E82"/>
</g>
<g id="Group_22" style="mix-blend-mode:multiply" opacity="0.41">
<g id="Vector_73" style="mix-blend-mode:multiply" opacity="0.41">
<path d="M30.4846 68.7111C30.4846 68.7111 19.2798 63.1675 10.4323 60.9932C10.3735 61.4911 10.2657 61.9821 10.1106 62.4591C17.0398 64.0684 23.8477 66.1575 30.4846 68.7111Z" fill="#E79E82"/>
</g>
<g id="Vector_74" style="mix-blend-mode:multiply" opacity="0.41">
<path d="M55.3008 67.5526C55.3008 67.5526 65.9178 64.4728 72.3214 63.4442C72.1974 62.9212 72.1106 62.3901 72.0615 61.855C68.2255 62.9699 60.0215 65.4522 55.3008 67.5526Z" fill="#E79E82"/>
</g>
<g id="Vector_75" style="mix-blend-mode:multiply" opacity="0.41">
<path d="M72.006 60.2482C52.028 64.0609 40.0003 72.6844 40.0003 72.6844C32.0128 62.133 10.321 57.9014 10.321 57.9014C10.3953 58.3325 10.4386 58.7391 10.4695 59.1333C15.1284 59.934 30.1753 63.1986 40.1674 73.2634C40.1674 73.2634 55.5236 63.5312 72.0121 61.0428C71.9874 60.5623 72.006 60.2482 72.006 60.2482Z" fill="#E79E82"/>
</g>
</g>
<path id="Vector_76" d="M4.40576 66.2778L5.64317 64.6701L35.3596 72.7454C35.3596 72.7454 36.8507 75.24 40.8661 75.24C43.5141 75.24 46.6386 72.653 46.6386 72.653L75.9404 64.6455L76.8871 66.2532L44.0586 82.5884L4.40576 66.2778Z" fill="#B695F7"/>
<path id="Vector_77" d="M9.77677 95.7704L4.4126 66.2783L34.9581 74.8771L37.4329 104.197L9.77677 95.7704Z" fill="#864FF1"/>
<path id="Vector_78" d="M46.0203 74.8771L76.8875 66.2783L72.3709 96.6389L46.7689 103.525L46.0203 74.8771Z" fill="#864FF1"/>
<path id="Vector_79" d="M34.9563 74.8765C36.5709 76.0225 38.5045 76.6385 40.4875 76.6385C42.4705 76.6385 44.4041 76.0225 46.0187 74.8765L46.7674 103.525C46.7674 103.525 42.9252 108.637 37.4311 104.196L34.9563 74.8765Z" fill="#864FF1"/>
<path id="Vector_80" d="M34.9563 74.8765C36.5709 76.0225 38.5045 76.6385 40.4875 76.6385C42.4705 76.6385 44.4041 76.0225 46.0187 74.8765L46.7674 103.525C46.7674 103.525 46.1487 105.828 42.2137 105.989C40.8464 106.05 39.2316 105.637 37.4311 104.184L34.9563 74.8765Z" fill="#864FF1"/>
<g id="Vector_81" style="mix-blend-mode:multiply" opacity="0.37">
<path d="M34.9563 74.8765C36.5709 76.0225 38.5045 76.6385 40.4875 76.6385C42.4705 76.6385 44.4041 76.0225 46.0187 74.8765L46.7674 103.525C46.7674 103.525 46.1487 105.828 42.2137 105.989C40.8464 106.05 39.2316 105.637 37.4311 104.184L34.9563 74.8765Z" fill="#8E487A"/>
</g>
<g id="Vector_82" style="mix-blend-mode:multiply" opacity="0.13">
<path d="M9.77672 95.7698L37.4328 104.196L35.5334 81.6582C34.9147 85.8159 33.8134 91.5135 32.3409 93.6571C29.9156 97.1311 23.6295 99.9583 14.1881 93.2197C11.8989 91.5874 9.85716 89.1113 8.05054 86.3087L9.77672 95.7698Z" fill="#8E487A"/>
</g>
<g id="Vector_83" style="mix-blend-mode:multiply" opacity="0.13">
<path d="M68.3803 91.6126C60.7083 96.7313 52.0217 92.9616 46.2739 84.4306L46.7689 103.525L72.3957 96.6389L74.2518 84.1719C72.8164 87.1839 70.9231 89.9311 68.3803 91.6126Z" fill="#8E487A"/>
</g>
<g id="Vector_84" style="mix-blend-mode:multiply" opacity="0.37">
<path d="M35.3789 79.811C35.3789 79.811 40.873 82.7122 46.1506 79.811L46.2248 82.589C46.2248 82.589 42.2651 85.8844 35.6078 82.589L35.3789 79.811Z" fill="#8E487A"/>
</g>
<g id="Vector_85" style="mix-blend-mode:multiply" opacity="0.37">
<path d="M36.9314 98.2705C38.4373 99.0207 40.0981 99.4113 41.782 99.4113C43.466 99.4113 45.1268 99.0207 46.6327 98.2705L46.7131 101.35C45.2897 102.247 43.6398 102.723 41.9553 102.723C40.2708 102.723 38.6209 102.247 37.1974 101.35L36.9314 98.2705Z" fill="#8E487A"/>
</g>
</g>
<path id="Vector_86" d="M76.5047 75.7024C76.5047 75.7024 75.0198 74.1317 73.9928 74.298C72.9657 74.4643 74.0299 76.0227 74.9889 76.8234C74.9889 76.8234 71.1962 75.8379 71.0416 76.6571C70.8869 77.4763 74.2465 78.6898 74.2465 78.6898C74.2465 78.6898 70.6518 78.2832 70.9116 79.2441C71.1715 80.205 74.197 80.5992 74.197 80.5992C74.197 80.5992 70.825 80.4514 70.8436 81.2152C70.8621 81.979 73.7453 82.6504 75.3725 81.8311C75.9907 81.5133 76.5107 81.0343 76.8768 80.4452C77.2429 79.8561 77.4415 79.1791 77.4514 78.4865C77.5046 77.9819 77.4476 77.4718 77.2842 76.9913C77.1208 76.5107 76.8549 76.071 76.5047 75.7024Z" fill="#FFBF94"/>
<path id="Vector_87" d="M5.31631 75.7024C5.31631 75.7024 6.8012 74.1317 7.82825 74.298C8.8553 74.4643 7.79113 76.0227 6.83213 76.8234C6.83213 76.8234 10.6248 75.8379 10.7795 76.6571C10.9341 77.4763 7.57458 78.6898 7.57458 78.6898C7.57458 78.6898 11.1693 78.2832 10.9094 79.2441C10.6495 80.205 7.62408 80.5992 7.62408 80.5992C7.62408 80.5992 10.996 80.4514 10.9775 81.2152C10.9589 81.979 8.07573 82.6504 6.44854 81.8311C5.83029 81.5133 5.31035 81.0343 4.94422 80.4452C4.57809 79.8561 4.37951 79.1791 4.36969 78.4865C4.31643 77.9819 4.37346 77.4718 4.53685 76.9913C4.70025 76.5107 4.96615 76.071 5.31631 75.7024Z" fill="#FFBF94"/>
</g>
</svg>
