<svg width="16" height="16" viewBox="0 0 16 16" fill="none" xmlns="http://www.w3.org/2000/svg">
<rect width="16" height="16" fill="#E5E5E5"/>
<g id="&#208;&#179;&#208;&#187;&#208;&#176;&#208;&#178;&#208;&#189;&#208;&#176;&#209;&#143; 1920px" clip-path="url(#clip0_318_433)">
<rect width="1920" height="10310" transform="translate(-403 -9660)" fill="white"/>
<g id="content">
<g id="&#208;&#186;&#208;&#190;&#208;&#189;&#209;&#130;&#208;&#176;&#208;&#186;&#209;&#130;&#209;&#139;">
<g id="&#208;&#186;&#208;&#176;&#209;&#128;&#209;&#130;&#208;&#184;&#208;&#189;&#208;&#186;&#208;&#176;2">
<path id="Vector" d="M7.8962 12.9712C12.2913 19.9519 17.7553 26.2544 22.7997 32.7564C27.8441 39.2583 32.9384 45.8202 37.7831 52.5515C38.4223 53.4391 39.8608 52.5016 39.2115 51.6241C34.2703 44.9027 29.2259 38.2544 24.0783 31.6793C19.0039 25.2172 14.0893 18.4859 8.28577 12.6521C8.09598 12.4626 7.79631 12.7318 7.92617 12.9512" fill="#999999"/>
<path id="Vector_2" d="M11.8726 11.8343C14.0002 15.1949 16.5874 18.2764 18.9447 21.4875C21.3021 24.6986 23.7095 28.1391 26.0768 31.4599C28.4442 34.7807 30.8615 38.0815 33.4587 41.2427C34.7173 42.7785 36.0058 44.2943 37.3343 45.7603C38.5969 47.2834 40.0091 48.6765 41.5497 49.9187C42.2789 50.4473 43.5475 49.6395 42.8782 48.8018C41.6695 47.3159 40.1912 46.0195 38.8826 44.5935C37.5741 43.1674 36.1956 41.4522 34.8871 39.8267C32.3399 36.5558 29.8926 33.1751 27.4953 29.8543C25.0979 26.5335 22.6506 23.103 20.0735 19.882C17.7061 16.8903 15.2289 13.8387 12.0824 11.6448C11.9225 11.5251 11.7427 11.7744 11.8326 11.924" fill="#999999"/>
<path id="Vector_3" d="M7.02937 2.09153C7.94835 -2.89465 8.64758 -7.96061 9.65646 -12.9568C10.1626 -15.4764 10.6786 -17.9994 11.2047 -20.5258L11.9539 -24.076C12.2739 -25.2661 12.4714 -26.4857 12.5433 -27.7159C12.5292 -27.8724 12.4654 -28.0203 12.3612 -28.1381C12.257 -28.2559 12.1179 -28.3375 11.9641 -28.3709C11.8102 -28.4042 11.6498 -28.3877 11.506 -28.3237C11.3623 -28.2597 11.2427 -28.1516 11.1648 -28.015C10.7598 -26.9277 10.4685 -25.8015 10.2958 -24.6543C10.0261 -23.4078 9.75635 -22.1613 9.49663 -20.9147C8.94724 -18.3219 8.40784 -15.7291 7.8984 -13.1363C6.77509 -8.1619 5.98753 -3.11782 5.54102 1.96189C5.54102 2.80954 6.87954 2.95913 7.02937 2.09153Z" fill="#999999"/>
<path id="Vector_4" d="M9.48585 2.92932C10.3649 2.48056 10.4248 1.07447 10.6346 0.226818C10.9842 -1.08953 11.2938 -2.40589 11.5735 -3.76213C12.1429 -6.48458 12.6723 -9.21701 13.1917 -11.9594C14.1906 -17.3445 15.0597 -22.7695 15.9686 -28.1845C16.1085 -29.0122 14.8599 -29.3113 14.6901 -28.4736C13.5813 -23.1085 12.6024 -17.7035 11.6934 -12.3084C11.2139 -9.55608 10.6945 -6.82365 10.1851 -4.08125C9.93535 -2.81476 9.7056 -1.5383 9.47585 -0.251867C9.31603 0.645645 8.7067 2.05174 9.31602 2.8595C9.32627 2.8768 9.3399 2.89186 9.3561 2.90379C9.37229 2.91571 9.39073 2.92424 9.41031 2.92889C9.42989 2.93355 9.4502 2.93423 9.47004 2.93087C9.48989 2.92752 9.50885 2.92022 9.5258 2.90939" fill="#999999"/>
<path id="Vector_5" d="M3.32276 14.0585C0.645728 12.8518 -0.572921 9.39138 0.326082 6.59912C0.837824 5.21795 1.68541 3.98541 2.7926 3.01235C3.89979 2.03929 5.23187 1.35623 6.66905 1.02457C7.39755 0.825341 8.15153 0.734622 8.90658 0.75533C10.0017 0.831603 11.0597 1.18342 11.982 1.77804C12.9042 2.37265 13.6606 3.19071 14.1807 4.15591C14.7298 5.24169 15.0275 6.43677 15.0517 7.65284C15.076 8.86891 14.8262 10.0749 14.3208 11.1816C13.8154 12.2883 13.0674 13.2675 12.132 14.0468C11.1966 14.8261 10.0977 15.3856 8.91656 15.684C7.60177 15.9519 6.23584 15.7993 5.01287 15.2479C3.7899 14.6965 2.77211 13.7744 2.10412 12.6125L3.32276 14.0585Z" fill="#C6C6C6"/>
<path id="Vector_6" d="M10.7648 7.70623C10.6195 7.33176 10.3927 6.99415 10.1008 6.71782C9.80887 6.44149 9.45917 6.23332 9.07689 6.10833C8.69461 5.98335 8.2893 5.94468 7.89022 5.99509C7.49114 6.0455 7.10826 6.18375 6.76921 6.39985C6.45966 6.6095 6.20659 6.89203 6.03237 7.22249C5.85816 7.55296 5.76816 7.92117 5.77032 8.2946C5.0611 9.99987 7.05889 11.5456 8.65712 11.3761C9.06333 11.3179 9.45141 11.1698 9.79303 10.9428C10.1347 10.7158 10.4212 10.4155 10.6318 10.0639C10.8424 9.71224 10.9716 9.31809 11.0102 8.9102C11.0488 8.50231 10.9956 8.091 10.8547 7.70623H10.7648ZM7.858 8.70347C7.85328 8.68718 7.85328 8.66987 7.858 8.65359V8.70347Z" fill="#AAAAAA"/>
</g>
</g>
</g>
</g>
<defs>
<clipPath id="clip0_318_433">
<rect width="1920" height="10310" fill="white" transform="translate(-403 -9660)"/>
</clipPath>
</defs>
</svg>
