<svg width="16" height="17" viewBox="0 0 16 17" fill="none" xmlns="http://www.w3.org/2000/svg">
<path id="Vector" d="M14.7967 16.2727L13.9736 15.8788L12.2986 17C10.1395 16.5397 8.09343 15.6147 6.28806 14.2828C5.72111 13.6888 5.29485 12.9621 5.04385 12.1616C4.27817 10 4.17293 7.64646 3.64653 5.41414C3.12013 3.18182 1.99076 0.909091 0 0L3.42636 0.363637C4.38345 0.464647 5.40758 0.575759 6.39339 0.727274C7.82569 0.924964 9.23006 1.30483 10.5759 1.85859C11.7256 2.29496 12.7742 2.98448 13.6521 3.88137C14.53 4.77826 15.2171 5.86199 15.6676 7.0606C16.5003 9.71717 15.6006 13.6162 14.8062 16.2828" fill="#FFC652"/>
</svg>
