<svg width="18" height="27" viewBox="0 0 18 27" fill="none" xmlns="http://www.w3.org/2000/svg">
<path id="Vector" d="M17.4194 26.709C17.0569 26.9096 16.6458 27.0099 16.2298 26.9992C15.8138 26.9886 15.4085 26.8674 15.0571 26.6485C11.9759 25.2571 9.70598 22.5449 7.99074 19.5906C7.74424 19.1672 7.508 18.7336 7.28204 18.3001C5.81714 15.3905 4.51425 12.405 3.37911 9.35672C2.24931 6.47307 1.1298 3.59951 0 0.725953L0.801099 0.362977L1.62276 0C4.60132 4.03307 7.87777 7.28977 10.959 11.2018C14.0403 15.1139 16.7313 19.4596 17.8303 24.3093C17.9921 24.7113 18.0394 25.1489 17.967 25.5752C17.8946 26.0015 17.7053 26.4005 17.4194 26.7292" fill="#C6C6C6"/>
</svg>
