<svg width="17" height="27" viewBox="0 0 17 27" fill="none" xmlns="http://www.w3.org/2000/svg">
<path id="Vector" d="M16.4261 26.709C16.0678 26.9096 15.6614 27.0099 15.2503 26.9992C14.8391 26.9886 14.4385 26.8674 14.0912 26.6485C11.0455 25.2571 8.8019 22.5449 7.10649 19.5906C7.58588 18.8356 7.81655 17.9511 7.76641 17.0599C7.73464 14.3618 7.00765 11.7168 5.65475 9.37688C4.15223 6.74531 2.35532 4.26498 0.791896 1.66365L0 0.362977L0.812158 0C3.75628 4.03307 6.99483 7.28977 10.0405 11.2018C13.0861 15.1139 15.746 19.4596 16.8323 24.3093C16.9922 24.7113 17.0389 25.1489 16.9674 25.5752C16.8959 26.0015 16.7087 26.4005 16.4261 26.7292" fill="#B7B7B7"/>
</svg>
