<svg width="5" height="5" viewBox="0 0 5 5" fill="none" xmlns="http://www.w3.org/2000/svg">
<path id="Vector" d="M1.79918 4.60844C2.1658 4.88285 2.60483 5.01955 3.04945 4.99774C3.49407 4.97593 3.91996 4.79679 4.26236 4.48759C4.60476 4.1784 4.84492 3.75605 4.9463 3.2848C5.04768 2.81356 5.00475 2.3192 4.82402 1.87693C4.63798 1.45244 4.36073 1.08288 4.01567 0.799455C3.69916 0.499727 3.32813 0.275806 2.92679 0.142276C2.52545 0.00874536 2.10274 -0.0314103 1.68619 0.0244197C1.27089 0.0914786 0.885212 0.297826 0.582929 0.614667C0.280646 0.931507 0.0768828 1.34303 0 1.79186C0.00793638 2.34066 0.151775 2.87698 0.4164 3.34437C0.681026 3.81176 1.05663 4.19294 1.50369 4.44776C1.74111 4.66526 2.02149 4.82019 2.32301 4.90052C2.62454 4.98085 2.93908 4.9844 3.24208 4.91088L1.79918 4.60844Z" fill="#B7B7B7"/>
</svg>
