<svg width="14" height="15" viewBox="0 0 14 15" fill="none" xmlns="http://www.w3.org/2000/svg">
<path id="Vector" d="M9.95348 2.03108C7.17277 0.158878 3.00171 0.671269 1.51205 3.92299C1.43353 4.11919 1.43353 4.33772 1.51205 4.53392C0.853956 5.47979 0.433897 6.56835 0.287027 7.70844C0.140157 8.84852 0.270747 10.0069 0.667899 11.0866C1.22798 12.3489 2.18142 13.3996 3.38807 14.0842C4.59472 14.7689 5.99091 15.0514 7.37139 14.8902C8.77107 14.6769 10.0717 14.0445 11.0993 13.0778C12.1269 12.111 12.8324 10.856 13.1215 9.48048C13.3751 8.07188 13.215 6.62061 12.6604 5.29977C12.1057 3.97893 11.1798 2.84427 9.99321 2.03108H9.95348ZM10.1322 11.7567C9.67744 12.2338 9.12936 12.6138 8.52146 12.8736C7.91356 13.1333 7.25863 13.2673 6.59676 13.2673C5.9349 13.2673 5.28 13.1333 4.6721 12.8736C4.0642 12.6138 3.51609 12.2338 3.0613 11.7567C0.767213 9.33267 2.11784 5.93314 4.05441 3.77518C4.13488 3.68844 4.19525 3.58528 4.23128 3.47293C4.26731 3.36059 4.27814 3.24176 4.26298 3.12483C6.03072 1.97195 8.67236 2.59273 10.162 4.29742C11.0827 5.32003 11.5875 6.64567 11.5783 8.01685C11.5691 9.38803 11.0467 10.7069 10.1124 11.7173" fill="#49B3F7"/>
</svg>
