<svg width="10" height="10" viewBox="0 0 10 10" fill="none" xmlns="http://www.w3.org/2000/svg">
<path id="Vector" d="M8.33917 3.04694C7.86798 2.43708 7.23609 1.97004 6.51414 1.69806C5.79219 1.42608 5.00865 1.35989 4.25116 1.50687C4.19644 1.34733 4.09522 1.20773 3.96048 1.10597C3.82573 1.00421 3.66362 0.944929 3.49489 0.93573C0.234703 0.721549 -0.347839 4.86237 0.715043 7.13676C0.97044 7.72898 1.34772 8.26099 1.82244 8.69829C2.29716 9.1356 2.85873 9.46844 3.47066 9.6752C4.08258 9.88197 4.73124 9.95805 5.37453 9.89851C6.01782 9.83896 6.64138 9.64511 7.20476 9.32956C7.71638 9.01156 8.15552 8.59008 8.49387 8.09229C8.83221 7.5945 9.06225 7.03147 9.16914 6.4395C9.27603 5.84753 9.25739 5.23978 9.11443 4.65544C8.97148 4.0711 8.70738 3.52316 8.33917 3.04694ZM6.64264 7.66712C6.32388 7.91155 5.95665 8.08542 5.56531 8.17718C5.17397 8.26894 4.76753 8.27649 4.37305 8.1993C3.97857 8.12211 3.60507 7.96196 3.27744 7.72951C2.9498 7.49706 2.67554 7.19765 2.47289 6.85119C1.99861 6.00092 1.80546 5.02291 1.921 4.05664C2.06925 4.17488 2.25665 4.23318 2.44597 4.21995C2.63529 4.20673 2.8127 4.12296 2.943 3.98526C3.18357 3.71984 3.47513 3.50536 3.80035 3.35454C4.12558 3.20372 4.47783 3.11963 4.83624 3.10726C5.19464 3.0949 5.55189 3.1545 5.88678 3.28255C6.22166 3.41059 6.52737 3.60447 6.78574 3.85266C7.03616 4.10928 7.23099 4.41457 7.35812 4.74955C7.48524 5.08452 7.54192 5.44202 7.52467 5.7998C7.50741 6.15758 7.41659 6.50799 7.25781 6.82923C7.09904 7.15048 6.87574 7.43569 6.60178 7.66712" fill="#49B3F7"/>
</svg>
