<svg width="11" height="11" viewBox="0 0 11 11" fill="none" xmlns="http://www.w3.org/2000/svg">
<path id="Vector" d="M8.15909 2.10154C7.68855 1.64357 7.11187 1.30427 6.4784 1.1127C5.84494 0.921126 5.17359 0.882976 4.52181 1.00153C3.63494 1.25131 2.83474 1.73456 2.20807 2.39884C2.11722 2.34178 2.01551 2.30337 1.90911 2.28594C1.8027 2.26851 1.69381 2.27243 1.58899 2.29743C1.48417 2.32244 1.3856 2.36804 1.29924 2.43145C1.21289 2.49487 1.14053 2.5748 1.08655 2.66641C0.357487 3.8095 0.087161 5.17741 0.327978 6.50489C0.568795 7.83238 1.30361 9.02487 2.38993 9.85114C3.39117 10.6365 4.66213 11.0139 5.93937 10.9051C7.21661 10.7962 8.40219 10.2095 9.2503 9.26645C11.0487 7.0367 10.2606 3.8556 8.15909 2.10154ZM7.92673 8.26554C7.32239 8.89292 6.49029 9.2614 5.61083 9.29108C4.73137 9.32076 3.87543 9.00926 3.22855 8.42411C2.69939 7.9833 2.30503 7.40735 2.08924 6.76013C1.87344 6.11291 1.84462 5.41972 2.00599 4.75742C2.10401 4.74767 2.19911 4.719 2.2858 4.67309C2.3725 4.62717 2.44909 4.56489 2.51117 4.48984C3.73371 3.09254 5.20883 1.78441 6.98707 3.261C8.42179 4.4502 9.2301 6.67995 7.92673 8.26554Z" fill="#49B3F7"/>
</svg>
