<svg width="194" height="52" viewBox="0 0 194 52" fill="none" xmlns="http://www.w3.org/2000/svg">
<path id="Vector" d="M192.579 51.8876H192.42C184.422 50.6993 176.707 48.0623 169.652 44.1055C169.388 43.9658 169.191 43.7271 169.104 43.4419C169.017 43.1568 169.046 42.8485 169.185 42.5849C169.325 42.3213 169.563 42.124 169.848 42.0364C170.132 41.9488 170.44 41.978 170.703 42.1177C177.53 45.9505 184.997 48.5035 192.738 49.6514C193.009 49.7019 193.251 49.8505 193.42 50.0689C193.588 50.2873 193.671 50.5603 193.651 50.8356C193.631 51.1109 193.511 51.3694 193.313 51.5616C193.116 51.7538 192.854 51.8663 192.579 51.8777V51.8876ZM1.91716 42.6942H1.78818C1.64194 42.6794 1.50009 42.6356 1.37085 42.5654C1.24161 42.4953 1.12756 42.4001 1.03528 42.2855C0.943008 42.1709 0.874352 42.039 0.833293 41.8976C0.792234 41.7563 0.779585 41.6081 0.796083 41.4618C0.990445 39.8331 1.32233 38.2239 1.78818 36.6514C1.86975 36.3667 2.06086 36.1261 2.31947 35.9826C2.57809 35.8391 2.88303 35.8044 3.1672 35.8861C3.45137 35.9678 3.69151 36.1593 3.83477 36.4183C3.97803 36.6774 4.01269 36.9829 3.93112 37.2676C3.51703 38.722 3.22174 40.2078 3.04815 41.7102C3.01607 41.986 2.88227 42.2398 2.67303 42.4219C2.46379 42.6039 2.19421 42.701 1.91716 42.6942ZM159.919 38.1919C159.713 38.1933 159.511 38.1383 159.334 38.0329C155.306 35.5581 150.742 32.7653 145.672 30.2209L139.908 27.3287L138.539 26.633C138.276 26.4989 138.076 26.2659 137.983 25.9849C137.89 25.7038 137.912 25.3974 138.043 25.1322C138.107 24.9997 138.198 24.8814 138.308 24.7843C138.419 24.6873 138.548 24.6134 138.688 24.5671C138.827 24.5207 138.975 24.5029 139.121 24.5146C139.268 24.5263 139.411 24.5674 139.541 24.6353L140.91 25.3211L146.665 28.2133C151.823 30.7974 156.437 33.62 160.504 36.1147C160.714 36.2406 160.876 36.432 160.965 36.6594C161.055 36.8867 161.068 37.1374 161.001 37.3726C160.935 37.6079 160.792 37.8146 160.597 37.9609C160.401 38.1072 160.163 38.1848 159.919 38.182V38.1919ZM8.1277 27.4579C7.89146 27.4587 7.66147 27.3819 7.47291 27.2393C7.23475 27.0643 7.07511 26.8023 7.02867 26.5102C6.98222 26.218 7.05274 25.9193 7.22489 25.6789C10.2811 21.5622 13.9913 17.9763 18.2074 15.0642C20.6595 13.3475 23.2067 11.7713 25.8367 10.3432C25.967 10.2727 26.1098 10.2287 26.2571 10.2135C26.4044 10.1983 26.5532 10.2124 26.6951 10.2548C26.837 10.2973 26.9691 10.3673 27.084 10.4609C27.1988 10.5545 27.2942 10.6699 27.3645 10.8004C27.4349 10.9309 27.4789 11.074 27.494 11.2216C27.5092 11.3692 27.4951 11.5183 27.4528 11.6604C27.4104 11.8025 27.3405 11.9349 27.247 12.05C27.1536 12.165 27.0384 12.2605 26.9081 12.331C24.3336 13.7176 21.8364 15.2439 19.4277 16.9029C15.4158 19.6715 11.8863 23.0831 8.98091 27.0007C8.88128 27.1378 8.75173 27.2502 8.60215 27.3294C8.45257 27.4086 8.28691 27.4526 8.11779 27.4579H8.1277ZM128.39 21.4946C128.221 21.4928 128.055 21.452 127.904 21.3753C119.471 17.2408 112.616 14.0902 106.326 11.4365C106.191 11.3804 106.068 11.2982 105.965 11.1946C105.862 11.0911 105.78 10.9682 105.725 10.833C105.669 10.6978 105.64 10.5529 105.64 10.4066C105.641 10.2604 105.67 10.1155 105.726 9.98045C105.782 9.84536 105.864 9.72265 105.967 9.61932C106.07 9.516 106.193 9.43408 106.328 9.37824C106.463 9.32241 106.608 9.29375 106.754 9.2939C106.9 9.29406 107.044 9.32302 107.179 9.37915C113.519 12.003 120.414 15.1636 128.886 19.318C129.111 19.4311 129.292 19.6169 129.399 19.8454C129.505 20.0738 129.532 20.3317 129.475 20.5774C129.418 20.8231 129.28 21.0422 129.083 21.1996C128.886 21.357 128.642 21.4434 128.39 21.4449V21.4946ZM37.2161 7.58022C36.9504 7.58722 36.691 7.49859 36.4849 7.33039C36.2789 7.1622 36.1399 6.92558 36.093 6.66348C36.0462 6.40137 36.0948 6.13115 36.2298 5.90182C36.3649 5.67249 36.5775 5.49926 36.8291 5.41355C44.3998 2.65229 52.3227 0.979195 60.3618 0.444115C60.656 0.427733 60.9448 0.528042 61.1657 0.72334C61.3866 0.918639 61.522 1.19322 61.5424 1.4877C61.5645 1.77571 61.473 2.06092 61.2875 2.28206C61.102 2.50321 60.8373 2.64264 60.5503 2.67042C52.7212 3.18411 45.0048 4.81049 37.6328 7.5007C37.4933 7.53512 37.349 7.5452 37.2062 7.53052L37.2161 7.58022ZM95.621 7.32181C95.5028 7.32055 95.3856 7.30042 95.2738 7.26217C87.8243 4.77511 80.0906 3.24229 72.257 2.70023C71.9613 2.67982 71.6856 2.54288 71.4904 2.31936C71.2952 2.09584 71.1963 1.80396 71.2153 1.50757C71.243 1.21819 71.3836 0.951446 71.6066 0.765336C71.8295 0.579225 72.1167 0.488789 72.4059 0.513687C80.4289 1.05891 88.3501 2.62528 95.9782 5.17501C96.2595 5.27014 96.4917 5.47323 96.6238 5.73969C96.7558 6.00615 96.777 6.31421 96.6825 6.59627C96.5939 6.80481 96.4438 6.98126 96.2523 7.10203C96.0608 7.22281 95.8371 7.28215 95.6111 7.27211L95.621 7.32181Z" fill="#49B3F7"/>
</svg>
