<svg width="116" height="46" viewBox="0 0 116 46" fill="none" xmlns="http://www.w3.org/2000/svg">
<g id="Group">
<path id="Vector" d="M103.208 38.1116C102.978 38.1144 102.753 38.045 102.564 37.9131C102.376 37.7811 102.233 37.5934 102.156 37.3762C102.106 37.2385 102.083 37.0922 102.089 36.9456C102.095 36.7991 102.13 36.6551 102.192 36.5221C102.253 36.3891 102.341 36.2697 102.449 36.1706C102.557 36.0716 102.683 35.9949 102.821 35.945C106.522 34.6132 110.182 33.0926 113.734 31.413C113.995 31.3014 114.288 31.2936 114.554 31.3913C114.82 31.4889 115.038 31.6847 115.165 31.9386C115.292 32.1924 115.317 32.4851 115.235 32.7569C115.154 33.0287 114.972 33.259 114.726 33.4007C111.125 35.1102 107.395 36.6606 103.634 38.0221C103.498 38.0758 103.354 38.106 103.208 38.1116Z" fill="#49B3F7"/>
<path id="Vector_2" d="M58.9707 45.4161C51.3521 45.3472 43.7738 44.3017 36.4202 42.3053C36.2795 42.2655 36.148 42.1983 36.0332 42.1076C35.9184 42.0169 35.8226 41.9044 35.7512 41.7766C35.6798 41.6487 35.6342 41.5081 35.6171 41.3626C35.6 41.2172 35.6116 41.0698 35.6513 40.9288C35.6911 40.7878 35.7581 40.6561 35.8487 40.5411C35.9393 40.4261 36.0515 40.3301 36.1791 40.2586C36.3067 40.1871 36.4471 40.1414 36.5923 40.1243C36.7375 40.1071 36.8847 40.1187 37.0254 40.1585C44.2003 42.0869 51.5918 43.0889 59.0203 43.1401C59.2981 43.1664 59.5562 43.2955 59.744 43.5023C59.9319 43.7091 60.036 43.9786 60.036 44.2582C60.036 44.5378 59.9319 44.8073 59.744 45.0141C59.5562 45.2209 59.2981 45.35 59.0203 45.3763L58.9707 45.4161ZM70.2806 45.108C70.0005 45.0935 69.7361 44.9744 69.5394 44.7741C69.3427 44.5739 69.228 44.307 69.2181 44.0263C69.2081 43.7455 69.3035 43.4712 69.4855 43.2575C69.6675 43.0438 69.9229 42.9062 70.2012 42.8718C74.3482 42.5637 78.4853 42.0568 82.4933 41.3512C85.7474 40.7847 89.0214 40.079 92.206 39.2442C92.4839 39.1939 92.7705 39.2506 93.0085 39.4028C93.2465 39.555 93.4184 39.7916 93.4898 40.0653C93.5613 40.339 93.527 40.6296 93.3938 40.879C93.2606 41.1285 93.0384 41.3184 92.7715 41.4108C89.5174 42.2556 86.1939 42.9811 82.8505 43.5575C78.689 44.2821 74.4937 44.7962 70.2806 45.098V45.108ZM26.2611 38.2504C26.0809 38.2523 25.9033 38.2078 25.7452 38.1211C23.6624 37.0444 21.6715 35.7979 19.7926 34.3942C15.4965 31.225 11.6107 27.5326 8.22473 23.4021C8.10648 23.2949 8.01266 23.1633 7.94967 23.0165C7.88668 22.8697 7.85598 22.711 7.85967 22.5512C7.86336 22.3915 7.90135 22.2344 7.97106 22.0906C8.04076 21.9469 8.14055 21.8198 8.26363 21.7182C8.38672 21.6165 8.53021 21.5426 8.68436 21.5014C8.8385 21.4602 8.99969 21.4528 9.15696 21.4797C9.31423 21.5065 9.46389 21.5669 9.59577 21.6568C9.72764 21.7467 9.83865 21.8641 9.92123 22.0008C13.1927 25.9849 16.9451 29.5469 21.0923 32.6053C22.8716 33.9331 24.7563 35.113 26.7274 36.1334C26.9487 36.2501 27.1247 36.4374 27.2274 36.6658C27.3302 36.8941 27.3538 37.1503 27.2945 37.3936C27.2352 37.637 27.0964 37.8535 26.9001 38.0087C26.7039 38.1639 26.4615 38.249 26.2115 38.2504H26.2611Z" fill="#49B3F7"/>
<path id="Vector_3" d="M3.21552 14.1883C3.00129 14.1785 2.79426 14.1078 2.61856 13.9847C2.44287 13.8615 2.30576 13.6908 2.22321 13.4926C0.598238 9.66014 -0.124942 5.50474 0.109583 1.34767C0.109583 1.1939 0.141114 1.04177 0.202222 0.900697C0.26333 0.759627 0.352713 0.632634 0.464833 0.527577C0.576952 0.42252 0.709418 0.341625 0.854022 0.289941C0.998627 0.238257 1.15229 0.216868 1.30549 0.227097C1.45868 0.237326 1.60815 0.278967 1.74462 0.349418C1.8811 0.41987 2.00167 0.517641 2.09888 0.636674C2.19608 0.755707 2.26784 0.893452 2.30971 1.0414C2.35158 1.18935 2.36267 1.34433 2.34229 1.49674C2.13392 5.31424 2.81329 9.12806 4.32692 12.6379C4.38368 12.7735 4.41304 12.9191 4.4133 13.0662C4.41356 13.2133 4.38471 13.3589 4.32843 13.4948C4.27214 13.6306 4.18954 13.754 4.08538 13.8576C3.98122 13.9613 3.85758 14.0433 3.7216 14.0988C3.56277 14.1697 3.38898 14.2004 3.21552 14.1883Z" fill="#49B3F7"/>
</g>
</svg>
