<svg width="28" height="92" viewBox="0 0 28 92" fill="none" xmlns="http://www.w3.org/2000/svg">
<path id="Vector" d="M1.64594 91.9656C1.55723 91.9801 1.46678 91.9801 1.37808 91.9656C1.23587 91.9307 1.10194 91.868 0.984 91.7811C0.86606 91.6942 0.766431 91.5848 0.690832 91.4592C0.615234 91.3336 0.565163 91.1943 0.543492 91.0492C0.52182 90.9042 0.528972 90.7562 0.564549 90.614C2.46938 82.9809 7.22154 76.2324 11.815 69.7424L12.0233 69.4442C12.1023 69.3109 12.208 69.1955 12.3336 69.1051C12.4593 69.0148 12.6023 68.9515 12.7536 68.9192C12.9049 68.8869 13.0613 68.8863 13.2128 68.9175C13.3643 68.9487 13.5078 69.0109 13.6341 69.1004C13.7605 69.1898 13.867 69.3045 13.9469 69.4371C14.0269 69.5698 14.0786 69.7176 14.0988 69.8713C14.1189 70.0249 14.1071 70.1811 14.0641 70.33C14.0211 70.4788 13.9478 70.6171 13.8488 70.7362L13.6404 71.0344C9.15615 77.3953 4.53296 83.9549 2.72734 91.2004C2.65153 91.4264 2.50588 91.6224 2.31146 91.76C2.11704 91.8976 1.88394 91.9696 1.64594 91.9656ZM19.5037 61.1552C19.3118 61.1553 19.1234 61.1039 18.9581 61.0061C18.7015 60.86 18.5127 60.6183 18.4328 60.3336C18.353 60.0489 18.3884 59.7441 18.5315 59.4855C18.9283 58.7798 19.3152 58.0741 19.6724 57.3585C22.49 51.8127 24.1666 45.2133 24.7916 37.1827C24.8218 36.8924 24.9645 36.6257 25.189 36.4398C25.4135 36.2539 25.7019 36.1638 25.9921 36.1888C26.2798 36.2237 26.5431 36.368 26.7277 36.5918C26.9123 36.8155 27.0041 37.1018 26.9842 37.3914C26.3294 45.7102 24.5833 52.5879 21.6268 58.4021C21.2498 59.1475 20.853 59.883 20.4363 60.6185C20.3375 60.7859 20.1967 60.9244 20.0279 61.0203C19.859 61.1162 19.6681 61.1662 19.474 61.1651L19.5037 61.1552ZM26.1111 26.4686C25.8224 26.4713 25.5442 26.3603 25.3364 26.1595C25.1286 25.9588 25.0078 25.6843 25 25.3952C24.742 17.8516 23.8591 10.1987 23.0753 3.44024L22.8769 1.73076C22.8603 1.58388 22.8729 1.43518 22.9138 1.29317C22.9548 1.15117 23.0233 1.01866 23.1155 0.903238C23.2077 0.787819 23.3217 0.691771 23.451 0.620583C23.5803 0.549395 23.7223 0.504473 23.869 0.488401C24.016 0.46905 24.1655 0.479654 24.3083 0.519581C24.4512 0.559508 24.5845 0.627934 24.7003 0.720751C24.8162 0.813569 24.9121 0.92887 24.9823 1.05973C25.0525 1.19059 25.0957 1.33432 25.1091 1.48229L25.3075 3.19177C26.0913 9.98995 26.9743 17.6926 27.2322 25.3256C27.2375 25.4718 27.214 25.6176 27.163 25.7547C27.112 25.8918 27.0345 26.0175 26.935 26.1246C26.8355 26.2316 26.7159 26.318 26.5831 26.3787C26.4502 26.4395 26.3067 26.4734 26.1607 26.4785L26.1111 26.4686Z" fill="#49B3F7"/>
</svg>
