<svg width="15" height="16" viewBox="0 0 15 16" fill="none" xmlns="http://www.w3.org/2000/svg">
<path id="Vector" d="M13.7471 15.5838C13.585 15.5861 13.425 15.5486 13.2808 15.4745C9.3896 13.5121 5.27078 12.0399 1.01839 11.0916C0.85214 11.0517 0.699018 10.9694 0.573865 10.8527C0.448712 10.7361 0.355774 10.589 0.30407 10.4257C0.245096 10.2575 0.232404 10.0764 0.267315 9.90156C0.302225 9.72669 0.383466 9.56446 0.502503 9.43187C2.48671 7.12613 5.46301 5.26761 8.31035 3.46873C9.81834 2.47488 11.2866 1.61022 12.4871 0.666057C12.5913 0.587748 12.7099 0.530768 12.8362 0.498377C12.9624 0.465986 13.0937 0.458817 13.2227 0.477275C13.3516 0.495733 13.4757 0.539454 13.5878 0.60595C13.6999 0.672447 13.7979 0.760413 13.876 0.864825C13.9542 0.969237 14.0111 1.08805 14.0434 1.21449C14.0758 1.34092 14.0829 1.47249 14.0645 1.6017C14.0461 1.7309 14.0024 1.8552 13.936 1.96751C13.8697 2.07981 13.7819 2.17792 13.6776 2.25623C12.378 3.25008 10.9196 4.16443 9.3719 5.14835C7.1915 6.44744 5.12099 7.92328 3.18116 9.56107C6.99848 10.5115 10.6961 11.8918 14.2034 13.6756C14.4362 13.7983 14.6109 14.0085 14.689 14.2601C14.7672 14.5117 14.7424 14.7841 14.6201 15.0173C14.5412 15.1835 14.4178 15.3244 14.2637 15.4244C14.1095 15.5244 13.9307 15.5796 13.7471 15.5838Z" fill="#49B3F7"/>
</svg>
