<svg width="100" height="103" viewBox="0 0 100 103" fill="none" xmlns="http://www.w3.org/2000/svg">
<path id="Vector" d="M1.71693 102.395H1.49867C1.20769 102.335 0.951964 102.163 0.786746 101.916C0.621528 101.668 0.560088 101.366 0.615702 101.073C2.35188 92.3272 6.49886 85.6483 13.2947 80.659C13.4125 80.5718 13.5463 80.5088 13.6885 80.4736C13.8306 80.4384 13.9783 80.4317 14.123 80.4539C14.2678 80.476 14.4067 80.5266 14.5319 80.6028C14.6571 80.6789 14.766 80.7791 14.8523 80.8976C14.9396 81.0163 15.0027 81.1512 15.038 81.2944C15.0733 81.4376 15.0801 81.5863 15.0579 81.7321C15.0358 81.878 14.9853 82.018 14.9091 82.1442C14.833 82.2705 14.7328 82.3805 14.6142 82.4679C8.28464 87.1093 4.42537 93.341 2.80824 101.511C2.75403 101.761 2.61633 101.984 2.41789 102.145C2.21946 102.306 1.97218 102.394 1.71693 102.395ZM24.4261 77.0612C24.1637 77.066 23.908 76.9777 23.7044 76.8118C23.5008 76.6459 23.3624 76.4132 23.3137 76.1549C23.2649 75.8965 23.3091 75.6292 23.4382 75.4004C23.5674 75.1715 23.7733 74.9958 24.0193 74.9044C30.2652 72.6243 36.6593 70.7747 43.1569 69.3685C44.4665 69.0504 45.7761 68.7423 47.1254 68.3746C47.2714 68.3286 47.4254 68.3132 47.5777 68.3291C47.7299 68.3451 47.8774 68.3921 48.0108 68.4673C48.1443 68.5425 48.2609 68.6443 48.3536 68.7664C48.4463 68.8885 48.513 69.0283 48.5496 69.1772C48.5863 69.3262 48.5921 69.4811 48.5667 69.6323C48.5413 69.7836 48.4853 69.928 48.402 70.0568C48.3188 70.1855 48.2101 70.2958 48.0826 70.3808C47.9552 70.4659 47.8117 70.5238 47.6611 70.5512L43.6927 71.5451C37.2921 72.9251 30.9939 74.7449 24.8428 76.9916C24.709 77.0389 24.568 77.0624 24.4261 77.0612ZM58.8817 67.659C58.6063 67.6676 58.3374 67.5733 58.1275 67.3944C57.9175 67.2156 57.7813 66.965 57.7455 66.6912C57.7096 66.4175 57.7766 66.1401 57.9334 65.9131C58.0902 65.686 58.3257 65.5254 58.594 65.4625C65.0824 63.6934 73.4755 61.1391 80.5095 57.0443C80.7726 56.8967 81.0835 56.8598 81.3738 56.9418C81.664 57.0239 81.9098 57.218 82.0572 57.4816C82.2045 57.7452 82.2413 58.0566 82.1595 58.3474C82.0776 58.6382 81.8838 58.8845 81.6207 59.0321C74.3287 63.2561 65.7471 65.87 59.1794 67.6689C59.0802 67.6806 58.9799 67.6773 58.8817 67.659ZM90.4305 51.8562C90.1459 51.8553 89.8725 51.745 89.6666 51.5481C89.4588 51.3378 89.3422 51.0539 89.3422 50.758C89.3422 50.4621 89.4588 50.1781 89.6666 49.9678C93.379 46.0482 95.8804 41.1365 96.8692 35.8248C97.1843 34.2408 97.3438 32.6296 97.3455 31.0144C97.3455 30.3684 97.3455 29.7125 97.2661 29.0267C97.2424 28.7314 97.3368 28.4389 97.5284 28.2134C97.72 27.9878 97.9933 27.8478 98.2879 27.8241C98.5826 27.8004 98.8747 27.8949 99.0998 28.0869C99.3249 28.2788 99.4647 28.5526 99.4884 28.8478C99.5479 29.5534 99.5777 30.279 99.5777 30.9846C99.5727 32.743 99.3999 34.4969 99.0618 36.2224C97.9754 41.9422 95.2803 47.2319 91.2936 51.4686C91.1876 51.5934 91.055 51.6929 90.9057 51.76C90.7564 51.827 90.5941 51.8599 90.4305 51.8562ZM94.6668 18.8493C94.4669 18.8536 94.2695 18.8042 94.0951 18.7064C93.9206 18.6085 93.7755 18.4657 93.6747 18.2927C89.369 10.9181 82.1266 5.71012 76.809 2.62908C76.6826 2.55533 76.572 2.45737 76.4834 2.34079C76.3948 2.22422 76.33 2.0913 76.2927 1.94963C76.2554 1.80796 76.2463 1.66033 76.2659 1.51514C76.2856 1.36995 76.3336 1.23007 76.4072 1.10347C76.4808 0.976862 76.5786 0.866017 76.6949 0.777271C76.8113 0.688525 76.944 0.623616 77.0854 0.586238C77.2268 0.548861 77.3742 0.539745 77.5191 0.559426C77.664 0.579107 77.8037 0.627192 77.9301 0.700935C83.4759 3.91119 91.0357 9.36761 95.5894 17.1597C95.6657 17.2857 95.716 17.4258 95.7373 17.5717C95.7586 17.7176 95.7506 17.8662 95.7136 18.0089C95.6766 18.1516 95.6114 18.2854 95.5219 18.4024C95.4325 18.5195 95.3205 18.6173 95.1926 18.6903C95.0343 18.7886 94.8529 18.8434 94.6668 18.8493Z" fill="#49B3F7"/>
</svg>
