<svg width="14" height="14" viewBox="0 0 14 14" fill="none" xmlns="http://www.w3.org/2000/svg">
<path id="Vector" d="M12.5872 11.028C13.1215 10.4071 13.5186 9.68577 13.7535 8.90899C13.9885 8.13221 14.0565 7.31667 13.9531 6.51323C13.6776 4.95067 13.0498 3.46681 12.1148 2.16823C11.6599 1.55062 11.0707 1.03803 10.3892 0.666874C9.70763 0.295717 8.95042 0.0751087 8.17131 0.0207059C7.39514 -0.0505059 6.61276 0.0625929 5.89144 0.350313C5.6452 0.469666 5.40835 0.606551 5.18284 0.759846C2.44088 1.16937 0.304817 3.95617 0.0480789 6.5332C-0.126749 7.97279 0.177954 9.42897 0.917391 10.6876C1.65683 11.9462 2.79197 12.9408 4.15589 13.5252C5.65577 14.0921 7.30783 14.1532 8.84763 13.6986C10.3874 13.2441 11.7259 12.3002 12.6488 11.018L12.5872 11.028ZM1.59879 7.44216C1.59003 6.20331 2.02997 5.00101 2.84142 4.04607C3.8034 3.07395 4.95102 2.2936 6.22008 1.74871C6.32796 1.69852 6.41493 1.61392 6.46653 1.50898C6.85214 1.43401 7.24407 1.39389 7.63728 1.38913C8.68599 1.37772 9.69703 1.76891 10.4511 2.47787C11.2876 3.44458 11.8912 4.58106 12.2175 5.80404C12.4528 6.40941 12.5454 7.05841 12.4885 7.70323C12.4317 8.34804 12.2268 8.97222 11.8889 9.52975C11.2855 10.6467 10.3172 11.5366 9.13652 12.0593C7.95584 12.5819 6.62989 12.7076 5.36769 12.4164C4.26689 12.0953 3.30364 11.4342 2.62361 10.533C1.94358 9.63193 1.58381 8.53988 1.59879 7.42218" fill="white"/>
</svg>
