<svg width="51" height="47" viewBox="0 0 51 47" fill="none" xmlns="http://www.w3.org/2000/svg">
<path d="M50.9326 20.0559C50.6214 18.1216 49.9398 16.2646 48.9249 14.5856C47.0222 11.1167 44.3515 8.12318 41.1146 5.83119C39.0863 4.53404 36.9464 3.41831 34.7198 2.49712C24.1388 -2.19454 11.54 -0.497561 4.60308 9.4847C-1.26969 17.9596 -1.59094 31.3558 4.03085 40.0604C5.62367 42.7186 8.01466 44.8133 10.8674 46.0497C12.354 46.573 13.9099 46.8757 15.4852 46.9481C19.5008 47.2276 24.0183 46.439 26.1265 43.085C27.4517 40.9687 27.4717 38.3234 28.0238 35.8878C28.576 33.4521 30.1019 30.8368 32.6016 30.5772C33.9627 30.6042 35.3057 30.8923 36.5569 31.4257C38.3106 31.9335 40.1588 32.0301 41.9564 31.708C43.754 31.3858 45.452 30.6537 46.9171 29.569C48.3489 28.4505 49.4694 26.9867 50.1722 25.3165C50.8751 23.6462 51.1368 21.8251 50.9326 20.026" fill="#C6C6C6"/>
</svg>
