<svg width="51" height="32" viewBox="0 0 51 32" fill="none" xmlns="http://www.w3.org/2000/svg">
<path id="Vector" d="M46.8348 14.55C45.3726 15.6359 43.6779 16.3688 41.8838 16.6913C40.0897 17.0138 38.2451 16.9171 36.4948 16.4087C35.246 15.8747 33.9056 15.5863 32.5471 15.5593C30.0523 15.8091 28.5393 18.4373 27.9783 20.8757C27.4172 23.314 27.4071 25.9622 26.0846 28.0807C23.9805 31.4384 19.4217 32.2279 15.464 31.948C13.8918 31.8755 12.3388 31.5725 10.8551 31.0487C8.00794 29.8109 5.62153 27.714 4.03181 25.0528C0.0240391 18.8171 -0.977859 10.203 0.94587 2.68816C1.49086 6.08245 2.71034 9.33392 4.53278 12.2516C6.12406 14.9152 8.51444 17.0127 11.366 18.2475C12.8462 18.7716 14.3959 19.0747 15.965 19.1468C19.9727 19.4267 24.4815 18.6372 26.5855 15.2795C27.9181 13.161 27.9382 10.5228 28.4792 8.08444C29.0203 5.64612 30.5532 3.01794 33.0481 2.75811C34.4267 2.77861 35.788 3.06713 37.0558 3.60752C38.8042 4.11816 40.6478 4.21604 42.4407 3.89344C44.2336 3.57084 45.9266 2.8366 47.3859 1.7488C48.0446 1.23827 48.64 0.651191 49.1593 0C50.053 1.54279 50.6542 3.23657 50.9328 4.99657C51.1365 6.79764 50.8752 8.62078 50.1738 10.2928C49.4724 11.9649 48.3541 13.4303 46.925 14.55" fill="#B7B7B7"/>
</svg>
