<svg width="14" height="13" viewBox="0 0 14 13" fill="none" xmlns="http://www.w3.org/2000/svg">
<path id="Vector" d="M13.507 3.99056C13.2014 3.22014 12.7395 2.51652 12.1486 1.92099C11.5577 1.32547 10.8495 0.850049 10.0658 0.522666C9.10029 0.122048 8.0193 0.0644059 7.01405 0.359946C6.99778 0.316957 6.97256 0.277645 6.93999 0.244416C6.90741 0.211186 6.86817 0.184755 6.82463 0.166733C6.13975 -0.0240664 5.41721 -0.0515687 4.71891 0.086584C4.02062 0.224737 3.3674 0.524425 2.8152 0.959973C1.62225 1.8007 0.737553 2.98693 0.28955 4.3465C-0.118778 5.68483 -0.09472 7.11171 0.358469 8.43649C0.811658 9.76126 1.67236 10.9208 2.82567 11.7603C4.03519 12.5676 5.47039 13 6.94037 13C8.41036 13 9.84549 12.5676 11.055 11.7603C12.31 10.9114 13.2372 9.68334 13.6906 8.26935C14.1441 6.85535 14.098 5.33578 13.5596 3.94988L13.507 3.99056ZM10.6762 10.428C9.77051 11.1367 8.66581 11.5669 7.5047 11.663C6.34358 11.759 5.17933 11.5166 4.16217 10.967C3.19164 10.4008 2.41974 9.56561 1.94681 8.56993C1.47388 7.57425 1.32177 6.46413 1.51024 5.38381C1.75719 4.17069 2.45308 3.08607 3.46765 2.33288C3.94979 1.97533 4.47225 1.6717 5.0251 1.42777C5.2137 1.34608 5.40693 1.27479 5.60388 1.21422L5.4776 1.32609C5.28818 1.53965 5.55128 1.92609 5.82489 1.79389C6.387 1.52775 6.99872 1.37349 7.62372 1.34024C8.24871 1.30699 8.87426 1.39542 9.4632 1.60032C10.0521 1.80521 10.5925 2.12238 11.0521 2.53298C11.5118 2.94358 11.8814 3.43925 12.139 3.99056C12.6762 5.06522 12.8261 6.28264 12.5649 7.44914C12.3036 8.61564 11.6462 9.66421 10.6973 10.428" fill="white"/>
</svg>
