<svg width="12" height="13" viewBox="0 0 12 13" fill="none" xmlns="http://www.w3.org/2000/svg">
<path id="Vector" d="M6.71715 12.9948C11.2067 13.196 13.0475 7.51178 11.4112 4.1113C10.5449 2.32591 8.99783 0.948593 7.10577 0.278198C5.18316 -0.385801 2.94352 0.107181 2.12538 2.09918C2.09974 2.20501 2.09974 2.31528 2.12538 2.42111C1.84502 2.59384 1.5874 2.79997 1.35838 3.03481C0.85442 3.55234 0.474396 4.17415 0.246142 4.85476C0.0178886 5.53536 -0.0528621 6.25755 0.0390993 6.9685C0.150154 7.69237 0.430239 8.38109 0.857284 8.98062C1.05158 9.27041 1.3017 9.51992 1.59357 9.71504C1.69261 10.072 1.8479 10.4115 2.05379 10.7211C2.64138 11.3912 3.36152 11.9365 4.17028 12.324C4.97905 12.7114 5.85948 12.9328 6.75804 12.9747" fill="#E76166"/>
</svg>
