<svg width="10" height="11" viewBox="0 0 10 11" fill="none" xmlns="http://www.w3.org/2000/svg">
<path id="Vector" d="M3.46052 10.7067C4.25737 10.9976 5.12169 11.074 5.96032 10.9275C6.79895 10.781 7.58014 10.4173 8.21973 9.87551C8.88254 9.30594 9.38688 8.58615 9.6869 7.78152C9.98693 6.97689 10.0731 6.11293 9.93772 5.26811C9.81707 4.62725 9.57861 4.0122 9.23347 3.45183C9.07299 3.07309 8.88394 2.70613 8.66789 2.35386C8.22473 1.58685 7.56163 0.958498 6.75757 0.543694C5.95352 0.128889 5.0424 -0.0548986 4.13279 0.0142259C3.76254 0.0791892 3.40344 0.19315 3.0657 0.352857C2.57398 0.415891 2.09942 0.569173 1.66783 0.804364C1.55131 0.879728 1.46957 0.995494 1.43974 1.12745C1.40991 1.2594 1.43427 1.39733 1.50774 1.51241C1.14744 1.91055 0.842571 2.35208 0.600745 2.82588C-0.818475 5.64778 0.323303 9.5882 3.53522 10.7067" fill="#FFC652"/>
</svg>
