<svg width="31" height="54" viewBox="0 0 31 54" fill="none" xmlns="http://www.w3.org/2000/svg">
<path id="Vector" d="M29.9873 53.3408C29.7885 53.4998 29.5413 53.5863 29.2865 53.586C29.0318 53.5856 28.7847 53.4986 28.5863 53.3391C23.275 49.0714 18.46 44.2226 14.2315 38.8835C13.4331 37.8736 12.6286 36.8559 11.9053 35.8123C11.7381 35.5677 11.6721 35.2681 11.7211 34.9762C11.7702 34.6842 11.9304 34.4225 12.1684 34.2458C12.4117 34.0739 12.7132 34.005 13.0073 34.0543C13.3013 34.1035 13.5639 34.2669 13.7377 34.5087C14.4519 35.5086 15.216 36.5074 15.9958 37.4938C20.1183 42.6982 24.8116 47.4254 29.9879 51.5872C30.1037 51.6788 30.2001 51.7923 30.2717 51.9212C30.3433 52.0501 30.3886 52.1919 30.405 52.3384C30.4215 52.4848 30.4087 52.6331 30.3675 52.7746C30.3262 52.9161 30.2573 53.0481 30.1647 53.1629C30.1057 53.2219 30.0399 53.2737 29.9687 53.3173L29.9873 53.3408ZM7.29876 25.7846C7.24498 25.8394 7.18437 25.8872 7.11841 25.9266C6.85002 26.0587 6.54002 26.0791 6.25657 25.9831C5.97313 25.8872 5.73944 25.6828 5.60688 25.415C1.59146 17.3099 -0.281421 9.37189 0.0521767 1.84281C0.0831825 1.55862 0.221247 1.29683 0.438392 1.11049C0.655537 0.924141 0.935532 0.827171 1.22167 0.839199C1.5078 0.851228 1.77868 0.971361 1.97943 1.17527C2.18018 1.37919 2.29579 1.65163 2.30285 1.93742C1.99819 9.10072 3.77826 16.6799 7.62288 24.4241C7.73751 24.6543 7.76909 24.9168 7.7123 25.1675C7.65551 25.4182 7.51382 25.6417 7.31114 25.8002" fill="#49B3F7"/>
</svg>
