<svg width="18" height="45" viewBox="0 0 18 45" fill="none" xmlns="http://www.w3.org/2000/svg">
<path id="Vector" d="M17.0563 2.16374C17.0626 2.2336 17.059 2.30398 17.0456 2.37284C16.4148 4.9238 15.6185 7.43113 14.6615 9.87891C14.6085 10.0158 14.5291 10.141 14.4276 10.2473C14.3262 10.3536 14.2047 10.4388 14.0702 10.4983C13.7987 10.6183 13.4904 10.6258 13.2133 10.519C12.9362 10.4123 12.7129 10.2 12.5926 9.92895C12.4723 9.65791 12.4648 9.35026 12.5718 9.07371C13.513 6.71666 14.3045 4.30283 14.9417 1.8465C14.9874 1.556 15.1461 1.29523 15.3833 1.12078C15.6205 0.946337 15.917 0.872278 16.2086 0.914719C16.5002 0.957164 16.7632 1.11267 16.9406 1.34746C17.118 1.58226 17.1954 1.8774 17.1561 2.16882L17.0563 2.16374ZM9.9679 20.4921C9.95826 20.6349 9.92403 20.775 9.86672 20.9063C6.72996 27.6752 4.05581 33.8087 3.0946 40.289C2.95394 41.2801 2.82325 42.2718 2.71253 43.2646C2.68022 43.5595 2.53186 43.8295 2.30006 44.0152C2.06826 44.2009 1.77201 44.2872 1.4765 44.2549C1.181 44.2227 0.910431 44.0746 0.724322 43.8433C0.538212 43.6119 0.451812 43.3163 0.484119 43.0214C0.594844 42.0287 0.715542 41.0365 0.866177 40.0458C1.87309 33.2583 4.61523 26.9685 7.82 20.0434C7.92457 19.8001 8.11235 19.6018 8.34985 19.4838C8.58734 19.3659 8.8591 19.336 9.11663 19.3995C9.37417 19.4629 9.60072 19.6157 9.7559 19.8304C9.91107 20.0451 9.98477 20.3078 9.96384 20.5717L9.9679 20.4921Z" fill="#49B3F7"/>
</svg>
