<svg width="41" height="62" viewBox="0 0 41 62" fill="none" xmlns="http://www.w3.org/2000/svg">
<path d="M40.7926 57.9599L26.7704 35.2512C22.103 27.6849 17.5959 20.0102 12.7482 12.5917L8.66172 6.3554C7.95059 5.27169 7.22946 4.19783 6.48828 3.13382C6.12771 2.62152 5.76713 2.14862 5.41658 1.60676C5.24014 1.34588 5.03528 1.10471 4.80563 0.887567L4.68543 0.720085C4.57471 0.561645 4.42241 0.435672 4.24473 0.35556L4.06445 0.197933C3.97599 0.118633 3.86999 0.0606708 3.75483 0.0286328C3.63967 -0.00340521 3.5185 -0.00863905 3.40092 0.0133443C3.28335 0.0353277 3.17258 0.0839257 3.0774 0.155292C2.98221 0.226659 2.90523 0.318839 2.85252 0.424531C2.56264 0.466739 2.2857 0.570991 2.04124 0.729939C1.49037 1.03535 0.919473 1.2915 0.358585 1.56735C0.19522 1.6675 0.0764949 1.82482 0.0263176 2.00762C-0.0238596 2.19042 -0.00176704 2.38513 0.0881526 2.55255C0.498803 3.23233 0.909446 3.91212 1.38019 4.52294C1.59385 4.87193 1.83854 5.20162 2.11136 5.50813C2.31966 5.69158 2.55632 5.84122 2.81247 5.95147C2.85566 5.97496 2.90423 5.98725 2.95359 5.98715C3.00295 5.98705 3.05147 5.97458 3.09457 5.95092C3.13768 5.92726 3.17394 5.89318 3.19994 5.85191C3.22593 5.81063 3.24079 5.76352 3.24314 5.71502C3.24565 5.44584 3.21199 5.17752 3.14299 4.91702C2.97792 4.55477 2.79062 4.20274 2.58211 3.86286C2.34173 3.40967 2.0813 2.96633 1.82089 2.52299C2.26977 2.33429 2.68819 2.08203 3.06286 1.77424C3.12976 1.99043 3.21347 2.20122 3.31326 2.40477C3.57367 2.90722 3.85411 3.38997 4.13455 3.90227C4.67541 4.88746 5.21627 5.87266 5.78718 6.85785L9.08238 12.4735C11.3259 16.3157 13.6363 20.1153 16.0134 23.8722C20.7709 31.3892 25.4583 38.9555 30.1557 46.5317L38.1684 59.4377L38.2485 59.5461C37.9681 59.7333 37.247 60.2357 37.0166 60.1668C36.7863 60.0978 36.4958 59.4574 36.3856 59.2801C36.1075 58.8219 35.8567 58.3482 35.6344 57.8614C35.2638 57.0535 33.8416 57.6348 34.1621 58.4722C34.6028 59.6052 35.2939 61.7628 36.7061 61.9992C37.4548 62.0144 38.1909 61.8085 38.8195 61.4081C39.1753 61.2789 39.4965 61.0715 39.7586 60.8017C40.0206 60.532 40.2167 60.207 40.3319 59.8515C40.4912 59.7569 40.6294 59.6317 40.7383 59.4834C40.8473 59.335 40.9246 59.1666 40.9658 58.9881C41.0069 58.8097 41.011 58.6248 40.9778 58.4448C40.9446 58.2647 40.8748 58.0931 40.7726 57.9402" fill="#864FF1"/>
</svg>
