<svg width="24" height="40" viewBox="0 0 24 40" fill="none" xmlns="http://www.w3.org/2000/svg">
<path id="Vector" d="M0.0295661 0.592648C1.22497 3.27779 2.58006 5.88464 4.08713 8.39836C5.54044 10.9969 7.07178 13.5553 8.5641 16.1238C11.4902 21.2306 14.5822 26.2973 17.6741 31.3138C19.4298 34.1733 21.2733 36.9524 23.0972 39.7617C23.1643 39.8736 23.2715 39.954 23.3957 39.9854C23.5198 40.0169 23.6511 39.9969 23.7611 39.9298C23.871 39.8627 23.951 39.7539 23.9838 39.6267C24.0165 39.4996 23.9993 39.3643 23.936 39.25C18.3081 28.7955 12.2315 18.602 6.12566 8.44852C4.47316 5.54905 2.62859 2.77001 0.605034 0.131129C0.312421 -0.230061 -0.11674 0.231458 0.0295661 0.592648Z" fill="#C6C6C6"/>
</svg>
