<svg width="42" height="77" viewBox="0 0 42 77" fill="none" xmlns="http://www.w3.org/2000/svg">
<g style="mix-blend-mode:multiply">
<g style="mix-blend-mode:multiply">
<g style="mix-blend-mode:multiply">
<path d="M41.1135 53.2693C28.1693 61.2472 15.1954 68.0184 2.25124 75.9664L1.95436 76.106C3.81873 74.505 5.60227 72.8109 7.29829 71.03C9.59254 68.6243 11.5865 65.9452 13.236 63.0521C15.9231 58.64 17.3795 53.5791 17.4518 48.4027C17.4518 42.2897 15.2647 36.3462 13.2954 30.6519C12.184 27.5795 10.8305 24.6016 9.24784 21.7466C7.63476 18.7549 5.7446 15.9327 4.07214 12.9809C3.23097 11.505 2.39968 9.9892 1.60799 8.51329C1.22204 7.77534 0.737122 6.97755 0.380859 6.15981L9.07961 0.814626L9.32701 0.665039C19.6289 17.7078 41.1531 53.2493 41.1531 53.2493" fill="#FFC652"/>
</g>
</g>
</g>
</svg>
