<svg width="12" height="12" viewBox="0 0 12 12" fill="none" xmlns="http://www.w3.org/2000/svg">
<path d="M7.73254 11.5333C6.72198 11.9383 5.61381 12.0348 4.54825 11.8107C3.48269 11.5866 2.50768 11.0519 1.74665 10.2743C0.98562 9.49664 0.472788 8.51108 0.273056 7.44231C0.0733244 6.37354 0.195641 5.26964 0.624597 4.27033C1.05355 3.27103 1.76987 2.42124 2.68279 1.82856C3.5957 1.23588 4.66417 0.926961 5.75302 0.94088C6.84188 0.9548 7.90214 1.29093 8.79956 1.90675C9.69698 2.52257 10.3912 3.39039 10.7944 4.40033C10.8563 4.54392 10.909 4.69131 10.9522 4.84156C11.351 6.1569 11.2417 7.57371 10.6456 8.81248C10.0496 10.0513 9.01023 11.022 7.73254 11.5333Z" fill="#FFCD69"/>
</svg>
