<svg width="289" height="114" viewBox="0 0 289 114" fill="none" xmlns="http://www.w3.org/2000/svg">
<path d="M80.9916 11.1824L79.9499 13.4783L77.182 19.6205L34.8888 113.254H26.9023C26.9023 113.254 51.7048 46.4753 61.4969 19.6603C63.8382 13.2497 65.3164 9.12509 65.3859 8.72754L80.9916 11.1824Z" fill="#864FF1"/>
<g style="mix-blend-mode:multiply" opacity="0.44">
<g style="mix-blend-mode:multiply" opacity="0.44">
<path d="M65.3851 8.74805L80.9908 11.183L77.1812 19.6208H61.4961C63.8374 13.2502 65.3157 9.12571 65.3851 8.74805Z" fill="#CC9281"/>
</g>
</g>
<path d="M262.932 113.255H254.996L212.732 19.7008L208.883 11.1832L211.383 10.7856L224.498 8.79785C224.568 9.17553 226.056 13.33 228.407 19.7306C238.16 46.5755 262.932 113.255 262.932 113.255Z" fill="#864FF1"/>
<g style="mix-blend-mode:multiply" opacity="0.44">
<g style="mix-blend-mode:multiply" opacity="0.44">
<path d="M228.368 19.7189H212.693L208.844 11.2016L224.459 8.7666C224.529 9.12439 226.017 13.2489 228.368 19.7189Z" fill="#CC9281"/>
</g>
</g>
<g style="mix-blend-mode:multiply" opacity="0.44">
<g style="mix-blend-mode:multiply" opacity="0.44">
<path d="M257.566 113.255H254.957L212.693 19.7003L208.844 11.1827L211.344 10.7852L217.167 13.4786L257.566 113.255Z" fill="#CC9281"/>
</g>
</g>
<path d="M92.033 7.12695H56.5059V13.4777H92.033V7.12695Z" fill="#CC9281"/>
<path d="M233.338 7.12695H197.811V13.4777H233.338V7.12695Z" fill="#CC9281"/>
<path d="M288.39 0.00146484H0.978516V7.11746H288.39V0.00146484Z" fill="#F7A845"/>
<path d="M288.39 1.63135H0.978516V7.12734H288.39V1.63135Z" fill="#864FF1"/>
<path d="M92.033 7.12695H56.5059V13.4777H92.033V7.12695Z" fill="#864FF1"/>
<path d="M233.338 7.12695H197.811V13.4777H233.338V7.12695Z" fill="#864FF1"/>
<g style="mix-blend-mode:multiply" opacity="0.44">
<g style="mix-blend-mode:multiply" opacity="0.44">
<path d="M79.9505 13.4785L77.1825 19.6207L34.8893 113.255H31.1094L71.2497 13.4785H79.9505Z" fill="#CC9281"/>
</g>
</g>
</svg>
