<svg width="14" height="19" viewBox="0 0 14 19" fill="none" xmlns="http://www.w3.org/2000/svg">
<path id="Vector" d="M2.04844 0.884447C1.7933 0.805957 1.51738 0.831863 1.28136 0.956478C1.04534 1.08109 0.868564 1.2942 0.789926 1.54893C0.711288 1.80365 0.737221 2.07911 0.862028 2.31473C0.986836 2.55034 1.20029 2.72681 1.45544 2.8053L11.2342 7.22053L1.82707 16.2577C1.71763 16.3441 1.62755 16.4524 1.56258 16.5756C1.4976 16.6988 1.45919 16.8343 1.44984 16.9732C1.44049 17.1122 1.46039 17.2515 1.50827 17.3823C1.55614 17.5131 1.63092 17.6325 1.7278 17.7327C1.82468 17.8329 1.94152 17.9117 2.07078 17.9641C2.20003 18.0164 2.33883 18.0412 2.47826 18.0367C2.61768 18.0323 2.75461 17.9988 2.88026 17.9383C3.00592 17.8778 3.11751 17.7917 3.20781 17.6856L13.6871 7.63212C13.8029 7.51945 13.8895 7.38043 13.9396 7.22698C13.9897 7.07353 14.0017 6.91023 13.9747 6.75112C13.9471 6.59109 13.8808 6.44018 13.7816 6.31153C13.6824 6.18288 13.5532 6.08037 13.4052 6.01291L2.25792 0.961825C2.17905 0.933383 2.09585 0.918736 2.01199 0.918528" fill="#49B3F7"/>
</svg>
