<svg width="19" height="38" viewBox="0 0 19 38" fill="none" xmlns="http://www.w3.org/2000/svg">
<path id="Vector" d="M2.40492 37.0721C2.14932 37.0328 1.90943 36.9398 1.72489 36.8082C1.54036 36.6766 1.42223 36.5144 1.39005 36.3484C0.529462 31.9062 0.436101 27.4884 1.11173 23.1778C1.24056 22.3632 1.37039 21.5423 1.57735 20.753C1.6275 20.5692 1.78964 20.4157 2.02985 20.3246C2.27005 20.2335 2.5697 20.2119 2.8661 20.2643C3.16305 20.3213 3.43002 20.4495 3.60873 20.6208C3.78744 20.7922 3.86338 20.9928 3.81997 21.1789C3.63704 21.9461 3.49117 22.7386 3.36533 23.5342C2.70722 27.7364 2.79751 32.0429 3.6345 36.3733C3.65426 36.4695 3.64464 36.5645 3.6062 36.6529C3.56775 36.7412 3.50125 36.8211 3.41051 36.888C3.31976 36.9549 3.20657 37.0074 3.07747 37.0425C2.94838 37.0777 2.80592 37.0947 2.65831 37.0927C2.57416 37.0857 2.49012 37.0724 2.40791 37.0531L2.40492 37.0721ZM5.26514 14.3781C5.18768 14.3722 5.11027 14.36 5.03477 14.3417C4.74751 14.2559 4.50843 14.104 4.37012 13.9195C4.23181 13.735 4.20558 13.5329 4.2972 13.3577C7.06605 8.05435 11.2716 3.92323 16.7908 1.09374C17.0125 0.99644 17.2961 0.963318 17.5842 1.00108C17.8723 1.03884 18.1433 1.14467 18.3424 1.29712C18.5415 1.44957 18.6537 1.63725 18.6564 1.82214C18.659 2.00703 18.5519 2.1753 18.3567 2.29288C13.1149 4.99147 9.09354 8.93166 6.45378 14.003C6.37557 14.1539 6.21442 14.2749 5.99752 14.3455C5.78061 14.4162 5.52123 14.4322 5.26314 14.3908" fill="#49B3F7"/>
</svg>
