<svg width="17" height="15" viewBox="0 0 17 15" fill="none" xmlns="http://www.w3.org/2000/svg">
<path id="Vector" d="M0.0369587 13.0952C0.00383759 13.3596 0.0773258 13.6263 0.241268 13.8367C0.405212 14.047 0.646179 14.1838 0.911152 14.2168C1.17612 14.2499 1.44339 14.1766 1.65418 14.013C1.86496 13.8493 2.00199 13.6089 2.03511 13.3444L4.69266 2.96511L15.2429 10.6424C15.3471 10.735 15.4696 10.8047 15.6025 10.8472C15.7354 10.8897 15.8757 10.9039 16.0144 10.8889C16.1531 10.874 16.2871 10.8302 16.4079 10.7605C16.5286 10.6907 16.6334 10.5964 16.7154 10.4838C16.7974 10.3712 16.8549 10.2426 16.8841 10.1065C16.9133 9.97032 16.9136 9.82958 16.885 9.6933C16.8564 9.55701 16.7996 9.42824 16.7181 9.31523C16.6366 9.20222 16.5322 9.10749 16.4118 9.03716L4.67268 0.482464C4.54141 0.388247 4.3892 0.327222 4.2291 0.304646C4.069 0.282069 3.90581 0.29861 3.75353 0.352842C3.60042 0.407709 3.46304 0.499067 3.35335 0.618962C3.24366 0.738857 3.16496 0.883663 3.1241 1.04081L0.0769157 12.8758C0.0625534 12.9583 0.0625534 13.0426 0.0769157 13.1251" fill="#49B3F7"/>
</svg>
