<svg width="42" height="47" viewBox="0 0 42 47" fill="none" xmlns="http://www.w3.org/2000/svg">
<path id="Vector" d="M29.0439 46.7272C28.9126 46.7266 28.7828 46.7 28.6618 46.6488C28.5409 46.5976 28.4314 46.5229 28.3395 46.429L17.1486 35.049L4.11239 40.6744C3.92334 40.7568 3.71335 40.7781 3.51162 40.7355C3.3099 40.6928 3.12645 40.5882 2.98679 40.4363C2.84713 40.2844 2.75818 40.0926 2.73232 39.8877C2.70647 39.6828 2.74498 39.4749 2.84251 39.2929L9.32092 27.1874L0.937677 17.3678C0.808503 17.2157 0.728054 17.0282 0.706819 16.8296C0.685583 16.631 0.724543 16.4307 0.818622 16.2546C0.91152 16.0767 1.05603 15.9311 1.23313 15.8371C1.41023 15.7431 1.6116 15.705 1.81072 15.7279L14.4402 17.1193L22.4762 0.958736C22.5685 0.767182 22.7197 0.610354 22.9076 0.511304C23.0955 0.412255 23.3102 0.37621 23.5201 0.408471C23.7299 0.440732 23.9239 0.539595 24.0735 0.690526C24.2232 0.841458 24.3205 1.03649 24.3512 1.24696L27.0597 18.4312L40.5026 23.1124C40.7061 23.1833 40.881 23.3187 41.001 23.498C41.1209 23.6773 41.1793 23.8908 41.1673 24.1063C41.1658 24.313 41.1 24.514 40.9791 24.6815C40.8582 24.8489 40.6881 24.9745 40.4927 25.0406L28.1708 29.2149L30.0657 45.624C30.086 45.8267 30.0435 46.0308 29.9442 46.2085C29.8448 46.3863 29.6933 46.5292 29.5101 46.6178C29.366 46.6919 29.2059 46.7294 29.0439 46.7272ZM17.3768 32.8724C17.508 32.8729 17.6379 32.8996 17.7588 32.9508C17.8797 33.0019 17.9893 33.0766 18.0812 33.1706L27.7343 42.9802L26.0775 28.6086C26.0493 28.3818 26.1001 28.1522 26.2211 27.9585C26.3422 27.7648 26.5262 27.6188 26.7422 27.5452L37.0997 24.0467L25.8096 20.0712C25.6415 20.0106 25.4929 19.9056 25.3794 19.7674C25.2659 19.6292 25.1917 19.4629 25.1648 19.286L22.8333 4.62617L15.8688 18.6698C15.7788 18.8514 15.6355 19.0011 15.4582 19.0988C15.2809 19.1965 15.078 19.2375 14.8767 19.2164L4.04295 17.984L11.2456 26.4121C11.3748 26.5642 11.4552 26.7518 11.4764 26.9503C11.4977 27.1489 11.4587 27.3492 11.3646 27.5253L5.92794 37.7226L16.9799 32.9519C17.1054 32.8984 17.2404 32.8713 17.3768 32.8724Z" fill="#49B3F7"/>
</svg>
