<svg width="15" height="13" viewBox="0 0 15 13" fill="none" xmlns="http://www.w3.org/2000/svg">
<path id="Vector" d="M12.0541 2.31988C10.7523 1.39984 9.18905 0.925155 7.59648 0.966337C6.00391 1.00752 4.46713 1.56239 3.21452 2.54847C3.10773 2.62125 3.02028 2.71903 2.95977 2.83333C2.89926 2.94764 2.86748 3.07504 2.86725 3.20442C2.02712 3.86012 1.36574 4.71755 0.944333 5.69737C0.522924 6.67719 0.355112 7.7477 0.45646 8.80975C0.555669 10.3502 1.69657 11.0459 2.98629 11.6025C4.45325 12.2632 6.00657 12.7116 7.59957 12.9342C10.4766 13.302 13.1752 12.0994 14.2367 9.28681C14.6681 8.04472 14.6888 6.69648 14.2957 5.44169C13.9026 4.1869 13.1166 3.09227 12.0541 2.31988ZM11.806 10.1813C9.74249 12.3578 5.98245 11.1751 3.63118 10.1117C3.026 9.84336 2.2125 9.56508 2.09344 8.80975C2.05054 8.22133 2.10755 7.62987 2.26208 7.06056C2.32943 6.48149 2.53978 5.92837 2.87409 5.45118C3.2084 4.97399 3.65611 4.58778 4.17682 4.32745C4.34201 4.26672 4.48378 4.15517 4.5818 4.00878C4.67982 3.86238 4.72905 3.68867 4.72246 3.51252C5.70759 2.8669 6.86981 2.54655 8.04596 2.59646C9.22212 2.64637 10.3532 3.06403 11.2803 3.79079C11.7504 4.16426 12.1389 4.63038 12.422 5.16035C12.705 5.69031 12.8766 6.27285 12.9259 6.87187C12.9751 7.47089 12.9012 8.07366 12.7086 8.6429C12.516 9.21215 12.2088 9.73574 11.806 10.1813Z" fill="#49B3F7"/>
</svg>
