<svg width="9" height="8" viewBox="0 0 9 8" fill="none" xmlns="http://www.w3.org/2000/svg">
<path id="Vector" d="M6.87928 1.10319C5.78798 0.327988 2.56369 -0.238517 1.81962 1.34171C1.64969 1.28791 1.46691 1.29082 1.29875 1.34996C1.13059 1.4091 0.98613 1.52129 0.887051 1.6697C0.36243 2.48392 0.163976 3.46653 0.331359 4.42101C0.498743 5.3755 1.01966 6.23149 1.78989 6.81784C2.62075 7.37461 3.6175 7.62813 4.61286 7.53584C5.60822 7.44355 6.54155 7.01105 7.25628 6.31096C7.6259 5.9716 7.91413 5.55285 8.0993 5.08609C8.28446 4.61933 8.36179 4.11668 8.32552 3.61572C8.28926 3.11477 8.1403 2.62852 7.88985 2.1934C7.6394 1.75829 7.29391 1.38559 6.87928 1.10319ZM5.31182 5.67491C3.32763 6.5495 1.0557 4.68106 2.17676 2.69336C2.27633 2.75808 2.39064 2.79655 2.50902 2.80519C2.62739 2.81383 2.74598 2.79237 2.85386 2.7428C2.96174 2.69323 3.05537 2.61715 3.12605 2.52163C3.19673 2.42612 3.24219 2.31425 3.25817 2.19644C3.25817 1.89828 4.5876 1.96786 4.76618 1.98773C5.35646 2.04047 5.90536 2.31362 6.30391 2.75299C7.22656 3.82635 6.45273 5.13824 5.31182 5.6451V5.67491Z" fill="#49B3F7"/>
</svg>
