<svg width="9" height="9" viewBox="0 0 9 9" fill="none" xmlns="http://www.w3.org/2000/svg">
<path id="Vector" d="M8.27207 3.63228C7.90115 2.71802 7.22374 1.96185 6.35642 1.49385C5.48909 1.02586 4.48609 0.875303 3.51994 1.06811C3.3319 1.14359 3.17822 1.28589 3.08832 1.46774C2.99841 1.64959 2.97858 1.85826 3.03261 2.05384C3.08664 2.24942 3.21071 2.41819 3.38115 2.52787C3.55159 2.63755 3.75644 2.68047 3.95646 2.64837C5.94066 2.09181 8.41097 5.98771 6.23828 6.44489C5.235 6.5727 4.21578 6.46382 3.26198 6.12688C2.26988 5.77903 1.16861 4.24846 2.65676 3.65215C3.64885 3.27448 3.20247 1.66443 2.22029 2.07192C1.79906 2.21369 1.41775 2.45428 1.10818 2.77364C0.798602 3.09299 0.569692 3.48185 0.44058 3.9078C0.311468 4.33375 0.285871 4.78444 0.365918 5.22231C0.445965 5.66018 0.629368 6.07255 0.900782 6.42502C2.0913 7.9655 4.86919 8.41273 6.68473 8.02512C8.76814 7.56795 9.13519 5.34172 8.27207 3.63228Z" fill="#49B3F7"/>
</svg>
