<svg width="52" height="49" viewBox="0 0 52 49" fill="none" xmlns="http://www.w3.org/2000/svg">
<path d="M48.1042 45.6097C39.8499 45.6097 34.0759 44.2481 30.167 42.7076C27.623 41.7722 25.2698 40.3813 23.2223 38.6028C20.5932 36.9132 19.2539 32.5202 19.2539 32.5202C20.0495 29.3593 21.1424 26.2811 22.5179 23.3268C23.7684 20.4901 25.6202 17.9601 27.9447 15.9124C32.0123 12.6028 35.4747 13.7954 35.4747 13.7954L39.1256 0.785482C42.7837 0.549757 46.4135 1.56221 49.4236 3.65781L45.8322 16.4889C51.0805 19.4705 52.2908 25.1754 51.9436 30.7313C51.4673 35.8647 50.171 40.8882 48.1042 45.6097Z" fill="#49B3F7"/>
<path d="M49.6028 41.7032C48.7992 44.0587 48.1048 45.5693 48.1048 45.5693C32.9653 45.5693 26.1397 40.9578 23.967 39.2087C23.5305 38.8608 23.2824 38.6223 23.1832 38.5626C20.5542 36.8731 19.2148 32.4802 19.2148 32.4802C20.0104 29.3194 21.1033 26.2413 22.4788 23.2871C24.84 22.0348 27.5088 21.2994 29.9196 22.2932C31.1995 22.962 32.4008 23.7721 33.501 24.7083C36.2533 26.6369 39.624 27.4696 42.9558 27.0439C44.3084 26.7134 45.7051 26.6027 47.0928 26.7159C48.5641 27.0939 49.8646 27.959 50.7834 29.1707C51.2131 29.6774 51.6045 30.2156 51.9541 30.7807C51.6341 34.5065 50.844 38.1765 49.6028 41.7032Z" fill="#FFC652"/>
<path d="M40.316 5.28751C40.3079 5.27071 40.2952 5.25654 40.2794 5.24663C40.2636 5.23671 40.2454 5.23145 40.2267 5.23145C40.2081 5.23145 40.1898 5.23671 40.174 5.24663C40.1583 5.25654 40.1455 5.27071 40.1374 5.28751C38.56 8.58711 38.0838 12.3041 36.9925 15.7826C34.6511 15.6634 32.1411 17.2635 30.4645 18.7642C28.7878 20.2649 26.2282 22.9583 26.8929 25.3634C26.9285 25.496 26.9937 25.6189 27.0837 25.7225C27.1737 25.8261 27.286 25.9078 27.4122 25.9615C27.5385 26.0151 27.6753 26.0393 27.8122 26.0321C27.9491 26.0249 28.0826 25.9865 28.2025 25.92C29.7303 24.8168 30.3553 22.6502 31.5955 21.2289C32.9243 19.7337 34.5362 18.5176 36.3377 17.6511C36.7551 17.5245 37.1361 17.2996 37.4488 16.9951C37.7555 16.5721 38.0308 16.1269 38.2723 15.6634C39.8227 12.4633 40.5265 8.91785 40.316 5.36702V5.28751Z" fill="white"/>
<g style="mix-blend-mode:multiply" opacity="0.45">
<g style="mix-blend-mode:multiply" opacity="0.45">
<path d="M29.0466 38.2638L25.5346 23.8131C25.5346 23.8131 27.3105 18.4364 27.9057 15.8623C25.5812 17.91 23.7294 20.4399 22.479 23.2765C21.1034 26.2307 20.0105 29.3088 19.215 32.4696C19.215 32.4696 20.5543 36.8625 23.1834 38.552C24.0812 39.3537 25.0472 40.0753 26.0703 40.7087L26.9136 41.1857H26.9831C27.2675 41.3448 27.575 41.5038 27.9057 41.6628L28.0248 41.7224L28.5109 41.951H28.6002L29.0169 42.1398L29.2054 42.2194L29.7014 42.4281L29.9098 42.5175L30.1281 42.597C34.027 44.1276 39.8109 45.4991 48.0652 45.4991C48.0652 45.4991 48.7597 43.9884 49.5633 41.633C40.9518 43.0045 32.8067 39.9832 29.0466 38.2638Z" fill="#FFC652"/>
</g>
</g>
<path d="M28.0542 48.1436C28.0542 48.1436 11.1885 50.7376 0.146484 40.2919L8.96626 30.8102L16.4169 22.7995L21.3774 5.17793L21.6651 5.08848C22.8653 4.72715 24.1454 4.72969 25.3441 5.09579C26.5429 5.4619 27.6066 6.17519 28.4014 7.14582L23.4409 24.7674L25.4946 35.1635L28.0542 48.1436Z" fill="#49B3F7"/>
<path d="M28.0542 48.1333C28.0542 48.1333 11.1885 50.7372 0.146484 40.2918L2.54735 37.7177L8.96625 30.7607C10.117 31.7569 11.5569 32.3562 13.0736 32.4702C14.3831 32.4702 15.7423 32.0229 16.9626 32.4702C18.5797 33.0764 19.5122 35.1834 21.2286 35.2033C21.9238 35.1118 22.6083 34.952 23.2723 34.7262C24.03 34.6126 24.8042 34.7412 25.4847 35.094L27.4093 44.8337L28.0542 48.1333Z" fill="#FF6551"/>
<g style="mix-blend-mode:multiply" opacity="0.36">
<path d="M28.0542 48.1339C28.0542 48.1339 11.1885 50.7378 0.146484 40.2923L2.54735 37.7183C2.54735 37.7183 4.59108 41.5744 14.1549 44.0591C18.476 45.2033 22.9792 45.487 27.4093 44.8939L28.0542 48.1339Z" fill="#FF6551"/>
</g>
<path d="M21.8637 16.1702C22.082 14.8384 22.3399 13.5067 22.5979 12.1948C22.9234 10.9809 23.054 9.72285 22.9848 8.46783C22.9848 8.38833 22.8657 8.38833 22.836 8.46783C22.2593 9.56015 21.8607 10.7378 21.6554 11.9563C21.3379 13.2682 21.0303 14.58 20.6633 15.8721C19.9688 18.4163 19.5125 20.9805 18.1533 23.2763C16.7941 25.5721 14.9687 27.1623 13.3218 29.0705C12.4289 30.114 11.6451 31.2669 10.8217 32.3601C9.99821 33.4534 8.83747 34.6162 8.48031 35.9082C8.42072 36.1403 8.42996 36.3848 8.50696 36.6118C8.58396 36.8387 8.72535 37.0382 8.91381 37.1859C9.10228 37.3336 9.32967 37.423 9.56809 37.4431C9.8065 37.4633 10.0456 37.4135 10.2562 37.2996C11.4169 36.6536 12.2404 35.1827 13.0638 34.1491C13.8873 33.1154 14.919 31.9328 15.7226 30.7401C17.2577 28.5582 18.6305 26.2662 19.8299 23.8825C20.8767 21.4239 21.5618 18.826 21.8637 16.1702Z" fill="white"/>
</svg>
