<svg width="40" height="53" viewBox="0 0 40 53" fill="none" xmlns="http://www.w3.org/2000/svg">
<rect width="40" height="53" fill="#E5E5E5"/>
<g id="&#208;&#179;&#208;&#187;&#208;&#176;&#208;&#178;&#208;&#189;&#208;&#176;&#209;&#143; 1920px" clip-path="url(#clip0_318_433)">
<rect width="1920" height="10310" transform="translate(-1390 -9639)" fill="white"/>
<g id="content">
<g id="&#208;&#186;&#208;&#190;&#208;&#189;&#209;&#130;&#208;&#176;&#208;&#186;&#209;&#130;&#209;&#139;">
<g id="&#208;&#186;&#208;&#176;&#209;&#128;&#209;&#130;&#208;&#184;&#208;&#189;&#208;&#186;&#208;&#176;1">
<g id="&#208;&#161;&#208;&#187;&#208;&#190;&#208;&#185; 2">
<g id="&#208;&#161;&#208;&#187;&#208;&#190;&#208;&#185; 9">
<g id="Group">
<g id="Group_2">
<g id="Group_3">
</g>
<g id="Group_4">
<path id="Vector" d="M17.9354 30.6156C16.6523 36.9908 14.1673 43.0624 10.6138 48.505C9.82012 49.8727 8.74461 51.0551 7.4589 51.9736C6.83333 52.488 6.06574 52.7985 5.25901 52.8635C4.45228 52.9284 3.64499 52.7447 2.94544 52.337C2.24589 51.9293 1.68749 51.3171 1.34515 50.5824C1.00281 49.8477 0.892893 49.0258 1.03012 48.2268C1.12189 47.0704 1.42806 45.9413 1.93294 44.8973C2.11151 44.4998 2.30002 44.1022 2.49844 43.7146C5.4201 37.9621 9.30604 32.7549 13.9869 28.3198L17.1616 30.1883L17.9354 30.6156Z" fill="#FFCD69"/>
<path id="Vector_2" d="M17.1623 30.1588C15.7537 34.6834 13.7272 38.9912 11.1403 42.9596C10.3468 44.3301 9.27138 45.5159 7.98541 46.4381C7.33597 46.8894 6.57835 47.1595 5.79031 47.2206C5.00226 47.2818 4.21215 47.1318 3.5011 46.786C2.78337 46.3533 2.23139 45.6919 1.93359 44.9076C2.11217 44.51 2.30068 44.1125 2.4991 43.7249C5.42077 37.9724 9.30672 32.7651 13.9876 28.3301L17.1623 30.1588Z" fill="#FFC652"/>
<path id="Vector_3" d="M21.3092 27.8323C21.1163 28.4127 20.846 28.9644 20.5056 29.4722C20.1683 30.0983 19.8905 30.7642 19.5135 31.4003C19.3263 31.8782 18.9743 32.2732 18.5214 32.5134C17.9945 32.6614 17.4338 32.6334 16.9241 32.4339C15.7582 32.1387 14.6555 31.6335 13.67 30.9431C12.9656 30.4561 11.5866 29.6114 11.5469 28.6473C11.5777 28.1844 11.7319 27.7382 11.9933 27.3553C12.0628 27.236 12.1422 27.1068 12.2017 26.9876C12.4894 26.4608 12.787 25.9241 13.1243 25.4272C13.7163 24.4082 14.5219 23.53 15.4856 22.8531C15.684 22.7239 15.9419 22.9923 15.8526 23.201C15.9637 23.1841 16.0772 23.1952 16.1829 23.2334C16.2886 23.2716 16.3831 23.3356 16.4578 23.4196C17.3393 24.3218 18.3137 25.128 19.3646 25.8248C19.7317 26.0633 20.2477 26.272 20.6544 26.5602C20.8918 26.6659 21.0861 26.8496 21.2052 27.0809C21.3242 27.3122 21.3609 27.5773 21.3092 27.8323Z" fill="#FFCD69"/>
<path id="Vector_4" d="M20.7128 26.6099C20.6136 26.7888 20.5044 26.9578 20.4151 27.1267C20.0778 27.7628 19.8 28.4187 19.423 29.0548C19.2358 29.5327 18.8838 29.9277 18.4309 30.1679C17.904 30.3159 17.3433 30.288 16.8336 30.0884C15.666 29.7981 14.5625 29.2926 13.5796 28.5976C13.0082 28.2408 12.4761 27.8244 11.9922 27.3553C12.0616 27.236 12.141 27.1068 12.2006 26.9876C12.4883 26.4608 12.7859 25.9242 13.1232 25.4272C13.7151 24.4082 14.5207 23.53 15.4844 22.8531C15.6828 22.7239 15.9408 22.9923 15.8515 23.201C15.9625 23.1841 16.076 23.1952 16.1817 23.2334C16.2874 23.2716 16.3819 23.3356 16.4566 23.4196C17.3382 24.3218 18.3125 25.128 19.3635 25.8248C19.8199 26.113 20.306 26.3217 20.7128 26.6099Z" fill="#FFC652"/>
<path id="Vector_5" d="M39.4159 15.9058C39.0928 19.3363 37.5211 22.5278 35.0003 24.8721C32.4795 27.2164 29.1858 28.5497 25.7468 28.618C22.3079 28.6862 18.9641 27.4846 16.3526 25.2421C13.7411 22.9996 12.0445 19.873 11.586 16.458C11.1275 13.0431 11.9393 9.57848 13.8665 6.72447C15.7938 3.87046 18.7018 1.82651 22.0366 0.982114C25.3713 0.137718 28.8996 0.551899 31.9491 2.14573C34.9987 3.73955 37.3563 6.40162 38.5727 9.62466C39.3289 11.6264 39.6173 13.7751 39.4159 15.9058Z" fill="#864FF1"/>
<path id="Vector_6" d="M36.3281 15.4389C36.2991 16.9434 35.9603 18.4258 35.3329 19.7931C34.7056 21.1604 33.8032 22.3833 32.6823 23.3851C31.5614 24.387 30.2461 25.1462 28.8187 25.6153C27.3914 26.0843 25.8828 26.2532 24.3873 26.1112C22.8918 25.9692 21.4417 25.5194 20.1277 24.7901C18.8138 24.0607 17.6643 23.0675 16.7512 21.8725C15.8382 20.6776 15.1812 19.3066 14.8215 17.8456C14.4617 16.3845 14.4069 14.8648 14.6606 13.3816C14.75 12.3908 14.977 11.4173 15.3352 10.4895C16.3142 8.07013 18.1251 6.08159 20.4404 4.88347C22.7557 3.68535 25.4225 3.35674 27.9586 3.95707C30.4947 4.5574 32.7326 6.04703 34.2677 8.15657C35.8027 10.2661 36.5336 12.8563 36.3281 15.4587V15.4389Z" fill="#49B3F7"/>
<path id="Vector_7" d="M22.3411 6.35479C20.6692 7.28209 19.4001 8.79778 18.7795 10.6085C17.9326 12.6644 17.8726 14.9611 18.6109 17.0586H18.6803C19.2259 15.2498 19.216 13.3118 20.0296 11.5725C20.6411 10.1674 21.746 9.03577 23.1348 8.3922C25.9921 7.22939 29.1867 8.3922 31.4387 10.2308C32.0737 10.7576 33.1551 10.0718 32.788 9.23698C31.1411 5.61934 25.6647 4.55591 22.3411 6.35479Z" fill="white"/>
<g id="Vector_8" style="mix-blend-mode:screen" opacity="0.35">
<path d="M38.5708 9.62463C35.8652 14.0199 31.6365 17.2612 26.6942 18.7282C21.7519 20.1952 16.4432 19.7848 11.7841 17.5755C10.998 14.1023 11.5604 10.4596 13.3572 7.38665C15.154 4.31369 18.0507 2.04071 21.4592 1.02897C24.8678 0.0172403 28.5329 0.342562 31.7108 1.93891C34.8887 3.53527 37.3413 6.28306 38.5708 9.62463Z" fill="#49B3F7"/>
</g>
</g>
<g id="Group_5">
<path id="Vector_9" d="M1.38828 14.2454C0.00593424 9.89229 -1.37643 5.53257 -2.75877 1.16622C-3.15561 -0.0860386 -5.12991 0.450647 -4.74299 1.71285C-3.36726 6.07257 -1.9849 10.4323 -0.595946 14.792C-0.17926 16.0443 1.79504 15.5076 1.38828 14.2454Z" fill="#49B3F7"/>
<path id="Vector_10" d="M43.0268 48.2762C37.7277 46.3216 32.7566 43.5702 28.2842 40.1166C27.2921 39.3116 25.794 40.7527 26.8357 41.5577C31.5774 45.2446 36.8577 48.1777 42.491 50.2539C43.7212 50.7111 44.257 48.7334 43.0268 48.2762Z" fill="#49B3F7"/>
</g>
</g>
</g>
</g>
</g>
</g>
</g>
</g>
</g>
<defs>
<clipPath id="clip0_318_433">
<rect width="1920" height="10310" fill="white" transform="translate(-1390 -9639)"/>
</clipPath>
</defs>
</svg>
