<svg width="58" height="50" viewBox="0 0 58 50" fill="none" xmlns="http://www.w3.org/2000/svg">
<g id="Group">
<path id="Vector" d="M0.887225 49.4964L8.93314 36.2181C9.31437 35.4236 9.89141 34.7394 10.6098 34.2303C11.4826 33.8103 12.4538 33.6384 13.4174 33.7334C25.5111 33.8924 51.7224 36.4765 51.7224 36.4765C52.7939 31.03 53.862 25.5868 54.9269 20.147L57.6949 6.09342C39.5923 3.54908 21.4038 1.79983 3.12935 0.845703C2.36874 8.24684 1.80325 15.6513 1.43287 23.059C0.98973 31.8649 0.807857 40.6773 0.887225 49.4964Z" fill="#FFC652"/>
<g id="Group_2" style="mix-blend-mode:multiply">
<g id="Vector_2" style="mix-blend-mode:multiply">
<path d="M0.888306 49.496L8.93422 36.2181C9.31545 35.4236 9.89249 34.7395 10.6109 34.2304C11.4837 33.8104 12.4549 33.6385 13.4185 33.7335C25.5122 33.8925 51.7235 36.4765 51.7235 36.4765C52.795 31.0302 53.8631 25.5872 54.928 20.1475C54.7196 20.4158 44.8582 33.2465 17.5556 30.6923C11.4329 30.2205 5.70254 27.4901 1.47364 23.0296C1.00405 31.8551 0.808938 40.6772 0.888306 49.496Z" fill="#FFC652"/>
</g>
</g>
</g>
</svg>
