<svg width="55" height="67" viewBox="0 0 55 67" fill="none" xmlns="http://www.w3.org/2000/svg">
<g id="Group">
<path id="Vector" opacity="0.62" d="M47.0536 5.28539L46.7957 7.25329L43.2936 33.9391L40.099 58.2098L7.32002 58.2198L6.63548 38.3023L6.62555 38.1433L5.33582 0.733398L47.0536 5.28539Z" fill="#FFBF94"/>
<g id="Vector_2" style="mix-blend-mode:multiply" opacity="0.54">
<path d="M46.8052 7.20361L46.7953 7.25331L43.2932 33.9383L6.63506 38.3014L6.10925 38.361L6.62513 38.1424L14.0956 34.9223L13.5897 34.6539L12.2801 10.4635L46.8052 7.20361Z" fill="#DCBA93"/>
</g>
<path id="Vector_3" d="M14.0955 11.6462L15.8713 63.0698L48.6503 63.0599L54.2458 7.46191L14.0955 11.6462Z" fill="#FFEBDD"/>
<g id="Vector_4" style="mix-blend-mode:multiply" opacity="0.65">
<path d="M1.3371 34.2969L5.73211 36.384L48.3924 43.1124L54.5137 29.4668C49.5532 31.4545 36.4078 32.2397 25.1177 32.7664C12.8752 33.3428 0.00769043 33.2236 0.00769043 33.2236L1.3371 34.2969Z" fill="#8E487A"/>
</g>
<g id="Group_2" opacity="0.48">
<path id="Vector_5" opacity="0.48" d="M48.2644 13.2554L18.7792 15.8791C18.616 15.887 18.4627 15.9595 18.353 16.0807C18.2432 16.2018 18.1859 16.3617 18.1938 16.5251C18.2017 16.6886 18.2741 16.8422 18.395 16.9521C18.516 17.0621 18.6756 17.1194 18.8387 17.1115L48.3239 14.4877C48.4871 14.4732 48.6378 14.3944 48.7429 14.2686C48.848 14.1428 48.8989 13.9803 48.8845 13.8169C48.87 13.6535 48.7913 13.5025 48.6657 13.3972C48.5401 13.2919 48.3779 13.2409 48.2148 13.2554H48.2644Z" fill="#E79E82"/>
<path id="Vector_6" opacity="0.48" d="M47.7581 22.2305L18.2531 24.4965C18.1722 24.5027 18.0934 24.525 18.0211 24.5619C17.9488 24.5988 17.8846 24.6497 17.832 24.7115C17.7795 24.7734 17.7396 24.8451 17.7149 24.9225C17.6901 24.9999 17.6808 25.0814 17.6876 25.1623C17.6978 25.3179 17.7673 25.4635 17.8819 25.569C17.9964 25.6745 18.1471 25.7317 18.3027 25.7288L47.8077 23.4629C47.8891 23.4579 47.9686 23.4366 48.0415 23.4001C48.1144 23.3636 48.1792 23.3127 48.232 23.2505C48.2848 23.1884 48.3246 23.1161 48.3488 23.0382C48.3731 22.9603 48.3814 22.8782 48.3732 22.797C48.3607 22.6423 48.2905 22.4981 48.1764 22.393C48.0624 22.288 47.913 22.23 47.7581 22.2305Z" fill="#E79E82"/>
<path id="Vector_7" opacity="0.48" d="M33.6307 19.8645L47.8475 18.6023C47.9292 18.5961 48.009 18.5736 48.0819 18.536C48.1549 18.4985 48.2196 18.4467 48.2723 18.3837C48.325 18.3208 48.3646 18.2479 48.3887 18.1693C48.4129 18.0908 48.4211 18.0082 48.413 17.9265C48.4068 17.8449 48.3843 17.7654 48.3467 17.6928C48.3091 17.6202 48.2572 17.556 48.1942 17.504C48.1312 17.452 48.0583 17.4133 47.9799 17.3903C47.9016 17.3672 47.8194 17.3603 47.7383 17.3699L33.5711 18.6321C33.4904 18.6354 33.411 18.6546 33.3376 18.6885C33.2643 18.7225 33.1983 18.7706 33.1435 18.8302C33.0886 18.8897 33.0461 18.9595 33.0182 19.0355C32.9903 19.1115 32.9776 19.1922 32.9808 19.2732C32.9841 19.3541 33.0032 19.4336 33.0372 19.5071C33.0711 19.5806 33.1191 19.6467 33.1786 19.7016C33.238 19.7565 33.3076 19.7992 33.3835 19.8271C33.4594 19.8551 33.54 19.8678 33.6208 19.8645H33.6307Z" fill="#E79E82"/>
<path id="Vector_8" opacity="0.48" d="M18.3135 21.2256H18.373L30.9925 20.1025C31.0802 20.0992 31.1661 20.0775 31.2449 20.0388C31.3236 20 31.3933 19.9451 31.4494 19.8776C31.5056 19.8101 31.5469 19.7316 31.5707 19.647C31.5946 19.5625 31.6004 19.4739 31.5878 19.3869C31.5727 19.2251 31.4943 19.0758 31.3698 18.9715C31.2453 18.8673 31.0848 18.8165 30.9231 18.8304L18.3036 19.9534C18.2228 19.9567 18.1434 19.9758 18.0701 20.0098C17.9967 20.0438 17.9307 20.0919 17.8759 20.1515C17.8211 20.211 17.7785 20.2807 17.7506 20.3568C17.7227 20.4328 17.71 20.5135 17.7133 20.5944C17.7165 20.6754 17.7357 20.7549 17.7696 20.8284C17.8035 20.9019 17.8515 20.968 17.911 21.0229C17.9704 21.0778 18.04 21.1204 18.1159 21.1484C18.1918 21.1764 18.2724 21.1891 18.3532 21.1858L18.3135 21.2256Z" fill="#E79E82"/>
<path id="Vector_9" opacity="0.48" d="M47.7484 26.5236L27.9064 28.1436C27.7555 28.1679 27.6188 28.2468 27.522 28.3653C27.4252 28.4839 27.3751 28.6338 27.3812 28.7868C27.3873 28.9398 27.4492 29.0852 27.5551 29.1956C27.661 29.306 27.8037 29.3737 27.9561 29.3859H28.0156L47.8576 27.7659C47.9389 27.761 48.0184 27.7396 48.0914 27.7032C48.1643 27.6667 48.2291 27.6158 48.2819 27.5536C48.3347 27.4914 48.3744 27.4192 48.3987 27.3413C48.423 27.2633 48.4312 27.1813 48.4231 27.1C48.4168 27.0177 48.3944 26.9375 48.357 26.8639C48.3197 26.7903 48.2682 26.7248 48.2055 26.6712C48.1428 26.6177 48.0701 26.577 47.9917 26.5517C47.9132 26.5264 47.8306 26.5168 47.7484 26.5236Z" fill="#E79E82"/>
<path id="Vector_10" opacity="0.48" d="M25.4169 28.5117L18.2639 29.1478C18.113 29.1721 17.9762 29.251 17.8794 29.3695C17.7826 29.488 17.7325 29.638 17.7387 29.791C17.7448 29.944 17.8066 30.0894 17.9126 30.1998C18.0185 30.3102 18.1611 30.3779 18.3135 30.3901H18.373L25.526 29.754C25.6892 29.7395 25.8399 29.6607 25.945 29.5349C26.0501 29.4091 26.1011 29.2466 26.0866 29.0832C26.0721 28.9198 25.9934 28.7688 25.8678 28.6635C25.7423 28.5582 25.58 28.5072 25.4169 28.5217V28.5117Z" fill="#E79E82"/>
</g>
<path id="Vector_11" d="M54.5332 29.4365L52.9756 45.3983L50.912 66.5979L2.67613 66.737L2.45786 64.0138L0.0272217 33.2034C31.5859 40.4885 54.5332 29.4365 54.5332 29.4365Z" fill="#FFC652"/>
<g id="Vector_12" style="mix-blend-mode:multiply">
<path d="M52.9766 45.3984L50.913 66.5974L2.67713 66.7365L2.45886 64.0133C2.45886 64.0133 41.6071 64.1724 52.9766 45.3984Z" fill="#FFC652"/>
</g>
</g>
</svg>
