<svg width="59" height="80" viewBox="0 0 59 80" fill="none" xmlns="http://www.w3.org/2000/svg">
<g id="Group">
<path id="Vector" d="M35.4416 72.9515C34.3972 72.5363 33.3033 72.259 32.1875 72.1266L28.0604 71.1924C27.8817 71.1602 27.6978 71.1723 27.5248 71.2278C27.3519 71.2832 27.1951 71.3802 27.0683 71.5104C26.891 71.437 26.6975 71.4121 26.5074 71.4383C26.3174 71.4645 26.1377 71.5408 25.9869 71.6595C25.528 72.0153 25.1506 72.4656 24.8802 72.9799C24.6098 73.4943 24.4526 74.0607 24.4194 74.6411C24.3459 75.6633 24.6365 76.6785 25.2395 77.5064C25.8425 78.3343 26.719 78.9213 27.7131 79.1631C29.8639 79.7736 32.165 79.5538 34.1618 78.5469C35.7591 77.5133 37.7433 74.1442 35.4416 72.9515Z" fill="#A0A0A0"/>
<path id="Vector_2" d="M38.3879 68.3494C37.118 67.2164 35.3025 67.2164 33.7052 67.1667C31.9017 67.0568 30.1188 66.7229 28.3975 66.1728C28.3975 65.656 28.1593 65.2784 27.6534 65.2485C26.6932 65.0964 25.7096 65.2553 24.8459 65.7023C23.9822 66.1492 23.2835 66.8607 22.8516 67.7332C22.4556 68.5191 22.2849 69.3996 22.3585 70.2769C22.432 71.1541 22.747 71.9938 23.2683 72.7025C25.441 75.5052 30.213 75.5052 33.3877 75.2766C35.1636 75.1474 37.0684 75.0679 38.249 73.5572C39.4296 72.0465 39.9852 69.7706 38.3879 68.3494Z" fill="#B7B7B7"/>
<path id="Vector_3" d="M45.9475 46.0567C47.8722 43.4725 49.2016 40.1629 48.5071 36.903C47.7141 33.9997 46.1264 31.3765 43.9236 29.3295C41.7957 27.1126 39.1446 25.4685 36.215 24.5489C33.647 23.7643 30.9174 23.6747 28.3036 24.2892C25.6899 24.9037 23.285 26.2003 21.3335 28.0474C18.8971 30.4304 17.2902 33.535 16.75 36.903C16.3185 39.9363 16.9458 43.0258 18.5258 45.6492C20.0934 48.4022 22.2561 50.7776 23.655 53.6002C25.0801 56.5035 25.602 59.7687 25.1531 62.9726C25.034 63.7478 25.1531 64.8013 26.1452 64.4932C26.5613 64.2873 26.9303 63.9973 27.2291 63.6416C27.5279 63.2858 27.75 62.8719 27.8813 62.426C27.9001 62.451 27.9167 62.4776 27.931 62.5055C28.8911 63.7852 29.989 64.9551 31.2049 65.994C32.2863 66.9879 33.3379 67.5942 34.578 66.4313C35.8181 65.2685 36.2249 63.2409 36.6118 61.4619C37.2666 58.5299 37.7527 55.2799 39.5881 52.7952C41.4235 50.3105 44.0923 48.5513 45.9475 46.0567Z" fill="#FFC652"/>
<path id="Vector_4" d="M16.6313 25.7319C14.5195 23.6155 12.1728 21.7481 9.63702 20.1664C7.127 18.4172 4.56739 16.7375 1.99785 15.0877C1.00575 14.4517 -0.194697 16.0816 0.777561 16.7872C3.21813 18.5463 5.65869 20.2757 8.15878 21.9553C10.6198 23.7804 13.283 25.3145 16.0956 26.527C16.1987 26.5623 16.3105 26.5626 16.4138 26.5278C16.5171 26.4931 16.6061 26.4253 16.6671 26.3348C16.728 26.2443 16.7576 26.1362 16.7511 26.0273C16.7446 25.9183 16.7026 25.8145 16.6313 25.7319Z" fill="#FFC652"/>
<path id="Vector_5" d="M24.4092 21.8952C22.425 16.1904 18.655 11.1019 14.7759 6.55995C13.7838 5.40708 12.2262 7.11649 13.1687 8.24949C16.9188 12.7417 20.0241 17.6713 23.6353 22.243C23.9131 22.6008 24.5778 22.3921 24.4092 21.8952Z" fill="#FFC652"/>
<path id="Vector_6" d="M32.7844 18.6948C32.9866 17.3493 33.0199 15.9838 32.8836 14.63C32.8836 13.1988 32.7546 11.7577 32.695 10.3167C32.5759 7.43447 32.4965 4.55228 32.4766 1.6701C32.4766 0.189253 30.1937 0.288645 30.1738 1.76949C30.1738 4.75106 30.1738 7.68291 30.3426 10.6347C30.412 12.0758 30.4716 13.5268 30.6602 14.948C30.738 16.3029 31.0019 17.6406 31.4443 18.9234C31.7918 19.5496 32.6851 19.2812 32.7844 18.6948Z" fill="#FFC652"/>
<path id="Vector_7" d="M46.2163 8.67661C44.9266 10.9724 43.6865 13.2881 42.5059 15.6336C41.9503 16.7467 41.4145 17.8598 40.9681 19.0226C40.445 20.0936 40.0807 21.2353 39.8867 22.4117C39.8867 22.8788 40.4621 22.9881 40.7399 22.7297C41.5119 21.8924 42.16 20.9486 42.6646 19.9271C43.3591 18.804 43.9841 17.6511 44.5992 16.4883C45.8029 14.2356 47.0067 11.9795 48.2104 9.72017C48.3135 9.45975 48.3167 9.17027 48.2192 8.90766C48.1218 8.64505 47.9307 8.42793 47.6828 8.29821C47.4349 8.16849 47.1478 8.13536 46.877 8.20525C46.6062 8.27513 46.3708 8.44306 46.2163 8.67661Z" fill="#FFC652"/>
<path id="Vector_8" d="M57.1289 17.0657C55.2836 18.5565 53.5078 20.1069 51.7022 21.6474C50.8093 22.4127 49.956 23.1978 49.083 23.983C48.0903 24.7443 47.1793 25.607 46.3647 26.557C46.2721 26.6651 46.2205 26.8022 46.2188 26.9445C46.2171 27.0869 46.2654 27.2252 46.3553 27.3354C46.4452 27.4456 46.571 27.5206 46.7105 27.5473C46.8501 27.574 46.9946 27.5506 47.1186 27.4813C48.2103 26.8714 49.2374 26.1521 50.1842 25.3346C51.1168 24.6389 52.0692 23.9631 52.9919 23.2376C54.8669 21.7766 56.742 20.3454 58.5675 18.8348C59.5695 18.0198 58.1409 16.2408 57.1289 17.0657Z" fill="#FFC652"/>
<path id="Vector_9" d="M37.2765 45.8179C37.8023 44.6353 40.2528 41.0275 38.1991 40.0536C37.207 39.5964 36.2149 40.5107 35.4113 41.0474C35.0343 41.2859 34.8458 41.5543 34.4192 41.3853C33.9926 41.2164 33.9232 40.8188 33.7843 40.461C33.613 39.9409 33.3728 39.4461 33.07 38.9901C32.9772 38.821 32.8488 38.6741 32.6938 38.5596C32.5387 38.4451 32.3606 38.3657 32.1719 38.3269C31.9832 38.2882 31.7883 38.291 31.6008 38.3351C31.4132 38.3793 31.2375 38.4638 31.0858 38.5827C30.1449 39.4621 29.3273 40.465 28.6551 41.5642C27.7821 40.2225 26.6709 38.4733 25.0736 39.0796C23.2482 39.7753 23.0002 42.0611 23.3276 43.6811C23.9251 46.1709 24.6975 48.6153 25.6392 50.9959C26.4759 53.4963 27.5179 55.9229 28.7543 58.2511C28.8139 58.3604 28.9726 58.2511 28.9428 58.1616C28.0004 54.6334 26.7305 51.2046 25.7483 47.6864C25.1367 46.0051 24.727 44.2569 24.528 42.4786C24.528 41.4847 25.0538 39.5566 26.4328 40.7989C27.0501 41.4961 27.5983 42.2517 28.0698 43.055C28.1244 43.1409 28.1977 43.2134 28.2842 43.2669C28.3707 43.3205 28.4681 43.3538 28.5692 43.3643C28.6704 43.3748 28.7725 43.3622 28.8682 43.3276C28.9638 43.293 29.0504 43.2372 29.1214 43.1643C29.8754 42.2798 30.6393 41.3953 31.3735 40.4909C31.433 40.4014 31.8299 39.8051 31.9191 39.8051C32.0084 39.8051 32.3259 40.4312 32.3755 40.5604C32.5045 40.9438 32.6569 41.3189 32.8319 41.6835C32.9864 42.0281 33.221 42.3307 33.5161 42.5659C33.8113 42.801 34.1584 42.9619 34.5284 43.0351C35.5205 43.0848 36.1653 41.9121 37.0582 41.7034C37.9511 41.4947 37.5443 42.1009 37.3261 42.5978C37.1078 43.0948 36.8102 43.6811 36.5622 44.2278C36.0562 45.3309 35.5701 46.4341 35.1335 47.5472C34.1931 49.7427 33.5266 52.0459 33.1493 54.4048C33.1291 54.4663 33.1336 54.5332 33.1618 54.5913C33.19 54.6495 33.2398 54.6944 33.3005 54.7164C33.3612 54.7384 33.4281 54.7358 33.487 54.7091C33.5458 54.6825 33.592 54.634 33.6156 54.5738C34.9847 51.6817 35.9967 48.6902 37.2765 45.8179Z" fill="white"/>
<path id="Vector_10" d="M39.7272 66.7998C39.7235 66.6346 39.6968 66.4707 39.6479 66.3129C39.7179 66.0686 39.7218 65.81 39.659 65.5637C39.5962 65.3174 39.4691 65.0923 39.2907 64.9115C36.7096 62.6266 33.4171 61.3094 29.9749 61.1846C28.4533 61.2438 26.9413 61.4536 25.4608 61.8107C24.5708 61.9704 23.7518 62.4018 23.1159 63.0458C22.4801 63.6899 22.0586 64.5151 21.9091 65.4085C21.2146 69.036 26.066 69.5031 28.5562 69.8013L33.983 70.4374C35.4069 70.7593 36.9 70.5171 38.1498 69.7615C38.6165 69.4169 39.0003 68.9721 39.2733 68.4596C39.5462 67.9472 39.7013 67.3801 39.7272 66.7998Z" fill="#C6C6C6"/>
</g>
</svg>
