<svg width="36" height="65" viewBox="0 0 36 65" fill="none" xmlns="http://www.w3.org/2000/svg">
<g id="Group">
<g id="Group_2">
<path id="Vector" d="M17.0539 29.2686L11.1013 29.6463L6.75587 29.9146C5.98372 28.6355 5.38643 27.2583 4.98001 25.8199C3.78546 22.3001 2.33646 18.8722 0.644531 15.5633L4.08712 14.3409H4.16649C5.95227 13.6651 7.93647 12.9097 8.92857 11.25C11.0318 15.7919 14.8812 24.7267 17.0539 29.2686Z" fill="#FF6551"/>
<g id="Group_3" style="mix-blend-mode:multiply" opacity="0.36">
<g id="Vector_2" style="mix-blend-mode:multiply" opacity="0.36">
<path d="M5.42645 14.3203C6.85508 17.8286 9.69248 25.3223 11.012 28.8704L11.1409 29.6456L6.79555 29.9139C6.0234 28.6348 5.42611 27.2576 5.01969 25.8192C3.81229 22.2983 2.35002 18.8703 0.644531 15.5626L4.08712 14.3402L5.42645 14.3203Z" fill="#FF6551"/>
</g>
</g>
<path id="Vector_3" d="M8.83961 11.1805C8.83961 11.1805 8.64119 13.357 5.86331 14.8577C4.30551 15.7444 2.47924 16.034 0.724233 15.6727C0.724233 13.198 0.456366 10.7034 0.267867 8.17901C0.119052 6.64847 0 5.11794 0 3.5874C1.34926 4.75021 2.72828 5.83352 4.07753 6.92676C5.7488 8.24748 7.33905 9.66796 8.83961 11.1805Z" fill="#FFC652"/>
<path id="Vector_4" d="M4.07841 6.94665C3.69674 7.58395 3.09662 8.06043 2.39001 8.28719C1.6834 8.51395 0.918552 8.4755 0.238155 8.17903C0.119078 6.64848 0 5.11795 0 3.5874C1.34955 4.7701 2.72886 5.85341 4.07841 6.94665Z" fill="#FF6551"/>
</g>
<g id="Group_4">
<path id="Vector_5" d="M22.2915 35.4909L18.7795 33.1951L16.1901 31.5055C16.1793 30.0167 16.3022 28.5298 16.5572 27.063C17.0632 23.3857 17.4005 19.6588 17.5493 15.9517L19.9402 16.379H19.9998C21.2498 16.6076 22.6288 16.7965 23.7499 15.7529C23.4225 20.7719 22.609 30.4719 22.2915 35.4909Z" fill="#864FF1"/>
<g id="Group_5" style="mix-blend-mode:multiply" opacity="0.36">
<g id="Vector_6" style="mix-blend-mode:multiply" opacity="0.36">
<path d="M20.7151 16.9649C20.338 20.7316 19.4151 28.6825 18.9686 32.4492L18.78 33.1946L16.1901 31.505C16.1793 30.0161 16.3022 28.5293 16.5573 27.0625C17.0633 23.3852 17.4007 19.6583 17.5496 15.9512L19.941 16.3785L20.7151 16.9649Z" fill="#2D7F75"/>
</g>
</g>
<path id="Vector_7" d="M23.7319 15.6729C23.454 16.2371 23.0326 16.7179 22.51 17.0669C21.9875 17.4159 21.3823 17.6207 20.7556 17.6606C20.1334 17.6803 19.5156 17.5497 18.9544 17.2798C18.3932 17.01 17.9051 16.6088 17.5312 16.1102C18.3547 13.874 19.069 11.5285 19.8131 9.21281C20.2694 7.7916 20.7357 6.38031 21.2417 5.00879C21.6187 6.64865 22.0453 8.22888 22.4421 9.80911C22.9382 11.6875 23.4045 13.6156 23.7319 15.6729Z" fill="#FFC652"/>
<path id="Vector_8" d="M22.4429 9.76958C22.2532 9.96186 22.0177 10.1026 21.7587 10.1784C21.4996 10.2543 21.2255 10.2627 20.9622 10.2031C20.699 10.1434 20.4553 10.0175 20.2541 9.83732C20.0529 9.65714 19.901 9.42859 19.8125 9.17325C20.2691 7.75204 20.7356 6.34076 21.2418 4.96924C21.619 6.56935 22.0458 8.18934 22.4429 9.76958Z" fill="#864FF1"/>
</g>
<g id="Group_6">
<path id="Vector_9" d="M30.9337 35.7191L26.2609 32.4096L22.8184 29.9249C22.9867 28.2341 23.3428 26.5674 23.8799 24.9557C25.0428 20.8517 25.9506 16.6794 26.5983 12.4629L29.9119 13.4567H29.9912C31.7274 13.9736 33.6422 14.4506 35.3486 13.5064C34.297 19.1515 31.9854 30.0641 30.9337 35.7191Z" fill="#C6C6C6"/>
<path id="Vector_10" d="M30.9437 14.2419C29.9516 18.4757 27.6995 27.3608 26.6181 31.5648L26.2609 32.3798L22.8184 29.925C22.9867 28.2341 23.3428 26.5674 23.8799 24.9557C25.0428 20.8517 25.9506 16.6794 26.5983 12.4629L29.9119 13.4567L30.9437 14.2419Z" fill="#B7B7B7"/>
<path id="Vector_11" d="M35.3483 13.3868C34.8104 14.0103 34.1228 14.4862 33.3503 14.7697C32.5779 15.0531 31.7461 15.1347 30.9334 15.0068C30.0753 14.9215 29.2445 14.6572 28.4944 14.231C27.7443 13.8048 27.0916 13.2261 26.5781 12.5321C28.0067 10.1468 29.3064 7.61247 30.6259 5.11789C31.4394 3.58735 32.2629 2.07669 33.1359 0.615723C33.4732 2.60344 33.8701 4.45201 34.2471 6.35028C34.7414 8.67402 35.109 11.023 35.3483 13.3868Z" fill="#FFC652"/>
<path id="Vector_12" d="M34.2489 6.38982C33.935 6.57004 33.5864 6.68129 33.2263 6.71622C32.8662 6.75114 32.5028 6.70891 32.1602 6.59235C31.8176 6.47579 31.5037 6.28756 31.2394 6.04016C30.975 5.79276 30.7663 5.49186 30.627 5.15743C31.4407 3.6269 32.2643 2.11624 33.1375 0.655273C33.4749 2.59329 33.8718 4.49156 34.2489 6.38982Z" fill="#C6C6C6"/>
</g>
<path id="Vector_13" d="M31.1811 63.9859C25.8833 64.8705 10.347 64.6121 8.93822 64.6519C8.25367 64.6519 6.81513 63.0418 5.43611 58.1816C3.87851 52.7451 2.37052 43.2733 2.0332 27.5302C2.0332 27.5302 13.8491 29.4484 31.7962 27.5302L33.6812 27.3115C33.6812 27.3115 36.4789 63.1014 31.1811 63.9859Z" fill="#FFC652"/>
<g id="Group_7" style="mix-blend-mode:multiply">
<g id="Vector_14" style="mix-blend-mode:multiply">
<path d="M31.1805 63.9855C25.8827 64.87 10.3464 64.6116 8.93766 64.6514C8.25311 64.6514 6.81457 63.0413 5.43555 58.1812C9.03687 58.1812 13.6898 57.8134 15.922 57.1376C21.706 55.3883 25.7141 51.1743 28.2638 45.7973C30.9127 40.2216 32.8969 33.7514 31.8353 27.5297L33.7203 27.311C33.7203 27.311 36.4784 63.1009 31.1805 63.9855Z" fill="#FFC652"/>
</g>
</g>
</g>
</svg>
