<svg width="78" height="80" viewBox="0 0 78 80" fill="none" xmlns="http://www.w3.org/2000/svg">
<g id="Group">
<path id="Vector" d="M48.6483 68.8639C52.7755 70.7423 57.3292 71.0604 60.6726 67.6911C60.7555 67.6712 60.8332 67.6339 60.9008 67.5818C65.4347 64.292 64.1945 57.8517 62.7659 53.25C60.9816 47.6344 58.5406 42.2499 55.4938 37.2086C49.3323 26.9336 41.1506 18.0202 31.4453 11.0098C27.3678 8.0878 21.8815 6.0404 17.288 9.19102C12.4764 12.451 13.4585 18.136 15.3038 22.8172C19.8873 34.6345 27.0106 45.3585 34.6696 55.3769C38.6281 60.5351 42.5965 66.1506 48.6483 68.8639ZM38.6281 56.003C32.0703 47.2469 25.8399 38.1131 21.0481 28.2339C19.8377 25.8485 18.7861 23.4135 17.794 20.9686C16.9309 18.9112 16.0678 16.6054 16.415 14.3393C16.6965 12.9479 17.4461 11.6953 18.5385 10.7909C19.631 9.88643 21.0001 9.38485 22.4172 9.36992C25.1356 9.24071 27.6654 10.5328 29.8282 12.0534C38.2531 18.0656 45.5514 25.5217 51.3865 34.0779C54.6685 38.8907 57.3787 44.0708 59.4622 49.513C61.6051 55.1185 63.6886 61.2806 60.1567 66.7867V66.896C56.8331 68.8838 52.835 68.2378 49.4916 66.5879C44.7692 64.2821 41.6044 60.0879 38.6281 56.003Z" fill="#864FF1"/>
<path id="Vector_2" d="M13.2114 53.8356C16.5854 54.631 20.0339 55.0674 23.4994 55.1375C29.3826 55.1375 35.0276 53.4182 40.4544 51.2416C42.9843 50.9037 45.5241 50.6055 48.0638 50.2478C53.9371 49.5123 59.969 48.6973 65.5149 46.5606C68.3979 45.5435 71.0832 44.0337 73.4517 42.0981C75.4359 40.3291 77.5391 37.6258 77.4895 34.8032C77.4399 31.9807 75.0093 29.4265 72.787 27.8463C70.2106 26.0807 67.2769 24.9065 64.1954 24.4075C57.7666 23.2646 50.8913 24.1789 44.4823 25.1032C38.0193 26.0491 31.6285 27.4372 25.3547 29.2575C19.0449 31.0763 12.4574 33.0938 6.88176 36.6916C4.57016 38.1923 1.70299 40.2794 0.671209 42.9628C-0.360575 45.6462 1.06805 48.4588 3.18122 50.208C5.96902 52.5038 9.78861 53.0902 13.2114 53.8356ZM3.43917 45.9642C2.38754 43.1914 6.24681 40.826 8.18141 39.5738C13.003 36.453 18.7572 34.7337 24.1741 32.9845C35.0872 29.4762 46.6947 26.8922 58.1733 26.6834C63.7688 26.5841 71.2691 27.7667 74.295 33.1932C75.9022 36.0654 72.9259 39.1563 70.7532 40.7962C68.54 42.3395 66.1179 43.5577 63.5604 44.4138C57.9314 46.3078 52.1291 47.6394 46.2384 48.3892L45.6828 48.4688C45.6486 48.4528 45.6114 48.4445 45.5737 48.4445C45.5359 48.4445 45.4987 48.4528 45.4645 48.4688C42.4882 48.9259 39.6111 49.3135 36.7142 50.039H36.5952C35.7419 50.2378 34.9086 50.4664 34.0752 50.7248C32.0596 51.3488 30.009 51.8532 27.9341 52.2355C22.3784 53.1001 16.773 52.2355 11.3859 50.7546C8.66754 49.9894 4.57016 48.9359 3.43917 45.9642Z" fill="#FF6551"/>
<path id="Vector_3" d="M41.0114 74.519C42.7674 71.5374 43.6107 67.86 44.3846 64.5007C44.8215 62.5028 45.087 60.4712 45.1782 58.428C47.3615 52.8727 49.1517 47.1702 50.5356 41.363C52.1183 35.3344 53.0201 29.1468 53.2242 22.9165C53.4027 17.1917 53.1646 10.8607 51.24 5.42413C50.4165 3.13819 48.7696 1.00133 46.2299 0.613719C43.6901 0.226104 41.8051 2.11449 40.1979 3.71464C35.3862 8.4356 33.3028 14.4685 31.8841 20.9188C30.4654 27.3691 29.0169 34.0281 27.7867 40.6275C26.5927 46.4555 25.8464 52.3665 25.5545 58.3088C25.4376 61.2939 25.5404 64.2837 25.8621 67.2537C26.1795 70.0366 26.5268 73.1475 27.8463 75.6719C30.8424 81.6054 38.1939 79.3692 41.0114 74.519ZM29.8801 72.9288C28.501 68.0588 28.511 62.503 28.8086 57.4938C29.1451 52.4932 29.7645 47.5158 30.6638 42.5855C31.6559 37.0794 32.648 31.5732 33.5806 26.0671C34.5132 20.561 35.3366 14.4685 38.3327 9.49906C39.7217 7.19324 41.7654 4.4203 44.1961 3.12825C47.3906 1.43864 49.0276 5.6726 49.5832 8.01817C50.7322 13.0644 51.1961 18.2429 50.9622 23.4135C50.6204 29.4447 49.7338 35.4325 48.3133 41.3034C47.3807 45.5473 46.0215 49.6818 44.8409 53.8462C44.8022 53.8666 44.7682 53.8948 44.7408 53.929C44.7135 53.9632 44.6936 54.0027 44.6822 54.045C44.5631 54.6314 44.4342 55.2178 44.3052 55.8042C43.9381 57.1956 43.6008 58.587 43.3131 59.9984C42.454 63.4394 41.377 66.8222 40.0888 70.1261C39.0967 72.5213 37.7871 75.2247 35.2176 76.159C32.4397 77.2125 30.6142 75.5427 29.8801 72.9288Z" fill="#FFC652"/>
<path id="Vector_4" d="M36.7942 42.8932C37.6227 43.5939 38.688 43.9496 39.7705 43.8871C42.5186 43.6982 45.3957 40.7366 44.5822 37.9239C43.7686 35.1113 40.4054 32.9547 37.6375 34.6144C35.1374 36.0853 33.8774 40.2496 36.1692 42.4361C36.3591 42.6122 36.5689 42.7656 36.7942 42.8932Z" fill="#49B3F7"/>
<path id="Vector_5" d="M58.2812 70.6425C58.6857 71.0186 59.174 71.2924 59.7055 71.441C60.2371 71.5897 60.7964 71.609 61.3368 71.4972C62.1249 71.3409 62.8274 70.8981 63.3091 70.2541C63.7908 69.6101 64.0177 68.8103 63.9461 68.0087C63.8567 67.1977 63.4949 66.4411 62.9198 65.8632C62.3447 65.2853 61.5906 64.9204 60.7813 64.8284C59.9622 64.6516 59.1067 64.7922 58.387 65.2218C57.6673 65.6515 57.1367 66.3383 56.9022 67.1441C56.7461 67.7985 56.7946 68.4852 57.0413 69.111C57.288 69.7368 57.7209 70.2715 58.2812 70.6425Z" fill="#FFC652"/>
<path id="Vector_6" d="M61.2988 19.7561C61.737 19.9812 62.2253 20.0906 62.7175 20.0741C63.0907 20.0394 63.4516 19.9224 63.7744 19.7315C64.0971 19.5406 64.3737 19.2805 64.5842 18.9698C64.7948 18.6591 64.9341 18.3056 64.9921 17.9347C65.0501 17.5637 65.0255 17.1845 64.9199 16.8242C64.7528 16.1318 64.3187 15.5338 63.7126 15.1613C63.1064 14.7887 62.3776 14.672 61.6857 14.8365C61.324 14.902 60.9789 15.039 60.6706 15.2396C60.3623 15.4401 60.097 15.7002 59.8901 16.0046C59.6832 16.309 59.539 16.6516 59.4657 17.0124C59.3924 17.3733 59.3916 17.7451 59.4634 18.1063C59.5888 18.5235 59.8264 18.898 60.1501 19.189C60.4739 19.48 60.8712 19.6762 61.2988 19.7561Z" fill="#FF6551"/>
<path id="Vector_7" d="M16.8029 56.8079C18.2811 57.3744 21.1582 57.3048 21.4459 55.2674C21.4508 55.2245 21.4508 55.1811 21.4459 55.1382C21.6175 54.8301 21.7318 54.4934 21.7832 54.1444C21.8312 53.7704 21.8022 53.3905 21.6982 53.0282C21.5941 52.6658 21.4171 52.3286 21.178 52.0374C20.8207 51.4166 20.2598 50.939 19.5907 50.6857C18.6736 50.3873 17.6795 50.4335 16.794 50.8158C15.9085 51.198 15.1922 51.8902 14.779 52.7629C14.5255 53.5684 14.5951 54.4411 14.9728 55.1962C15.3506 55.9512 16.007 56.5293 16.8029 56.8079Z" fill="#864FF1"/>
</g>
</svg>
