<svg width="67" height="43" viewBox="0 0 67 43" fill="none" xmlns="http://www.w3.org/2000/svg">
<g id="Group">
<path id="Vector" d="M66.0939 29.6135C63.5822 25.8099 58.8481 25.3709 55.4066 22.8183C51.2225 19.715 49.6215 14.2701 47.8739 9.60596C47.3917 8.31906 46.9095 7.03215 46.4272 5.74524C45.9482 4.46688 45.5942 2.87466 44.7436 1.78397C43.2612 -0.11697 40.6617 0.806678 38.7471 1.31916C32.8081 2.90892 26.8962 4.59594 21.0116 6.38022C14.383 8.39001 7.79323 10.5219 1.24227 12.7758C0.950175 12.8837 0.712183 13.1022 0.579644 13.3841C0.447104 13.6659 0.430648 13.9886 0.533811 14.2825C4.50448 23.4849 8.47512 32.6874 12.4458 41.8898C12.5074 42.0352 12.597 42.1669 12.7096 42.2775C12.8221 42.3881 12.9554 42.4755 13.1018 42.5345C13.2481 42.5936 13.4047 42.6232 13.5624 42.6216C13.7202 42.6201 13.8762 42.5874 14.0213 42.5255C14.1609 42.5999 14.3152 42.6427 14.4731 42.6507C14.6311 42.6587 14.7889 42.6318 14.9353 42.5719L40.3032 33.2574C42.3149 32.5187 44.3249 31.6622 46.502 31.6446C48.5287 31.6283 50.5661 31.9734 52.5924 32.0693C56.812 32.2643 61.0406 32.0626 65.2225 31.4669C65.4279 31.4467 65.6246 31.3736 65.7932 31.2545C65.9619 31.1355 66.0967 30.9747 66.1846 30.7879C66.2724 30.601 66.3103 30.3945 66.2944 30.1887C66.2785 29.9828 66.2094 29.7846 66.0939 29.6135ZM45.8873 29.3079C43.8393 29.5301 41.8366 30.0601 39.9467 30.8799L14.315 40.2914C10.6183 31.724 6.92159 23.1565 3.22494 14.5891C13.8789 10.9541 24.6337 7.63656 35.4892 4.63643C36.8397 4.26411 38.1915 3.89684 39.5447 3.53461C40.4016 3.30523 42.1774 2.50002 42.9344 3.27823C43.2326 3.75472 43.4474 4.27859 43.5696 4.82731C43.8108 5.47076 44.0519 6.1142 44.293 6.75765C44.802 8.11605 45.311 9.47448 45.82 10.8329C47.4995 15.3149 49.1066 20.1262 52.6248 23.5429C54.3731 25.0842 56.3849 26.2975 58.5637 27.1245C60.0486 27.694 61.4507 28.4599 62.7325 29.4017C59.306 29.7782 55.8552 29.885 52.412 29.7209C50.2482 29.6135 48.0564 29.1983 45.8873 29.3079V29.3079Z" fill="#49B3F7"/>
<path id="Vector_2" d="M35.7166 11.257C28.6408 13.2882 21.565 15.3193 14.4892 17.3505C13.0324 17.7686 13.8359 19.9824 15.2868 19.5659C22.3626 17.5347 29.4384 15.5036 36.5142 13.4724C37.971 13.0542 37.1675 10.8405 35.7166 11.257Z" fill="#49B3F7"/>
<path id="Vector_3" d="M39.79 15.6983C30.5603 18.5649 21.3305 21.4316 12.1008 24.2981C10.653 24.7478 11.4538 26.9622 12.8984 26.5136C22.1281 23.6469 31.3579 20.7803 40.5876 17.9138C42.0354 17.4641 41.2346 15.2497 39.79 15.6983Z" fill="#49B3F7"/>
<path id="Vector_4" d="M41.2992 22.5734C32.7733 23.9573 24.4137 26.2219 16.3546 29.3308C14.9435 29.8761 15.736 32.0935 17.1522 31.5462C25.0107 28.5028 33.1634 26.2827 41.4796 24.9218C42.9662 24.6795 42.7947 22.3296 41.2992 22.5734Z" fill="#49B3F7"/>
</g>
</svg>
