<svg width="34" height="31" viewBox="0 0 34 31" fill="none" xmlns="http://www.w3.org/2000/svg">
<path id="Vector" d="M21.7484 30.286C21.6298 30.2873 21.5123 30.2642 21.403 30.218C21.2938 30.1719 21.1952 30.1036 21.1134 30.0176C18.3653 27.0361 15.4585 24.2235 12.4425 21.55C10.9543 21.9276 9.77372 22.2656 8.53359 22.6333C6.69821 23.16 4.81322 23.7066 1.58889 24.4818C1.4018 24.5324 1.20331 24.5199 1.02402 24.4462C0.844736 24.3726 0.694614 24.2419 0.596792 24.0744C0.512724 23.9164 0.479071 23.7364 0.500361 23.5587C0.521651 23.381 0.596853 23.2141 0.715839 23.0805C4.48582 19.1051 6.37083 16.7 8.55345 13.9668L9.30743 13.0227C8.8213 11.5518 7.20418 6.80115 6.05334 4.07798C5.98284 3.90923 5.96693 3.72256 6.00787 3.54428C6.0488 3.36599 6.14452 3.20507 6.28154 3.08413C6.41562 2.96544 6.58353 2.89199 6.76157 2.87415C6.93961 2.85632 7.11875 2.895 7.27364 2.98473C10.1575 4.6647 13.1896 6.0753 16.3315 7.19869L23.2762 0.947326C23.4114 0.821811 23.5831 0.74294 23.7662 0.722246C23.9494 0.701552 24.1343 0.74013 24.294 0.832329C24.4537 0.924528 24.5797 1.0655 24.6536 1.23463C24.7275 1.40375 24.7455 1.59215 24.7048 1.77223L22.7206 10.9257C26.0855 11.7004 29.3755 12.7713 32.5524 14.1259C32.7151 14.1934 32.8534 14.3091 32.9485 14.4576C33.0437 14.6061 33.0913 14.7802 33.0848 14.9566C33.0783 15.1329 33.0181 15.3031 32.9123 15.4442C32.8065 15.5853 32.6601 15.6905 32.4928 15.7458C28.9609 16.9385 25.3398 17.992 21.7186 18.8964L22.5718 29.3816C22.5876 29.5605 22.5473 29.7399 22.4567 29.8948C22.366 30.0498 22.2294 30.1726 22.0659 30.2462C21.9632 30.2783 21.8557 30.2918 21.7484 30.286ZM12.6806 19.7312C12.8901 19.7284 13.0927 19.8067 13.2461 19.9499C15.8057 22.2059 18.3058 24.5812 20.6868 27.046L19.9626 18.2702C19.9474 18.0637 20.0058 17.8584 20.1275 17.6909C20.2492 17.5235 20.4264 17.4048 20.6273 17.3559C23.673 16.6204 26.7188 15.7657 29.7249 14.8116C27.0602 13.8041 24.3244 12.9968 21.54 12.3966C21.3177 12.3428 21.1232 12.2082 20.9944 12.0189C20.8718 11.8238 20.8291 11.5888 20.8753 11.363L22.4924 4.0084L17.1748 8.7988C17.0593 8.90187 16.9182 8.97194 16.7663 9.00166C16.6145 9.03139 16.4574 9.01967 16.3117 8.96775C13.6627 8.04841 11.086 6.93218 8.60305 5.6284C9.82333 8.85843 11.0932 12.6947 11.1627 12.9034C11.2053 13.0412 11.214 13.1873 11.1881 13.3292C11.1622 13.4711 11.1024 13.6046 11.0138 13.7184L9.96222 15.0203C8.17644 17.2565 6.57916 19.2542 4.00962 22.0966C5.62674 21.6692 6.84703 21.3114 8.04747 20.9636C9.42649 20.566 10.7262 20.1884 12.4623 19.7511L12.6806 19.7312Z" fill="#49B3F7"/>
</svg>
