<svg width="30" height="27" viewBox="0 0 30 27" fill="none" xmlns="http://www.w3.org/2000/svg">
<path id="Vector" d="M15.9522 26.8303C15.8571 26.7944 15.7708 26.7386 15.6989 26.6666C15.6271 26.5947 15.5714 26.5082 15.5355 26.4129C14.2557 23.1829 12.8072 19.9727 11.2298 16.8818C9.91031 16.7129 8.8587 16.6234 7.74755 16.5141C6.11059 16.365 4.42402 16.2159 1.60645 15.8283C1.44735 15.8066 1.29954 15.7338 1.1851 15.621C1.07066 15.5081 0.995714 15.3612 0.971496 15.2022C0.944155 15.0436 0.970268 14.8803 1.0457 14.7382C1.12114 14.596 1.24163 14.4831 1.38819 14.417C5.67406 12.3697 7.92614 11.0678 10.5453 9.56704L11.4382 9.04028C11.5076 7.70852 11.706 3.37532 11.6366 0.821106C11.633 0.664608 11.6787 0.510953 11.7671 0.381927C11.8556 0.2529 11.9824 0.155042 12.1295 0.102253C12.2766 0.0494639 12.4366 0.0444163 12.5867 0.0878159C12.7369 0.131215 12.8696 0.220859 12.966 0.344044C14.7585 2.59678 16.7508 4.68245 18.9186 6.57552L26.4486 3.7331C26.5964 3.67637 26.7583 3.6683 26.911 3.71008C27.0636 3.75185 27.199 3.84129 27.2975 3.96539C27.3959 4.0895 27.4523 4.24181 27.4584 4.40021C27.4645 4.5586 27.4201 4.71485 27.3316 4.84622L22.8572 11.5647C25.3169 13.2506 27.6241 15.1495 29.7523 17.2396C29.8627 17.3455 29.9379 17.4829 29.9676 17.6332C29.9973 17.7834 29.9801 17.9392 29.9183 18.0793C29.8565 18.2194 29.7532 18.337 29.6223 18.4162C29.4914 18.4953 29.3393 18.5322 29.1868 18.5217C25.9724 18.3627 22.7382 18.0744 19.5436 17.657L16.9443 26.3533C16.9003 26.5022 16.8104 26.6334 16.6875 26.7281C16.5645 26.8227 16.4148 26.8759 16.2597 26.88C16.1547 26.8889 16.0491 26.8718 15.9522 26.8303ZM11.9838 15.4904C12.1525 15.5616 12.2923 15.6876 12.3806 15.8482C13.7299 18.472 14.98 21.1653 16.1209 23.8984L18.3035 16.6135C18.3541 16.4436 18.4643 16.2977 18.6138 16.2027C18.7633 16.1077 18.942 16.0701 19.117 16.0967C21.7957 16.4545 24.514 16.7327 27.2225 16.9116C25.3999 15.2611 23.4565 13.7495 21.4087 12.3896C21.3277 12.3365 21.2579 12.268 21.2034 12.1878C21.149 12.1076 21.1108 12.0175 21.0913 11.9225C21.0514 11.7266 21.0906 11.5229 21.2004 11.356L24.8017 5.94941L19.0277 8.12594C18.9036 8.17394 18.7689 8.18729 18.6378 8.16453C18.5068 8.14178 18.3843 8.08378 18.2836 7.99675C16.4438 6.42362 14.7227 4.71614 13.1346 2.88833C13.1346 5.86989 12.9164 9.34838 12.9064 9.52728C12.9031 9.65157 12.8675 9.77284 12.8031 9.87915C12.7388 9.98546 12.6479 10.0731 12.5394 10.1335L11.2894 10.859C9.14642 12.0914 7.24156 13.1946 4.2851 14.6655C5.71373 14.8345 6.80504 14.9339 7.88643 15.0332C9.11663 15.1426 10.2774 15.2519 11.8548 15.4507L11.9838 15.4904Z" fill="#49B3F7"/>
</svg>
