<svg width="63" height="43" viewBox="0 0 63 43" fill="none" xmlns="http://www.w3.org/2000/svg">
<g id="Group">
<path id="Vector" d="M56.0597 19.4243L61.3377 21.5114C61.4269 21.5508 61.5265 21.5598 61.6213 21.5372C61.7161 21.5145 61.801 21.4614 61.8628 21.3859C61.9247 21.3105 61.9601 21.2168 61.9638 21.1192C61.9676 21.0216 61.9393 20.9255 61.8834 20.8455L58.9964 16.3831C58.9385 16.2991 58.9118 16.1975 58.9208 16.0959C58.9299 15.9942 58.9742 15.899 59.0459 15.8266L61.9528 12.7257C62.0267 12.6551 62.0741 12.5613 62.0872 12.4599C62.1004 12.3585 62.0785 12.2556 62.0251 12.1684C61.9717 12.0813 61.8901 12.0151 61.7939 11.9808C61.6977 11.9466 61.5927 11.9464 61.4964 11.9803L57.3098 13.2028C57.2174 13.2303 57.1187 13.2278 57.0278 13.1957C56.9369 13.1636 56.8585 13.1034 56.8038 13.0239L54.7204 9.81374C54.6703 9.73977 54.5996 9.68213 54.5172 9.64797C54.4347 9.61381 54.344 9.60462 54.2564 9.62155C54.1688 9.63847 54.088 9.68076 54.0241 9.74318C53.9603 9.80561 53.9161 9.88542 53.897 9.97275L53.0735 14.1966C53.0593 14.2789 53.0218 14.3554 52.9656 14.4171C52.9093 14.4787 52.8366 14.5229 52.756 14.5445L48.8373 15.6974C48.7474 15.7283 48.6694 15.7866 48.6142 15.8641C48.559 15.9416 48.5293 16.0345 48.5293 16.1297C48.5293 16.2249 48.559 16.3177 48.6142 16.3953C48.6694 16.4728 48.7474 16.5311 48.8373 16.562L52.0219 17.8143C52.1194 17.8538 52.2003 17.9258 52.2509 18.0181C52.3016 18.1105 52.3188 18.2175 52.2997 18.3211L51.4266 22.7537C51.4107 22.8494 51.4255 22.9477 51.469 23.0343C51.5125 23.121 51.5824 23.1916 51.6685 23.2358C51.7547 23.2801 51.8526 23.2958 51.9483 23.2806C52.0439 23.2654 52.1322 23.2201 52.2005 23.1513L55.5935 19.5337C55.6541 19.4749 55.7294 19.4337 55.8115 19.4144C55.8936 19.3952 55.9794 19.3986 56.0597 19.4243Z" fill="#864FF1"/>
<path id="Vector_2" d="M22.7247 10.3999L28.0026 12.487C28.0926 12.5214 28.1911 12.5264 28.284 12.5013C28.377 12.4762 28.4596 12.4224 28.5202 12.3474C28.5807 12.2724 28.616 12.1802 28.6211 12.0839C28.6261 11.9875 28.6007 11.8921 28.5483 11.8112L25.701 7.35871C25.6414 7.27821 25.6092 7.18065 25.6092 7.08043C25.6092 6.98021 25.6414 6.88265 25.701 6.80215L28.6773 3.69138C28.742 3.61802 28.7815 3.52578 28.79 3.42823C28.7985 3.33068 28.7755 3.23298 28.7244 3.14951C28.6733 3.06605 28.5968 3.00122 28.5061 2.96458C28.4155 2.92794 28.3155 2.92142 28.2209 2.94598L24.0342 4.17837C23.9409 4.20656 23.8409 4.20336 23.7495 4.16926C23.6582 4.13517 23.5804 4.07204 23.5283 3.98954L21.4448 0.789318C21.3947 0.715344 21.3241 0.657716 21.2416 0.623557C21.1591 0.589398 21.0685 0.58021 20.9809 0.597132C20.8932 0.614054 20.8125 0.656341 20.7486 0.718763C20.6847 0.781185 20.6405 0.861005 20.6214 0.948339L19.7484 5.17223C19.732 5.25362 19.6938 5.32901 19.6378 5.39029C19.5819 5.45158 19.5103 5.49644 19.4309 5.52008L15.5121 6.67294C15.4209 6.70112 15.3412 6.75783 15.2845 6.83474C15.2278 6.91165 15.1973 7.00472 15.1973 7.1003C15.1973 7.19589 15.2278 7.28896 15.2845 7.36587C15.3412 7.44278 15.4209 7.49948 15.5121 7.52766L18.6967 8.78986C18.7967 8.826 18.8801 8.89742 18.9312 8.99073C18.9823 9.08405 18.9977 9.19284 18.9745 9.29672L18.1114 13.7293C18.0955 13.825 18.1103 13.9233 18.1538 14.0099C18.1973 14.0966 18.2671 14.1671 18.3533 14.2114C18.4394 14.2557 18.5374 14.2713 18.633 14.2561C18.7287 14.2409 18.817 14.1957 18.8852 14.1269L22.2484 10.4794C22.3119 10.4218 22.3905 10.3837 22.4749 10.3696C22.5593 10.3555 22.646 10.366 22.7247 10.3999Z" fill="#FFC652"/>
<path id="Vector_3" d="M5.49218 36.7084L5.85925 42.3833C5.86599 42.4798 5.90309 42.5716 5.96522 42.6456C6.02735 42.7196 6.11132 42.772 6.20504 42.7952C6.29876 42.8184 6.3974 42.8112 6.48679 42.7747C6.57618 42.7382 6.65173 42.6742 6.70254 42.592L9.49034 38.07C9.54156 37.9836 9.62029 37.917 9.71387 37.881C9.80746 37.8449 9.91044 37.8415 10.0062 37.8712L14.054 39.1831C14.1491 39.2145 14.2518 39.2137 14.3464 39.1808C14.4409 39.148 14.5221 39.0849 14.5774 39.0013C14.6326 38.9177 14.6589 38.8182 14.6522 38.7181C14.6454 38.6181 14.6061 38.523 14.5401 38.4476L11.6333 35.1878C11.5753 35.1104 11.544 35.0162 11.544 34.9194C11.544 34.8227 11.5753 34.7285 11.6333 34.6511L13.6175 31.3912C13.6623 31.3142 13.6836 31.2258 13.6789 31.1368C13.6741 31.0478 13.6435 30.9621 13.5908 30.8903C13.5381 30.8185 13.4656 30.7636 13.3822 30.7326C13.2988 30.7015 13.2082 30.6956 13.1214 30.7154L8.9546 31.7788C8.873 31.7969 8.78815 31.7936 8.70821 31.7692C8.62827 31.7448 8.55596 31.7002 8.49824 31.6397L5.7898 28.5786C5.72615 28.5082 5.64219 28.4593 5.54955 28.4389C5.45692 28.4185 5.36021 28.4275 5.27292 28.4646C5.18562 28.5018 5.11207 28.5653 5.06247 28.6463C5.01286 28.7273 4.98967 28.8217 4.99613 28.9165L5.22429 32.3354C5.23164 32.442 5.2007 32.5477 5.13701 32.6333C5.07332 32.719 4.98111 32.779 4.87708 32.8025L0.51182 33.9156C0.416606 33.9409 0.332408 33.997 0.272334 34.0752C0.212259 34.1534 0.179687 34.2493 0.179688 34.348C0.179687 34.4466 0.212259 34.5425 0.272334 34.6207C0.332408 34.6989 0.416606 34.755 0.51182 34.7803L5.22429 36.3108C5.30132 36.3457 5.36716 36.4014 5.41446 36.4716C5.46176 36.5418 5.48867 36.6238 5.49218 36.7084Z" fill="#FF6551"/>
</g>
</svg>
