<svg width="6" height="13" viewBox="0 0 6 13" fill="none" xmlns="http://www.w3.org/2000/svg">
<path id="Vector" d="M5.19138 11.0584L2.5425 1.50744C2.50668 1.37692 2.44553 1.25476 2.36257 1.14791C2.27961 1.04107 2.17645 0.951639 2.05899 0.88473C1.94153 0.817821 1.81207 0.774744 1.67799 0.757958C1.54392 0.741171 1.40787 0.751001 1.27759 0.786893C1.1473 0.822784 1.02535 0.884031 0.918691 0.967137C0.812035 1.05024 0.722743 1.15358 0.655953 1.27125C0.589163 1.38892 0.546185 1.51861 0.529428 1.65292C0.512671 1.78724 0.522484 1.92355 0.558312 2.05406L3.20719 11.605C3.27955 11.8686 3.45349 12.0926 3.69071 12.2277C3.92792 12.3629 4.20902 12.398 4.47214 12.3256C4.73526 12.2531 4.95885 12.0788 5.09374 11.8412C5.22863 11.6036 5.26374 11.322 5.19138 11.0584Z" fill="#49B3F7"/>
</svg>
